{"glyphs":{"0":{"ha":566,"x_min":1,"x_max":541,"o":"m 208 -4 q 168 -1 189 -4 q 12 161 42 24 q 1 267 1 209 q 16 421 1 322 q 79 643 30 519 q 198 829 128 766 q 344 883 258 883 q 491 819 440 883 q 540 663 536 760 q 541 628 541 646 q 520 447 541 547 q 463 252 500 347 q 386 100 425 157 q 291 15 345 41 q 208 -4 254 -4 m 203 129 q 276 188 239 129 q 345 342 314 248 q 391 534 376 437 q 399 635 399 590 q 392 713 399 667 q 341 760 385 760 l 332 761 q 260 706 296 761 q 197 559 224 652 q 156 371 169 467 q 149 269 149 315 q 155 187 149 235 q 197 129 161 138 l 203 129 z "},"1":{"ha":374,"x_min":10,"x_max":399,"o":"m 149 -1 q 79 28 113 -1 q 50 92 50 55 l 50 102 q 180 563 75 229 q 222 701 211 661 q 86 550 146 550 q 64 553 81 550 q 29 581 47 556 q 10 631 10 606 q 28 649 10 644 q 121 721 62 664 q 223 823 174 772 q 256 858 242 842 q 317 886 286 886 q 340 883 321 886 q 381 857 360 880 q 399 818 399 838 q 397 808 399 813 q 206 96 292 455 q 183 22 195 45 q 149 -1 172 0 z "},"2":{"ha":439,"x_min":-90,"x_max":433,"o":"m 199 0 l -48 0 q -81 24 -70 1 q -90 68 -90 44 q -88 91 -90 73 q -70 129 -87 108 q 22 247 -43 159 q 156 443 87 336 q 264 638 224 551 q 291 726 291 694 q 283 752 291 743 q 263 761 274 761 q 230 743 250 761 q 192 689 210 726 q 174 627 174 652 l 174 625 q 139 602 173 602 q 87 616 115 602 q 51 679 51 637 q 60 726 51 701 q 158 857 87 809 q 264 890 208 890 q 312 884 288 890 q 389 838 360 871 q 433 719 433 787 q 399 582 433 663 q 300 403 365 500 q 174 224 235 306 l 134 168 q 123 146 123 153 q 134 139 123 139 l 180 144 q 203 144 191 144 l 215 144 q 262 106 250 141 q 267 76 267 91 q 256 29 267 56 q 199 0 244 2 z "},"3":{"ha":479,"x_min":-45,"x_max":462,"o":"m 130 -1 q 39 28 82 -1 q -28 101 -5 57 q -45 166 -45 132 q -20 260 -45 206 q 40 318 6 318 q 60 316 45 318 q 91 300 74 314 q 108 266 108 286 q 103 245 108 260 q 90 189 90 211 q 94 166 90 180 q 119 143 97 152 q 134 141 126 141 q 198 179 164 141 q 251 277 232 217 q 260 334 260 307 q 252 380 260 359 q 175 419 235 419 q 129 413 153 419 q 104 408 115 409 q 83 425 91 409 q 73 474 73 446 q 88 519 73 515 q 212 580 155 529 q 298 684 268 631 q 320 741 320 722 q 317 752 320 748 q 296 760 307 760 q 263 743 283 760 q 225 689 243 726 q 207 627 207 652 l 207 625 q 172 602 206 602 q 121 616 148 602 q 85 663 90 633 q 84 679 84 671 q 93 726 84 701 q 191 857 121 809 q 297 890 241 890 q 345 884 320 890 q 450 799 420 862 q 462 741 462 772 q 441 658 462 702 q 323 526 401 582 q 311 521 320 524 q 308 519 308 520 q 309 519 308 519 q 391 430 372 506 q 399 361 399 397 q 385 259 399 313 q 331 134 366 193 q 244 37 295 75 q 130 -1 193 -1 z "},"4":{"ha":488,"x_min":7,"x_max":507,"o":"m 248 -2 q 196 17 221 -2 q 172 68 172 37 l 172 73 q 197 212 176 113 q 210 275 210 269 q 208 280 210 277 q 201 283 205 283 l 60 283 q 15 322 26 286 q 7 375 7 347 q 26 460 7 431 q 191 682 90 552 q 374 876 292 812 q 416 888 392 888 q 445 884 424 888 q 490 855 467 880 q 507 812 507 838 q 503 787 507 800 l 492 747 q 391 393 442 576 q 301 41 340 210 q 248 -2 288 -2 m 145 410 q 240 413 189 410 q 248 419 246 414 q 294 562 267 484 q 324 654 324 650 q 320 661 324 659 l 316 662 q 309 659 311 662 q 138 423 197 514 q 136 419 136 421 q 138 413 136 417 q 145 410 140 410 z "},"5":{"ha":496,"x_min":-31,"x_max":465,"o":"m 146 -1 q 54 28 98 -1 q -14 101 10 57 q -31 169 -31 134 q -8 260 -31 208 q 25 311 5 292 q 52 319 36 319 q 71 317 57 319 q 103 301 85 315 q 121 266 121 288 q 117 245 121 258 q 104 193 108 222 l 104 186 q 124 146 104 162 q 141 140 132 140 q 184 170 159 140 q 233 263 208 200 q 270 393 257 326 q 279 481 279 442 q 276 526 279 496 q 243 562 273 557 l 237 563 q 204 553 221 563 q 168 531 186 544 q 140 513 153 520 q 125 510 134 510 q 100 515 116 510 q 70 533 84 519 q 55 562 55 547 l 55 565 q 106 730 68 629 l 134 808 q 156 860 142 837 q 205 884 171 882 l 237 885 q 313 882 282 885 q 359 879 336 879 q 431 884 393 879 l 432 884 q 453 865 444 884 q 465 808 465 840 q 412 732 465 745 q 292 745 349 735 q 268 748 277 748 q 248 741 252 748 q 216 646 227 695 q 291 661 261 661 q 334 652 315 661 q 404 579 380 633 q 427 446 427 522 q 409 297 427 374 q 354 153 391 220 q 265 42 317 85 q 146 -1 212 -1 z "},"6":{"ha":547,"x_min":-12,"x_max":487,"o":"m 203 -12 q 149 1 178 -12 q 100 23 123 12 l 90 29 q -3 145 14 69 q -12 223 -12 182 q 62 510 -12 338 q 177 723 110 623 q 317 873 243 823 q 353 884 335 884 q 389 873 367 884 q 420 831 411 863 q 422 817 422 824 q 396 766 422 792 q 298 655 353 724 q 222 536 243 587 q 342 593 269 593 q 363 592 353 593 q 455 530 424 583 q 487 401 487 477 q 448 211 486 307 q 347 52 411 115 q 203 -12 283 -12 m 201 104 q 275 153 239 104 q 334 277 311 203 q 354 397 354 342 q 353 437 354 404 q 313 482 352 471 q 303 483 309 483 q 226 435 265 483 q 162 313 187 387 q 141 197 141 250 q 143 152 141 187 q 193 104 146 117 l 201 104 z "},"7":{"ha":372,"x_min":-7,"x_max":422,"o":"m 84 -1 q 16 28 47 -1 q -7 82 -7 52 q -5 102 -7 92 q 199 625 39 247 q 257 767 241 728 q 227 762 254 765 q 139 755 182 755 q 83 758 111 755 q 41 774 55 761 q 26 815 26 791 q 29 845 26 829 q 38 872 33 860 q 44 884 43 884 q 49 885 45 885 l 100 884 q 260 881 186 881 q 337 884 310 881 l 348 885 q 404 863 382 885 q 422 824 422 844 q 420 808 422 816 q 269 421 345 618 q 134 51 193 224 q 84 -1 117 -1 z "},"8":{"ha":607,"x_min":-31,"x_max":577,"o":"m 210 -19 l 189 -18 q 13 69 72 -9 q -31 206 -31 127 q 36 395 -31 311 q 154 477 81 453 q 160 486 160 479 q 157 492 160 489 q 103 637 103 551 l 104 654 q 177 820 113 759 q 327 898 241 882 q 380 903 354 903 q 494 876 435 903 q 573 766 553 848 q 577 721 577 744 q 546 595 577 664 q 441 480 515 526 q 437 473 437 477 q 442 465 437 467 q 505 397 484 443 q 525 294 525 351 q 430 59 522 142 q 210 -19 345 -19 m 212 114 q 303 155 265 114 q 357 254 342 195 q 365 307 365 281 q 352 368 365 334 q 285 406 340 403 q 181 363 219 405 q 129 226 129 307 q 205 114 129 125 l 212 114 m 321 543 q 391 576 361 543 q 432 656 421 608 q 436 692 436 675 q 424 748 436 718 q 367 781 412 777 q 294 746 323 780 q 256 667 266 713 q 252 631 252 648 q 263 578 252 607 q 314 543 274 549 l 321 543 z "},"9":{"ha":554,"x_min":26,"x_max":532,"o":"m 138 -5 q 101 7 123 -5 q 71 51 79 19 q 70 62 70 57 q 98 115 70 89 q 202 220 144 154 q 284 336 260 286 q 227 290 254 300 q 187 282 208 282 q 163 284 176 282 q 63 352 102 296 q 26 475 26 404 l 26 484 q 83 689 33 587 q 212 847 133 791 q 328 882 265 882 q 438 855 387 882 q 513 778 490 829 q 532 658 532 727 q 520 549 532 601 q 446 353 499 463 q 320 146 392 243 q 172 3 248 50 q 138 -5 155 -5 m 208 400 q 286 446 245 400 q 355 564 326 491 q 382 691 382 633 q 382 726 382 694 q 336 773 382 758 l 325 774 q 250 727 288 774 q 185 608 212 681 q 159 473 159 534 q 195 401 159 415 q 208 400 202 400 z "}," ":{"ha":255,"x_min":0,"x_max":0,"o":""}," ":{"ha":255,"x_min":0,"x_max":0,"o":""},"!":{"ha":198,"x_min":-13,"x_max":309,"o":"m 85 208 q 55 218 70 208 q 41 257 41 228 q 42 275 41 265 q 81 486 56 365 q 131 710 106 607 q 170 849 156 813 q 235 882 189 882 q 290 865 266 882 q 309 823 309 850 q 304 796 309 811 q 200 458 254 640 q 134 239 160 321 q 100 210 125 217 q 85 208 92 208 m 40 -11 q 4 2 21 -11 q -13 38 -13 14 l -12 47 q 9 140 -3 96 q 56 173 20 173 q 98 159 79 173 q 115 127 115 146 q 113 113 115 121 q 100 64 105 89 q 90 25 95 43 q 40 -11 76 -11 z "},"\"":{"ha":251,"x_min":-155,"x_max":182,"o":"m 52 522 q 38 522 52 522 q 8 551 24 522 q 0 595 0 569 q 17 686 0 626 q 68 791 33 745 q 117 815 89 815 q 133 814 118 815 q 168 798 149 814 q 182 772 182 786 q 147 686 182 764 q 96 564 122 629 q 52 522 78 522 m -103 522 q -117 522 -104 522 q -147 551 -131 522 q -155 595 -155 569 q -139 686 -155 626 q -87 791 -122 745 q -39 815 -66 815 q -22 814 -37 815 q 12 798 -7 814 q 26 772 26 786 q -8 686 26 764 q -59 564 -33 629 q -103 522 -77 522 z "},"#":{"ha":671,"x_min":-5,"x_max":687,"o":"m 423 -17 l 417 -17 q 353 3 386 -17 q 317 59 319 23 q 343 269 319 147 q 234 263 288 267 q 203 71 203 133 l 203 65 q 169 36 202 36 q 112 53 141 36 q 81 102 83 71 q 98 252 83 165 q 34 243 55 247 l 31 243 q 1 265 11 243 q -5 299 -5 282 q -2 325 -5 308 q 26 349 1 342 q 121 361 56 353 l 142 446 q 87 436 104 441 l 82 435 q 60 452 69 435 q 50 502 50 471 q 58 544 50 524 q 85 569 66 564 q 180 581 115 574 q 248 781 224 724 q 291 807 260 807 q 309 807 292 807 q 352 788 326 806 q 372 754 372 773 q 371 744 372 749 q 323 593 352 687 q 426 598 385 598 q 510 852 480 781 q 561 883 526 883 q 583 883 563 883 q 633 861 602 882 q 656 821 656 843 q 655 809 656 815 q 590 603 629 733 q 654 595 627 602 q 684 564 678 587 q 687 541 687 553 q 682 509 687 528 q 665 474 677 490 q 648 463 657 463 q 640 466 644 463 q 553 475 623 475 l 526 372 q 576 362 554 368 q 603 337 599 355 q 604 323 604 330 q 599 296 604 312 q 583 266 593 279 q 566 255 573 255 l 564 255 q 499 267 545 264 q 458 20 458 98 l 458 17 q 423 -17 458 -15 m 261 373 q 367 378 314 376 q 390 469 378 424 q 285 461 336 466 l 261 373 z "},"$":{"ha":523,"x_min":-14,"x_max":503,"o":"m 101 -125 q 90 -124 96 -125 q 62 -104 71 -119 q 57 -83 57 -94 q 58 -72 57 -78 l 68 -33 q -12 52 2 -12 q -14 75 -14 64 q -2 125 -14 98 q 51 171 9 153 q 183 248 144 210 q 222 328 222 287 q 201 405 222 366 q 136 606 136 522 q 140 650 136 627 q 211 796 155 739 q 334 876 267 853 l 353 947 q 373 972 358 964 q 395 979 383 979 q 406 977 400 979 q 432 957 424 972 q 438 935 438 947 q 437 924 438 930 l 427 886 q 492 824 475 870 q 503 760 503 791 q 473 686 503 695 q 366 638 417 675 q 291 547 314 600 q 280 499 280 524 q 296 438 280 469 q 318 403 306 420 q 355 339 339 374 q 368 268 368 309 q 367 232 368 260 q 330 129 365 203 q 250 19 295 58 q 159 -32 205 -20 l 142 -94 q 122 -120 137 -111 q 101 -125 112 -125 z "},"%":{"ha":608,"x_min":43,"x_max":580,"o":"m 153 -5 q 137 -2 145 -5 q 113 21 120 5 q 110 38 110 29 q 113 54 110 45 l 430 856 q 453 880 437 873 q 471 883 462 883 q 486 880 478 883 q 511 857 504 873 q 514 840 514 849 q 511 825 514 833 l 193 22 q 170 -1 186 5 q 153 -5 162 -5 m 427 8 q 403 11 415 8 q 307 159 307 41 q 322 247 307 193 q 385 347 337 300 q 472 385 422 385 q 496 382 484 385 q 580 245 580 360 q 565 151 580 208 q 505 46 550 94 q 427 8 471 8 m 431 132 q 451 150 441 132 q 470 197 461 168 q 480 253 480 233 q 473 271 480 271 q 449 251 460 271 q 430 205 437 232 q 422 156 422 178 q 431 132 422 132 m 163 494 q 138 496 151 494 q 43 644 43 527 q 58 732 43 679 q 121 833 73 786 q 208 870 159 870 q 232 868 220 870 q 309 789 294 852 q 316 732 316 762 q 301 637 316 694 q 241 532 286 580 q 163 494 207 494 m 168 618 q 187 636 177 618 q 206 683 197 654 q 216 741 216 717 q 209 756 216 756 q 185 737 196 756 q 166 692 174 718 q 158 640 158 663 q 168 618 158 618 z "},"&":{"ha":544,"x_min":-14,"x_max":525,"o":"m 165 -24 q 53 11 100 -24 q -9 104 5 46 q -14 140 -14 121 q 8 229 -14 182 q 63 312 31 272 q 131 391 95 351 q 180 448 156 419 q 191 469 191 460 q 190 479 191 474 l 189 486 q 168 630 168 548 q 168 677 168 633 q 208 791 169 721 q 340 880 247 861 q 373 883 357 883 q 466 857 420 883 q 523 772 511 831 q 525 751 525 762 q 479 631 525 698 q 359 482 418 547 q 332 434 332 454 q 334 424 332 429 q 377 294 352 358 l 378 291 q 385 283 381 283 q 395 285 388 283 q 413 288 406 288 q 435 277 429 288 q 444 242 444 263 q 443 223 444 238 q 433 186 442 208 l 433 183 q 436 167 433 178 q 445 141 439 155 q 453 120 450 127 q 462 77 462 97 q 448 33 462 57 q 402 1 433 8 q 387 -1 395 -1 q 340 37 357 -1 q 326 67 332 53 q 315 81 320 81 q 311 79 313 81 q 272 45 294 67 q 221 -2 248 20 q 165 -24 194 -23 m 168 130 q 253 184 182 130 q 267 205 267 196 q 263 221 267 212 q 242 286 251 254 q 230 299 238 299 q 211 288 222 299 q 195 270 201 279 q 134 149 134 187 q 153 130 134 130 l 168 130 m 302 590 q 321 609 307 590 q 353 655 336 627 q 382 705 370 683 q 387 727 387 718 q 384 740 387 734 q 367 751 378 751 q 354 749 364 751 q 326 718 345 747 q 298 644 306 684 q 294 616 294 627 q 302 590 294 597 l 302 590 z "},"'":{"ha":96,"x_min":0,"x_max":182,"o":"m 52 522 q 38 522 52 522 q 8 551 24 522 q 0 595 0 569 q 17 686 0 626 q 68 791 33 745 q 117 815 89 815 q 133 814 118 815 q 168 798 149 814 q 182 772 182 786 q 147 686 182 764 q 96 564 122 629 q 52 522 78 522 z "},"(":{"ha":381,"x_min":0,"x_max":426,"o":"m 136 -1 l 112 -1 q 41 32 67 1 q 0 184 0 80 q 21 360 0 250 q 106 607 42 470 q 273 837 171 745 q 395 889 332 889 q 424 878 416 889 q 426 872 426 876 q 404 836 426 860 q 280 649 338 766 q 185 404 222 531 q 144 165 144 264 q 186 52 144 79 q 198 36 195 47 l 199 32 q 190 12 199 23 q 159 0 180 1 q 136 -1 147 -1 z "},")":{"ha":406,"x_min":-47,"x_max":379,"o":"m -12 -1 l -14 -1 q -45 9 -37 -1 q -47 16 -47 12 q -24 52 -47 28 q 99 239 41 121 q 195 485 157 357 q 235 720 235 624 q 193 836 235 808 q 180 855 180 843 q 189 877 180 865 q 219 888 199 887 l 239 889 q 256 888 248 889 l 267 888 q 338 857 312 888 q 379 703 379 808 q 358 528 379 638 q 273 281 337 418 q 106 51 208 144 q 34 7 71 20 q -12 -1 14 0 z "},"*":{"ha":205,"x_min":79,"x_max":263,"o":"m 134 705 q 112 715 123 705 q 96 744 96 728 q 119 771 96 758 q 132 781 132 779 q 123 782 132 782 l 118 782 l 104 783 q 79 810 79 785 q 94 845 79 833 q 108 850 100 850 q 118 848 113 850 l 133 836 q 144 827 141 827 q 145 829 145 827 q 140 848 145 833 q 139 857 139 853 q 149 877 139 868 q 175 885 158 885 q 198 877 189 885 q 205 860 205 871 q 201 842 205 854 q 199 831 199 833 q 199 831 199 831 q 214 842 201 831 q 230 848 222 848 q 244 843 235 848 q 260 825 254 838 q 263 810 263 817 q 259 795 263 804 q 232 783 255 785 q 209 779 209 781 q 216 774 209 778 q 231 765 223 770 q 243 742 243 755 q 231 718 243 728 q 203 707 218 707 q 196 708 200 707 q 187 716 191 709 q 179 731 182 722 q 174 746 176 739 q 171 753 172 753 q 165 743 169 753 q 154 716 161 728 q 134 705 147 705 z "},"+":{"ha":410,"x_min":29,"x_max":387,"o":"m 191 254 l 184 254 q 136 277 146 254 q 132 310 132 290 q 140 383 132 338 q 143 405 143 396 q 142 410 143 408 q 134 412 141 412 l 127 411 q 107 410 119 410 q 58 408 83 408 q 35 429 41 408 q 29 458 29 443 q 32 479 29 465 q 52 502 35 494 q 143 519 87 513 q 160 521 154 521 q 170 522 167 521 q 186 580 175 525 q 208 650 198 635 q 269 678 231 678 q 299 672 286 678 q 315 647 315 664 l 315 640 l 292 551 q 290 538 290 544 q 298 524 290 528 q 319 521 305 521 l 328 521 q 362 519 344 521 q 387 475 387 513 q 375 433 387 453 q 359 419 369 422 q 331 415 349 416 q 302 416 315 415 l 288 417 q 268 414 277 417 q 253 388 258 410 q 241 330 245 357 q 229 271 237 302 q 216 258 227 262 q 191 254 205 254 z "},",":{"ha":134,"x_min":-43,"x_max":77,"o":"m -3 -48 l -13 -48 q -35 -22 -23 -47 q -43 22 -43 -3 q -7 144 -43 87 q 30 165 9 165 q 41 164 31 165 q 66 150 52 163 q 77 127 77 139 q 56 64 77 121 q 29 -11 44 37 q -3 -48 16 -48 z "},"-":{"ha":389,"x_min":42,"x_max":347,"o":"m 81 410 q 42 458 42 411 q 71 515 42 498 q 202 536 119 536 q 309 524 260 536 q 347 471 347 510 q 335 434 347 454 q 293 412 323 414 l 233 413 q 81 410 158 413 z "},"­":{"ha":389,"x_min":42,"x_max":347,"o":"m 81 410 q 42 458 42 411 q 71 515 42 498 q 202 536 119 536 q 309 524 260 536 q 347 471 347 510 q 335 434 347 454 q 293 412 323 414 l 233 413 q 81 410 158 413 z "},".":{"ha":176,"x_min":-19,"x_max":122,"o":"m 40 0 q 24 1 33 0 q -19 62 -19 16 q 7 140 -19 104 q 63 170 31 170 q 79 168 71 170 q 122 106 122 153 q 96 30 122 64 q 40 0 73 0 z "},"/":{"ha":198,"x_min":-42,"x_max":362,"o":"m 1 -5 q -15 -2 -7 -5 q -39 21 -32 5 q -42 38 -42 29 q -39 54 -42 45 l 278 856 q 301 880 286 873 q 319 883 310 883 q 334 880 326 883 q 359 857 352 873 q 362 840 362 849 q 359 825 362 833 l 41 22 q 18 -1 35 5 q 1 -5 10 -5 z "},":":{"ha":273,"x_min":35,"x_max":227,"o":"m 152 489 q 139 490 146 489 q 100 543 101 503 l 100 547 q 123 615 100 584 q 174 642 144 642 q 188 640 180 642 q 227 588 226 627 l 227 584 q 203 516 227 547 q 152 489 182 489 m 87 294 q 73 296 81 294 q 35 350 35 309 q 58 420 35 388 q 110 447 79 447 q 123 446 116 447 q 161 389 161 432 q 138 321 161 353 q 87 294 118 294 z "},";":{"ha":269,"x_min":26,"x_max":220,"o":"m 62 252 q 52 252 61 252 q 33 275 43 252 q 26 315 26 292 q 58 423 26 373 q 91 442 73 442 q 101 442 92 442 q 123 429 111 441 q 133 409 133 420 q 114 352 133 404 q 90 285 104 326 q 62 252 78 252 m 145 489 q 132 490 139 489 q 94 543 94 503 l 94 547 q 117 615 94 584 q 167 642 137 642 q 181 640 174 642 q 220 586 220 627 q 197 516 220 548 q 145 489 176 489 z "},"<":{"ha":424,"x_min":53,"x_max":484,"o":"m 267 129 q 245 132 256 129 q 185 198 219 144 q 119 313 151 252 q 78 384 96 354 q 53 456 53 423 q 53 473 53 456 q 88 518 54 489 q 240 641 149 570 q 395 755 332 713 q 416 758 406 758 q 459 742 438 758 q 484 695 481 726 l 484 690 q 454 633 484 661 q 334 542 391 582 q 241 471 283 507 q 218 453 228 460 q 205 441 209 446 q 203 435 203 438 q 215 411 203 430 q 290 305 248 362 l 339 239 q 350 205 350 221 q 341 173 350 193 q 302 138 332 153 q 267 129 285 129 z "},"=":{"ha":416,"x_min":50,"x_max":372,"o":"m 90 334 q 50 381 50 335 q 79 439 50 423 q 210 460 126 460 q 317 448 268 460 q 355 395 355 434 q 343 357 355 377 q 301 336 331 338 l 241 337 q 90 334 166 337 m 107 486 q 67 534 67 487 q 96 591 67 574 q 231 612 144 612 q 334 600 286 612 q 372 547 372 587 q 360 510 372 530 q 318 488 348 490 l 258 489 q 107 486 184 489 z "},">":{"ha":540,"x_min":57,"x_max":488,"o":"m 125 129 q 81 145 102 129 q 57 192 60 161 l 57 197 q 87 254 57 225 q 206 345 149 305 q 300 416 257 380 q 322 434 313 427 q 336 446 332 441 q 338 452 338 449 q 326 476 338 457 q 250 583 293 525 l 201 648 q 191 682 191 666 q 200 714 191 694 q 238 749 209 734 q 274 758 256 758 q 295 755 284 758 q 355 688 321 742 q 422 574 389 635 q 463 503 444 533 q 488 431 488 463 q 487 414 488 431 q 452 369 487 397 q 300 246 392 317 q 145 131 209 174 q 125 129 135 129 z "},"?":{"ha":507,"x_min":-12,"x_max":545,"o":"m 81 220 q 50 236 63 220 q 42 267 42 248 q 47 300 42 281 q 125 424 68 365 q 247 540 181 484 q 374 662 319 602 q 404 720 404 700 q 397 736 404 730 q 364 746 385 746 q 245 695 300 746 q 213 682 231 682 q 152 724 170 682 q 148 743 148 734 q 166 791 148 766 q 300 872 213 848 q 395 887 354 887 q 466 875 425 887 q 530 817 506 863 q 545 750 545 787 q 541 712 545 732 q 462 570 522 629 q 328 460 401 511 q 213 369 267 416 q 132 260 160 321 q 81 220 111 220 m 41 -11 q 5 2 22 -11 q -12 38 -12 14 l -12 47 q 10 140 -2 96 q 56 173 21 173 q 99 159 80 173 q 116 127 116 146 q 114 113 116 121 q 100 64 106 89 q 90 25 96 43 q 41 -11 77 -11 z "},"@":{"ha":667,"x_min":42,"x_max":689,"o":"m 303 -9 q 171 31 240 -9 q 63 178 102 70 q 42 314 42 238 q 56 451 42 377 q 181 733 96 628 q 366 870 266 838 q 449 884 409 884 q 568 851 502 884 q 671 700 634 818 q 689 572 689 644 q 667 388 689 490 q 543 115 626 211 q 303 -9 434 -9 m 296 77 q 517 252 422 77 q 485 241 506 243 l 475 240 q 421 289 428 240 q 410 310 419 310 q 391 296 402 310 q 297 234 342 234 q 264 242 281 234 q 202 315 223 264 q 189 385 189 348 q 193 429 189 406 q 237 545 205 488 q 316 639 268 602 q 426 676 363 676 q 529 627 498 673 q 549 553 549 595 q 545 509 549 532 q 522 372 529 438 q 517 303 517 332 q 521 262 517 274 l 521 261 q 573 411 553 325 q 597 600 597 521 q 583 708 597 644 q 512 798 568 772 q 461 810 488 810 q 370 781 425 810 q 251 663 314 753 q 155 434 188 572 q 138 297 138 357 q 160 176 138 241 q 245 86 181 111 q 296 77 270 77 m 310 329 q 399 439 338 329 q 448 534 439 514 q 456 568 456 554 q 448 591 456 581 q 427 600 441 600 q 405 594 418 600 q 323 490 357 565 q 290 364 290 414 l 290 362 q 310 329 292 329 z "},"A":{"ha":661,"x_min":-22,"x_max":715,"o":"m 460 -132 q 393 -115 429 -132 q 353 -37 353 -94 q 443 361 353 101 q 283 340 363 353 q 195 131 230 232 q 155 -42 160 31 q 134 -60 154 -53 q 102 -64 120 -64 q 78 -63 95 -64 q 38 -44 60 -62 q 9 14 16 -26 q 8 28 8 20 q 32 139 8 68 q 104 306 56 210 q 22 281 47 292 l 18 281 q -2 295 8 281 q -19 332 -13 309 q -22 352 -22 342 q -18 373 -22 363 q 41 402 -11 387 q 173 431 94 418 q 431 776 290 631 q 577 850 509 850 q 614 849 578 850 q 688 802 650 848 q 715 730 715 768 q 711 697 715 714 l 696 650 q 640 467 671 570 q 683 461 666 465 q 707 441 703 455 q 710 422 710 432 q 701 385 710 406 l 699 378 q 682 361 694 361 q 669 363 674 361 q 640 369 659 368 q 621 370 629 370 l 611 370 q 521 -91 521 60 q 460 -132 517 -132 m 342 455 q 480 467 414 463 q 527 592 505 536 q 557 672 545 638 q 565 711 565 696 q 549 731 565 731 q 503 697 532 731 q 342 455 425 603 z "},"B":{"ha":628,"x_min":-8,"x_max":593,"o":"m 207 -47 l 186 -47 q 41 21 98 -37 q -8 138 -8 72 q -7 158 -8 148 q 35 344 7 246 q 88 526 62 441 q 130 690 130 659 l 130 692 q 127 711 127 701 q 131 735 127 720 q 151 766 134 751 q 335 836 227 825 q 363 837 350 837 q 511 789 456 837 q 565 673 565 742 q 559 615 565 663 q 450 490 553 568 q 545 442 511 478 q 593 305 593 390 q 545 149 593 231 q 398 6 497 66 q 207 -47 309 -47 m 243 517 q 377 558 331 519 q 419 640 419 594 l 419 648 q 376 703 414 695 q 364 705 371 705 q 275 667 330 705 l 243 517 m 192 90 q 222 93 205 90 q 397 216 329 113 q 429 315 429 270 q 428 345 429 319 q 390 397 427 371 q 323 414 364 414 q 212 382 268 414 q 202 342 210 369 q 184 283 195 316 q 148 130 148 165 q 148 117 148 127 q 165 96 149 106 q 192 90 174 90 z "},"C":{"ha":550,"x_min":2,"x_max":627,"o":"m 237 -67 q 73 13 138 -63 q 2 199 7 90 l 2 203 q 56 471 2 331 q 204 715 109 611 q 421 840 299 820 q 460 842 441 842 q 571 812 518 842 q 627 692 627 781 q 570 496 627 620 q 511 452 545 452 q 490 453 509 452 q 444 481 470 454 q 423 521 423 501 q 425 531 423 526 q 433 549 427 537 q 467 641 452 583 q 473 681 473 664 q 459 717 473 707 q 448 720 454 720 q 422 711 437 720 q 318 606 372 685 q 224 429 265 528 q 159 161 159 274 q 202 85 159 85 q 244 98 215 85 q 318 155 273 112 q 398 239 364 199 q 431 254 410 254 q 457 250 437 254 q 498 220 477 246 q 509 186 509 205 q 446 60 509 145 q 355 -28 408 9 q 237 -67 301 -66 z "},"D":{"ha":609,"x_min":-41,"x_max":609,"o":"m 158 -83 q 33 -47 94 -83 q -28 16 -8 -22 q -41 67 -41 39 q -35 106 -41 85 q 10 254 -20 159 q 115 620 115 587 q 113 635 115 627 q 104 653 109 648 q 94 693 94 673 q 140 776 94 743 q 243 821 184 805 q 348 837 302 837 l 351 837 q 486 798 429 834 q 587 675 557 753 q 609 550 609 619 q 606 498 609 525 q 550 285 595 393 q 436 89 505 177 q 287 -47 368 1 q 158 -83 224 -83 m 138 57 q 224 91 176 57 q 323 202 272 125 q 408 370 374 279 q 450 540 442 460 l 450 564 q 433 650 450 611 q 380 696 416 688 q 366 698 373 698 q 292 666 333 698 q 232 488 275 621 q 150 226 190 355 q 102 64 111 97 q 138 57 120 57 z "},"E":{"ha":512,"x_min":6,"x_max":651,"o":"m 193 -88 q 71 -46 119 -88 q 20 100 20 0 q 47 263 20 180 q 56 294 51 277 q 59 307 58 300 q 56 318 59 314 q 46 322 52 322 l 35 321 q 27 323 30 321 q 9 351 16 331 q 6 376 6 363 q 9 399 6 385 q 47 433 13 427 l 59 435 q 114 446 85 441 q 205 646 169 576 l 199 644 q 171 639 176 639 l 165 640 q 130 682 141 647 q 121 734 121 708 q 124 767 121 744 q 149 799 127 789 q 297 831 210 819 q 549 854 450 854 q 640 816 622 854 q 651 768 651 793 q 625 683 651 720 q 605 667 614 667 q 597 670 601 667 q 511 692 576 692 q 468 691 507 692 q 342 675 430 690 q 360 639 360 659 q 351 608 360 625 q 280 470 329 572 q 317 473 300 471 q 411 479 365 479 l 428 479 q 463 431 463 477 q 448 375 463 398 q 432 363 440 363 q 426 365 429 363 q 388 370 416 370 q 230 355 333 370 q 188 230 204 290 q 171 129 171 166 q 175 99 171 111 q 225 64 186 64 l 246 64 q 327 79 267 64 q 378 89 371 89 q 423 58 408 89 q 435 9 435 35 q 430 -28 435 -3 q 385 -62 425 -53 q 275 -80 334 -69 l 263 -82 q 193 -88 225 -88 z "},"F":{"ha":553,"x_min":-4,"x_max":667,"o":"m 98 -144 q 59 -141 84 -144 q 12 -113 34 -137 q -4 -66 -4 -96 q -1 -36 -4 -52 q 39 98 11 11 q 98 292 66 182 l 96 291 l 66 285 q 49 302 56 285 q 41 341 41 319 q 54 375 41 363 q 92 391 66 385 q 140 400 134 400 l 156 444 q 227 640 208 585 l 214 637 q 193 633 196 633 q 154 661 170 633 q 135 730 135 692 q 153 770 135 758 q 286 808 195 791 q 464 833 376 824 q 564 839 530 839 q 583 838 575 839 q 667 756 667 828 q 665 729 667 750 q 644 675 663 708 q 611 655 632 655 q 597 660 602 655 q 527 677 583 673 q 496 678 513 678 q 386 669 449 678 q 388 659 388 665 q 373 620 388 646 q 294 419 335 537 q 438 425 372 425 q 481 425 460 425 q 515 378 515 421 q 499 326 515 349 q 484 315 492 315 q 477 316 481 315 q 418 322 465 322 q 375 321 410 322 q 259 312 339 321 q 194 83 227 220 q 161 -122 161 -55 q 132 -140 159 -133 q 98 -144 116 -144 z "},"G":{"ha":586,"x_min":-3,"x_max":607,"o":"m 392 -142 q 331 -120 361 -142 q 300 -64 300 -99 q 302 -50 300 -58 q 311 -25 304 -40 q 319 0 317 -10 l 309 -12 q 200 -70 256 -70 q 160 -64 190 -70 q 89 -15 130 -58 q 24 86 48 28 q -3 205 -3 147 q 51 472 -3 332 q 199 715 104 611 q 416 840 294 820 q 437 841 427 841 q 511 825 471 841 q 581 773 551 809 q 607 697 607 741 q 594 623 607 666 q 570 574 584 589 q 520 553 547 553 q 498 555 516 553 q 460 580 480 557 q 446 616 446 595 q 449 635 446 625 q 460 696 460 675 q 459 710 460 705 q 440 726 454 726 l 433 725 q 320 642 376 711 q 220 479 264 574 q 153 292 176 385 q 138 181 138 230 q 145 116 138 157 q 208 70 153 74 q 328 167 256 70 q 382 243 358 207 q 400 273 400 268 q 393 277 400 277 l 388 277 q 322 260 351 271 q 280 236 294 248 q 263 229 271 229 q 239 243 253 229 q 223 291 226 258 l 223 297 q 245 345 223 325 q 332 380 273 366 q 504 401 424 401 q 541 399 526 401 q 566 372 557 395 q 573 336 573 354 q 571 315 573 330 q 550 293 570 300 q 521 271 529 287 q 476 158 498 231 q 443 13 455 85 q 434 -72 434 -39 q 435 -95 434 -85 l 435 -100 q 392 -142 435 -142 z "},"H":{"ha":567,"x_min":2,"x_max":658,"o":"m 372 -145 q 348 -143 366 -145 q 313 -114 330 -142 q 301 -62 301 -96 q 304 -26 301 -46 q 355 267 323 98 q 359 291 359 282 q 357 300 359 296 q 336 307 354 307 l 236 309 l 227 309 q 212 307 218 309 q 202 294 205 305 q 159 136 180 225 q 130 -20 138 47 q 94 -50 124 -44 q 81 -51 87 -51 q 32 -35 58 -51 q 2 28 5 -19 q 28 169 3 87 q 54 270 42 217 q 56 289 56 281 q 56 296 56 293 q 41 304 54 304 l 39 304 q 9 326 20 304 q 3 354 3 339 q 8 382 3 363 q 49 416 14 401 q 63 419 57 418 q 76 422 70 420 q 87 434 82 425 q 98 464 93 444 q 158 664 129 578 q 205 779 188 751 q 258 804 224 804 q 319 786 293 804 q 340 751 340 772 q 329 709 340 743 q 254 457 292 585 l 254 455 q 248 429 248 436 q 262 422 248 422 l 277 422 q 369 420 327 422 q 389 429 383 420 q 397 450 395 437 q 433 568 408 492 q 485 715 458 644 q 526 810 511 785 q 576 837 547 837 q 598 835 579 837 q 640 809 616 833 q 658 770 658 792 q 656 755 658 763 q 531 358 591 574 q 440 -102 470 142 q 413 -135 437 -122 q 372 -145 394 -145 z "},"I":{"ha":393,"x_min":-38,"x_max":542,"o":"m 239 83 q 252 73 239 72 q 295 75 264 74 q 330 73 315 76 q 363 39 359 67 q 355 -17 368 10 q 315 -47 342 -45 q 131 -47 230 -46 q 7 -47 65 -47 q -27 -15 -17 -45 q -29 46 -38 16 q 12 80 -20 77 q 41 80 26 81 q 88 79 71 79 q 106 92 105 79 q 110 127 106 111 q 180 428 136 268 q 265 715 222 581 q 267 721 266 718 q 260 728 268 727 q 238 728 253 729 q 184 723 221 728 q 154 751 161 720 q 149 799 146 781 q 167 829 151 817 q 272 861 191 850 q 359 867 314 866 q 425 868 404 869 q 507 857 477 865 q 532 838 522 853 q 541 797 542 823 q 528 750 539 770 q 489 730 517 729 q 448 732 468 731 q 429 728 433 732 q 421 712 426 724 q 371 562 401 644 q 275 261 318 418 q 239 83 245 154 z "},"J":{"ha":470,"x_min":-35,"x_max":606,"o":"m 180 -62 q 81 -24 129 -61 q 2 67 34 13 q -35 173 -31 121 l -35 178 q -10 248 -35 227 q 34 264 10 264 q 60 261 41 264 q 94 227 79 257 q 172 145 132 145 q 195 147 174 145 q 246 240 216 149 q 298 422 273 326 q 349 675 349 623 q 349 684 349 680 q 323 705 342 703 l 315 705 q 277 701 298 705 q 221 695 250 695 q 174 719 188 698 q 161 765 161 739 l 161 781 q 170 816 161 795 q 191 838 179 837 q 262 839 225 839 q 368 838 313 839 q 481 836 429 836 l 533 836 q 602 803 591 836 q 606 780 606 791 q 590 732 606 759 q 538 705 574 706 q 527 706 532 705 q 519 707 522 707 q 513 706 517 707 q 505 699 509 705 q 462 533 497 687 q 391 251 431 395 q 296 20 350 106 q 180 -62 245 -59 z "},"K":{"ha":593,"x_min":-24,"x_max":642,"o":"m 449 -72 q 398 -51 428 -72 q 348 16 369 -31 q 283 166 313 92 q 258 225 268 203 q 229 258 243 258 q 214 251 225 258 q 190 205 203 243 q 167 127 176 167 l 157 86 q 141 23 147 50 q 79 -50 122 -45 l 66 -51 q 4 -26 32 -51 q -24 27 -24 -1 q -22 42 -24 35 q 53 283 3 121 q 145 591 102 445 q 190 768 187 737 q 219 817 193 802 q 261 828 239 828 q 289 825 269 828 q 328 794 310 821 q 339 755 339 779 q 334 718 339 739 q 241 427 299 605 q 231 390 231 393 q 310 483 254 414 q 420 636 366 551 q 494 793 475 721 q 531 835 505 829 q 545 836 538 836 q 591 822 566 836 q 633 775 616 807 q 642 735 642 756 q 627 678 642 709 q 492 491 583 603 q 351 328 402 379 q 381 241 351 300 q 452 134 411 182 q 529 86 494 86 l 534 86 q 563 48 563 86 q 540 -13 563 20 q 449 -72 497 -72 z "},"L":{"ha":323,"x_min":-4,"x_max":370,"o":"m 154 -105 q 97 -98 140 -105 q 16 -4 54 -91 q -4 111 -4 52 l -3 131 q 81 486 6 274 q 237 810 156 697 q 291 839 262 839 q 320 833 298 839 q 361 795 342 828 q 370 762 370 779 q 359 725 370 744 q 236 465 312 650 q 129 131 160 279 q 123 79 123 100 q 137 41 123 48 q 151 38 142 38 q 229 65 177 38 q 258 73 245 73 q 288 60 275 73 q 307 7 307 40 q 306 -15 307 5 q 273 -62 305 -35 q 154 -105 214 -105 z "},"M":{"ha":809,"x_min":5,"x_max":871,"o":"m 621 -86 q 582 -80 607 -86 q 543 -47 556 -74 q 532 21 532 -18 q 548 140 532 62 q 603 335 564 218 q 679 545 643 451 q 704 613 694 584 q 715 655 715 643 q 710 664 715 664 q 678 623 700 664 q 579 415 636 541 q 458 162 511 265 q 416 139 444 139 q 396 140 414 139 q 349 163 378 141 q 317 216 321 184 q 313 414 313 275 l 313 543 q 309 557 313 557 q 294 532 304 557 q 229 346 263 454 q 171 148 195 238 q 148 27 148 58 l 148 26 q 121 1 147 9 q 90 -4 107 -4 q 55 1 78 -4 q 14 37 33 6 q 5 80 5 54 q 12 131 5 102 q 71 331 26 188 q 165 608 115 473 q 246 774 216 742 q 318 802 281 802 q 340 801 319 802 q 392 778 361 800 q 429 721 422 755 q 433 645 433 690 q 432 601 433 635 q 427 499 431 566 q 421 367 423 432 q 497 523 442 412 q 600 724 552 633 q 703 832 650 813 q 743 840 724 840 q 806 817 772 840 q 861 741 840 794 q 871 681 871 711 q 865 633 871 657 q 829 526 853 595 q 762 333 798 440 q 685 -4 685 100 q 686 -31 685 -18 l 686 -36 q 659 -79 686 -67 q 621 -86 640 -86 z "},"N":{"ha":592,"x_min":-26,"x_max":676,"o":"m 408 -56 q 362 -42 386 -56 q 334 -3 339 -29 q 304 189 320 91 q 260 494 272 384 q 256 522 259 522 q 250 499 254 522 q 237 451 245 481 q 124 16 176 236 q 71 -37 110 -34 l 63 -37 q 0 -14 28 -37 q -26 34 -26 7 q 43 276 -26 47 q 184 719 150 624 q 231 766 198 754 q 267 773 249 773 q 304 766 281 773 q 337 726 328 758 q 387 447 351 670 l 401 357 q 413 329 406 329 q 426 353 419 329 q 484 638 444 429 q 509 772 499 724 q 568 839 526 831 q 588 841 578 841 q 646 822 619 841 q 676 773 676 801 q 645 646 676 765 q 467 -10 523 168 q 423 -54 453 -48 q 408 -56 415 -56 z "},"O":{"ha":585,"x_min":-7,"x_max":595,"o":"m 237 -56 q 146 -40 207 -56 q 27 66 85 -24 q -7 210 -7 126 q -4 280 -7 222 q 38 447 0 338 q 131 647 77 555 q 239 787 184 739 q 368 842 298 842 q 420 831 406 842 q 440 806 435 820 q 463 780 450 789 q 492 765 476 771 q 581 654 560 734 q 595 545 595 604 q 586 438 595 509 q 542 265 577 368 q 460 85 506 162 q 368 -20 414 7 q 237 -56 301 -56 m 235 104 q 274 114 245 104 q 352 223 304 124 q 416 387 387 298 q 456 597 456 513 q 404 688 456 688 q 283 583 348 688 q 178 302 212 457 q 170 219 170 256 q 184 143 170 172 q 235 104 203 104 z "},"P":{"ha":564,"x_min":-12,"x_max":622,"o":"m 81 -87 q 16 -68 45 -87 q -12 -20 -12 -50 q -9 -1 -12 -11 q 96 367 32 129 q 193 739 161 605 q 226 775 200 765 q 264 783 244 783 q 292 780 273 783 q 328 760 311 777 q 341 753 334 753 q 382 787 359 753 q 476 860 427 853 q 491 861 484 861 q 563 830 531 861 q 621 694 614 779 q 622 661 622 677 q 598 506 622 591 q 529 346 575 422 q 429 236 483 269 q 301 206 374 206 q 234 214 267 206 q 225 215 229 215 q 205 204 215 215 q 188 152 195 194 q 148 -47 154 -21 q 81 -87 135 -87 m 303 329 q 366 375 332 329 q 428 490 400 420 q 463 619 455 560 q 465 648 465 635 q 449 696 465 684 q 439 699 444 699 q 415 689 429 699 q 384 659 401 680 q 304 498 341 604 q 277 372 277 421 q 296 330 277 336 l 303 329 z "},"Q":{"ha":561,"x_min":-7,"x_max":583,"o":"m 350 238 q 359 258 354 248 q 421 461 400 356 q 432 636 442 566 q 372 700 422 706 q 291 624 331 690 q 219 465 251 558 q 172 283 188 372 q 186 138 157 177 q 260 125 214 101 q 250 150 254 139 q 264 215 239 188 q 321 245 288 243 q 350 238 338 247 m 336 -1 q 332 -3 334 -2 q 249 -36 298 -25 q 140 -29 200 -47 q 38 63 77 -8 q 7 152 16 104 q 23 374 -7 237 q 118 638 54 511 q 267 821 182 765 q 298 836 281 829 q 334 838 315 842 q 366 824 350 834 q 399 812 385 814 q 499 783 467 808 q 555 699 532 757 q 567 500 583 625 q 502 248 551 376 q 431 106 471 169 q 445 87 437 96 q 488 24 467 56 q 487 -34 505 -5 q 436 -73 468 -62 q 382 -61 404 -84 q 336 -1 359 -35 z "},"R":{"ha":573,"x_min":-5,"x_max":593,"o":"m 412 -119 q 339 -68 382 -117 q 256 52 296 -18 q 191 184 215 121 q 182 190 189 190 q 174 184 176 189 q 153 65 170 166 l 142 -9 q 92 -58 131 -54 l 81 -58 q 22 -39 50 -58 q -5 9 -5 -19 q -3 22 -5 15 q 101 403 40 170 q 191 760 161 636 q 262 804 204 804 q 321 784 298 804 q 337 775 332 775 q 360 789 347 775 q 470 839 412 839 q 539 815 505 839 q 587 732 573 792 q 593 657 593 696 q 584 557 593 619 q 537 417 575 495 q 438 286 500 338 q 293 224 377 233 q 286 218 286 224 q 294 203 286 211 q 392 113 338 152 q 489 69 447 74 q 515 61 505 68 q 526 23 526 54 q 516 -35 526 -3 q 482 -92 507 -67 q 412 -119 456 -117 m 285 336 q 351 380 315 336 q 417 493 388 424 q 452 623 447 563 l 452 636 q 420 699 452 684 q 412 701 416 701 q 353 655 385 701 q 292 537 320 609 q 257 406 264 465 q 256 382 256 393 q 285 336 256 336 z "},"S":{"ha":444,"x_min":3,"x_max":500,"o":"m 131 -132 q 101 -132 130 -132 q 37 -99 73 -131 q 6 -42 14 -77 q 3 -18 3 -30 q 15 32 3 4 q 68 77 27 59 q 208 161 170 119 q 241 236 241 198 q 238 264 241 241 q 207 333 235 288 q 157 429 179 378 q 129 563 129 493 q 132 604 129 583 q 220 775 150 705 q 365 864 290 846 q 405 868 387 868 q 462 851 437 868 q 496 800 488 834 q 500 764 500 781 q 473 694 500 709 q 360 608 421 668 q 276 483 299 548 q 271 450 271 466 q 283 402 271 429 q 319 340 294 375 q 363 262 343 304 q 383 165 383 220 q 348 35 383 109 q 244 -93 303 -54 q 131 -132 186 -132 z "},"T":{"ha":477,"x_min":106,"x_max":621,"o":"m 212 -108 q 183 -101 201 -108 q 153 -77 165 -95 q 136 -9 136 -52 l 137 7 q 190 302 144 113 q 293 629 237 490 q 299 654 299 644 q 289 674 299 669 q 253 682 275 682 q 164 669 223 682 l 159 669 q 119 693 136 669 q 106 739 106 714 q 110 767 106 746 q 156 802 113 788 q 541 838 259 827 l 544 838 q 621 777 621 838 q 604 717 621 744 q 585 701 593 701 q 580 702 582 701 q 551 705 574 705 q 507 701 529 705 q 477 692 484 697 q 475 690 477 690 q 463 673 466 680 q 374 425 426 605 q 303 135 330 274 q 288 4 288 52 q 295 -47 288 -29 l 296 -51 q 289 -66 296 -57 q 271 -85 283 -75 q 212 -108 245 -108 z "},"U":{"ha":541,"x_min":-3,"x_max":646,"o":"m 152 -78 q 22 -12 55 -68 q -3 89 -3 33 q -1 121 -3 105 q 44 328 9 208 q 118 552 79 448 q 183 700 158 657 q 243 736 208 736 q 269 734 248 736 q 315 701 290 732 q 332 661 332 682 q 326 634 332 648 q 228 382 279 532 q 149 115 178 232 q 144 79 144 93 q 146 65 144 71 q 159 51 150 51 l 165 51 q 180 61 170 51 q 303 293 229 119 q 442 633 378 467 q 507 795 484 739 q 562 836 528 836 q 583 834 564 836 q 629 806 602 833 q 646 764 646 787 q 643 743 646 754 q 617 684 633 718 q 551 526 587 616 q 492 341 515 436 q 451 56 451 168 q 456 -17 451 15 l 456 -20 q 454 -33 456 -25 q 409 -63 448 -55 q 385 -66 397 -66 q 352 -61 371 -66 q 321 -32 332 -56 q 317 10 317 -16 l 317 37 q 311 84 317 84 q 303 75 308 84 q 169 -77 233 -69 l 152 -78 z "},"V":{"ha":470,"x_min":9,"x_max":565,"o":"m 151 -60 l 148 -60 q 75 -30 114 -55 q 24 29 35 -5 q 9 191 9 97 q 13 304 9 220 q 35 510 16 387 q 71 684 53 632 q 155 739 92 739 q 196 731 170 739 q 239 701 221 724 q 250 672 250 688 q 243 645 250 659 q 207 524 231 621 q 162 318 182 427 q 146 169 146 227 q 161 114 146 114 q 287 392 188 114 q 375 657 338 536 q 410 795 410 774 q 410 799 410 797 q 425 827 410 812 q 484 844 441 844 q 512 842 492 844 q 552 815 532 840 q 565 770 565 799 q 560 729 565 751 q 520 599 551 690 q 444 394 490 507 q 346 175 398 280 q 242 3 294 70 q 151 -60 193 -60 z "},"W":{"ha":701,"x_min":-5,"x_max":774,"o":"m 423 -46 q 353 -21 377 -46 q 317 40 328 3 q 302 162 302 91 l 302 173 q 295 208 302 208 q 279 185 290 208 q 245 118 268 159 q 134 12 186 12 l 132 12 q 62 35 98 15 q 9 94 26 55 q -5 235 -5 139 q -2 335 -5 257 q 19 543 0 413 q 64 724 38 673 q 113 756 83 754 l 122 757 q 174 744 147 757 q 218 713 201 731 q 230 692 230 701 q 228 686 230 688 q 197 595 216 669 q 162 430 179 522 q 138 269 145 339 q 134 213 134 233 q 140 185 134 185 q 332 628 172 185 q 375 661 342 654 q 400 664 388 664 q 464 615 464 664 q 448 450 458 547 q 425 184 425 254 q 426 157 425 169 q 441 111 431 111 q 468 157 451 111 q 507 283 481 194 q 595 666 578 522 q 600 718 600 696 q 587 774 600 758 q 582 787 582 780 q 606 816 582 800 q 675 839 630 832 q 695 840 685 840 q 750 824 726 840 q 774 766 774 808 q 728 529 774 734 q 505 -33 608 3 q 423 -46 467 -46 z "},"X":{"ha":470,"x_min":-165,"x_max":558,"o":"m -56 -109 q -87 -106 -62 -109 q -144 -71 -112 -102 q -165 -26 -165 -52 q -159 3 -165 -12 l -144 33 q -46 197 -111 100 q 94 401 18 294 q 53 597 70 502 q 36 734 36 688 l 36 737 q 81 812 41 793 q 134 826 107 826 q 172 820 146 826 q 201 779 198 813 q 221 574 201 694 q 278 647 252 612 q 374 767 333 719 q 444 828 415 816 q 482 836 465 836 q 518 825 499 836 q 549 785 538 814 q 558 738 558 761 q 557 718 558 734 q 541 695 556 703 q 432 585 508 677 q 267 366 356 492 q 348 139 304 229 q 432 37 393 48 q 439 25 439 35 q 436 9 439 21 q 416 -25 433 -3 q 376 -60 400 -47 q 339 -70 359 -70 q 323 -68 332 -70 q 231 24 273 -54 q 153 201 189 102 q 47 25 91 104 q -8 -83 3 -55 q -56 -109 -22 -109 z "},"Y":{"ha":476,"x_min":2,"x_max":581,"o":"m 271 -140 q 212 -121 235 -140 q 183 -59 183 -97 q 199 14 183 -31 q 229 90 210 44 l 289 230 q 315 300 310 281 l 316 304 q 313 307 315 307 q 312 308 312 307 q 249 205 280 243 q 185 171 222 171 l 174 172 q 84 211 127 180 q 18 290 41 243 q 2 357 2 321 q 6 393 2 374 q 85 604 30 483 q 191 801 140 726 q 233 823 209 823 q 260 819 240 823 q 302 787 281 814 q 315 752 315 771 q 311 730 315 741 q 229 563 281 675 q 151 377 178 451 q 143 328 143 347 q 168 293 143 293 q 231 343 195 293 q 315 483 268 401 q 400 639 361 565 q 452 746 439 713 q 504 777 467 777 q 560 757 535 777 q 581 716 581 741 q 481 401 581 695 q 401 164 438 277 q 340 -42 355 22 q 331 -104 331 -83 l 332 -116 l 332 -118 q 329 -125 332 -121 q 319 -132 325 -129 q 310 -135 314 -134 q 271 -140 289 -140 z "},"Z":{"ha":463,"x_min":-9,"x_max":525,"o":"m 342 -47 q 174 -45 258 -45 l 61 -46 q 3 -13 20 -45 q -9 44 -9 12 q -6 80 -9 54 q 17 140 -3 106 l 142 339 q 112 325 124 332 l 105 324 q 71 346 83 324 q 60 395 60 368 q 67 430 60 421 q 237 489 123 471 q 312 614 290 574 q 328 661 328 644 q 313 684 328 675 q 276 690 302 690 q 239 688 260 690 l 220 687 q 149 718 168 687 q 136 760 136 738 q 210 841 136 832 q 276 842 241 842 q 408 840 327 842 q 513 794 486 838 q 525 750 525 776 q 504 667 525 715 q 411 499 473 601 q 433 496 423 498 l 446 494 q 494 431 494 486 q 492 408 494 425 q 479 376 490 392 q 461 365 471 365 q 452 367 456 365 q 337 382 422 382 q 274 286 304 330 q 199 167 216 197 q 180 113 180 130 q 181 101 180 111 q 203 92 182 92 l 208 92 q 254 97 227 92 q 320 104 296 104 q 405 50 390 104 q 408 24 408 37 q 342 -47 408 -45 z "},"[":{"ha":401,"x_min":5,"x_max":486,"o":"m 214 -1 l 113 -1 q 14 44 31 1 q 5 95 5 67 q 13 150 5 120 q 95 451 37 265 q 205 761 152 636 q 265 855 231 827 q 381 884 299 884 l 451 884 q 477 869 469 884 q 486 834 486 854 q 476 799 486 814 q 447 784 467 784 q 417 785 431 784 q 395 786 406 786 q 368 783 383 786 q 347 760 353 780 q 254 458 295 595 q 161 131 161 149 q 167 115 161 119 q 210 107 177 107 l 235 107 q 263 90 254 106 q 271 60 271 77 q 269 44 271 57 q 254 16 268 32 q 214 -1 241 -1 z "},"\\":{"ha":386,"x_min":540,"x_max":944,"o":"m 901 -5 q 860 22 872 -5 l 543 825 q 540 840 540 833 q 567 880 540 869 q 583 883 575 883 q 624 856 612 883 l 941 54 q 944 38 944 45 q 917 -2 944 9 q 901 -5 909 -5 z "},"]":{"ha":514,"x_min":-10,"x_max":470,"o":"m 94 -1 l 24 0 q -2 14 7 0 q -10 47 -10 28 q -1 85 -10 69 q 28 100 9 100 q 58 99 44 100 q 78 98 68 98 q 107 101 92 98 q 129 125 122 104 q 222 426 180 289 q 314 753 314 736 q 309 769 314 764 q 267 777 298 777 q 241 777 249 777 q 212 794 221 778 q 205 824 205 808 q 206 840 205 827 q 221 868 208 852 q 261 884 235 884 l 362 884 q 460 840 444 883 q 470 788 470 817 q 463 734 470 763 q 380 433 437 618 q 270 123 323 248 q 210 28 244 57 q 94 -1 176 0 z "},"^":{"ha":250,"x_min":30,"x_max":199,"o":"m 153 562 q 137 566 144 562 q 128 593 128 572 q 133 647 128 615 l 136 676 l 126 654 q 97 602 108 617 q 72 587 86 587 q 35 609 50 587 q 30 624 30 617 q 36 637 30 631 q 49 652 41 644 q 91 700 71 675 q 122 743 112 724 q 158 768 135 768 q 179 761 170 768 q 189 743 189 754 l 188 739 q 186 710 186 730 q 190 633 186 665 q 199 591 193 601 q 189 574 199 581 q 153 562 172 562 z "},"_":{"ha":593,"x_min":26,"x_max":547,"o":"m 486 -120 q 223 -119 314 -119 q 78 -120 138 -119 q 33 -96 43 -119 q 26 -69 26 -83 q 64 -15 26 -25 q 184 -7 94 -10 q 370 -4 275 -4 q 507 -9 464 -4 q 544 -41 535 -14 q 547 -62 547 -51 q 486 -120 547 -117 z "},"`":{"ha":266,"x_min":38,"x_max":228,"o":"m 209 572 q 201 574 205 572 l 145 599 q 62 636 90 623 q 38 682 38 651 q 39 702 38 684 q 64 736 41 720 q 79 741 71 741 q 124 716 98 741 l 222 610 q 228 595 228 603 q 218 576 228 582 q 209 572 214 572 z "},"a":{"ha":412,"x_min":-14,"x_max":392,"o":"m 302 33 q 270 45 286 33 q 248 102 253 57 q 239 130 247 130 q 224 117 233 130 l 201 91 q 111 43 155 43 q 68 51 100 43 q 6 119 36 59 q -14 208 -14 159 q -9 259 -14 233 q 41 390 5 326 q 130 495 76 454 q 254 538 183 537 q 369 481 334 534 q 392 398 392 446 q 381 326 392 370 q 356 200 368 272 q 351 145 351 170 q 360 89 351 112 q 362 79 362 84 q 350 54 362 68 q 315 35 338 41 q 302 33 308 33 m 122 146 q 222 271 154 146 q 279 378 264 345 q 288 420 288 404 q 266 446 288 444 q 184 388 225 444 q 119 262 142 331 q 103 186 103 218 q 122 146 103 146 z "},"b":{"ha":456,"x_min":-3,"x_max":469,"o":"m 178 -3 l 167 -3 q 25 81 62 8 q -3 215 -3 138 q 3 304 -3 237 q 48 487 10 370 q 132 700 87 603 q 208 848 176 798 q 257 876 228 876 q 286 871 264 876 q 331 836 309 867 q 342 806 342 821 q 330 772 342 789 q 281 694 310 747 q 227 586 252 642 q 195 498 202 530 l 194 496 q 191 480 191 484 q 193 474 191 474 q 198 478 194 474 q 339 566 275 566 q 358 564 349 566 q 446 493 413 551 q 469 390 469 450 q 418 189 469 302 q 317 50 380 106 q 178 -3 258 -3 m 197 111 q 256 148 224 111 q 314 254 288 184 q 345 402 345 339 q 322 463 345 449 q 313 465 317 465 q 269 439 294 465 q 215 366 243 414 q 169 266 187 318 q 151 170 151 213 q 174 117 151 133 q 197 111 186 111 z "},"c":{"ha":382,"x_min":-4,"x_max":395,"o":"m 176 -2 l 155 -2 q 103 13 136 -2 q 2 147 20 55 q -4 216 -4 180 q 22 360 -4 277 q 113 513 47 443 q 258 581 176 581 l 262 581 q 369 530 332 574 q 395 463 395 499 q 389 427 395 446 q 336 390 375 390 q 298 401 317 390 q 277 439 278 412 l 277 444 q 272 470 277 464 q 260 475 267 475 l 254 474 q 182 391 214 459 q 135 243 150 322 q 129 191 129 214 q 168 125 129 136 l 174 125 q 215 144 191 125 q 256 191 238 164 q 291 212 273 212 q 302 211 292 212 q 325 192 313 210 q 334 162 334 179 q 332 146 334 155 q 300 75 323 110 q 176 -2 248 -2 z "},"d":{"ha":458,"x_min":-12,"x_max":579,"o":"m 304 -123 q 258 -112 281 -123 q 224 -48 224 -94 l 224 -46 q 238 22 228 -12 q 252 83 247 52 l 252 92 q 248 102 252 102 q 236 92 244 102 q 218 68 227 81 q 128 12 177 12 q 50 43 86 12 q -12 194 -12 95 q 16 331 -12 250 q 115 488 43 412 q 277 572 186 564 q 306 570 292 572 q 326 568 317 568 q 344 570 333 568 q 363 595 355 572 q 382 669 372 627 q 437 843 404 760 q 514 891 463 891 q 563 873 543 891 q 579 834 579 859 q 573 801 579 819 q 479 518 536 707 q 381 142 422 328 q 358 -39 358 34 q 361 -79 358 -62 l 361 -81 q 328 -120 361 -111 q 304 -123 316 -123 m 134 125 q 198 178 162 125 q 298 376 252 257 q 315 448 315 422 q 311 469 315 460 q 287 483 302 483 q 254 473 277 483 q 197 416 231 463 q 137 296 161 362 q 109 172 109 216 q 134 125 109 125 z "},"e":{"ha":380,"x_min":-3,"x_max":366,"o":"m 178 8 q 52 62 103 8 q -3 217 -3 124 q -1 277 -3 223 q 50 425 1 331 q 173 561 98 518 q 239 575 203 575 q 262 574 241 575 q 300 566 283 574 q 366 443 366 526 q 324 311 366 378 q 259 241 297 269 q 180 214 222 214 l 161 214 q 143 213 153 214 q 127 183 127 210 q 144 151 127 161 q 176 143 157 143 q 211 148 187 143 q 269 182 235 153 q 286 188 277 188 q 307 180 294 188 q 328 151 320 172 q 332 131 332 140 q 326 106 332 118 q 251 26 298 53 q 178 8 219 8 m 169 301 q 225 349 191 301 q 257 413 245 379 q 267 455 267 440 q 250 475 267 475 q 204 439 232 475 q 165 366 180 405 q 155 319 155 336 q 169 301 155 301 z "},"f":{"ha":383,"x_min":-43,"x_max":457,"o":"m 40 -114 q 13 -110 33 -114 q -28 -72 -7 -105 q -43 -18 -43 -49 q 3 174 -43 12 q 71 428 35 286 q 73 439 73 435 q 68 445 72 445 q 52 441 63 445 q 32 432 41 437 q 15 426 23 426 q -7 443 4 426 q -18 487 -18 459 q -5 521 -18 512 q 69 547 30 538 q 101 560 95 553 q 111 586 106 567 q 140 688 128 650 q 169 769 153 726 q 240 859 193 827 q 348 892 292 892 q 425 868 393 892 q 457 790 457 843 l 457 784 q 437 730 454 744 q 398 719 424 719 l 378 720 q 300 686 328 720 q 256 610 273 652 q 254 602 254 605 q 258 595 254 596 q 264 595 261 595 q 280 597 271 595 q 297 600 289 599 q 334 606 304 601 q 357 608 346 608 l 365 608 q 402 597 389 608 q 417 551 417 583 q 411 519 417 536 q 395 493 406 502 q 387 489 391 489 q 375 496 381 489 q 349 503 369 503 q 304 500 329 503 l 252 492 q 203 433 214 484 l 191 381 q 141 163 162 262 q 119 18 119 65 q 90 -90 117 -60 q 40 -114 67 -114 z "},"g":{"ha":430,"x_min":1,"x_max":414,"o":"m 88 -228 q 37 -207 58 -228 q 16 -162 16 -186 q 17 -148 16 -161 q 41 -122 18 -135 q 160 0 87 -96 q 271 193 233 96 q 273 207 273 202 q 270 212 273 212 q 264 208 266 212 q 233 155 252 178 l 224 142 q 140 98 193 98 q 76 115 110 98 q 22 168 42 132 q 1 264 1 210 q 11 348 1 290 q 67 478 20 406 q 181 569 115 551 q 231 574 208 574 q 302 558 264 574 q 367 503 339 542 q 403 421 394 463 q 414 333 412 395 l 414 325 q 389 168 414 267 q 334 27 369 102 q 253 -113 298 -49 q 157 -208 207 -177 q 88 -228 118 -228 m 148 195 q 182 217 166 195 q 251 366 221 276 l 260 396 q 268 435 268 419 q 262 458 268 449 q 234 474 251 474 l 229 473 q 159 404 190 465 q 119 279 128 343 q 117 251 117 264 q 138 197 117 211 q 148 195 142 195 z "},"h":{"ha":490,"x_min":-20,"x_max":448,"o":"m 53 -35 l 49 -35 q 2 -18 24 -35 q -20 19 -20 -2 l -20 20 q 33 297 -10 115 q 120 640 76 479 q 175 837 163 802 q 233 877 197 877 q 291 855 267 877 q 311 814 311 838 q 309 802 311 808 l 291 739 q 228 522 270 670 q 203 422 203 429 q 210 408 203 408 q 216 410 210 408 q 236 430 222 412 q 356 515 309 515 q 431 463 401 515 q 444 406 444 439 q 439 363 444 387 q 419 216 419 281 q 442 118 419 152 q 448 100 448 109 q 436 73 448 88 q 395 47 424 57 q 371 43 382 43 q 332 55 354 43 q 298 116 309 66 q 293 186 293 149 q 298 265 293 215 q 311 351 304 315 q 314 374 314 369 q 308 386 314 386 l 303 385 q 284 368 298 385 q 186 209 229 300 q 111 33 144 118 l 98 2 q 53 -35 81 -33 z "},"i":{"ha":209,"x_min":-7,"x_max":304,"o":"m 58 9 q 18 20 40 9 q -7 66 -3 32 q 19 255 -7 138 q 73 436 45 372 q 121 464 86 464 q 180 446 153 464 q 202 409 202 431 l 201 399 q 144 170 169 273 q 113 45 126 92 q 58 9 102 9 m 187 519 q 152 527 168 519 q 135 548 137 534 q 134 570 134 558 q 141 665 134 606 q 168 759 149 724 q 214 776 182 776 q 239 775 218 776 q 287 751 260 774 q 304 715 304 736 q 297 685 304 701 q 208 526 246 581 q 187 519 202 519 z "},"j":{"ha":223,"x_min":-136,"x_max":309,"o":"m -44 -269 q -96 -252 -68 -269 q -133 -199 -123 -235 q -136 -182 -136 -191 q -111 -133 -136 -156 q -22 23 -60 -83 q 39 244 16 129 q 71 434 63 359 q 75 476 75 461 l 74 489 q 96 524 74 508 q 159 542 123 542 q 201 527 182 542 q 220 477 220 513 l 219 465 q 164 168 208 357 q 52 -190 120 -22 q -16 -265 24 -254 q -44 -269 -31 -269 m 198 609 l 195 609 q 162 615 178 609 q 143 635 146 621 q 138 707 138 665 q 141 776 138 728 q 161 863 143 824 q 220 886 177 886 q 289 864 259 886 q 309 823 309 849 q 304 794 309 810 q 265 703 290 756 q 222 618 241 650 q 198 609 216 610 z "},"k":{"ha":418,"x_min":-16,"x_max":420,"o":"m 49 6 q -2 25 17 6 q -16 57 -16 39 l -16 60 q 32 325 -7 155 q 112 647 71 495 q 170 837 153 798 q 228 877 192 877 q 286 855 261 877 q 306 814 306 838 q 304 802 306 808 l 286 739 q 223 522 265 670 l 210 479 q 184 389 197 437 l 175 355 q 172 337 172 342 q 174 333 172 333 l 175 333 q 225 377 194 340 q 285 458 257 415 q 321 525 313 501 q 353 543 328 543 q 395 528 374 543 q 419 484 415 514 l 420 476 q 393 407 420 448 q 298 298 355 350 q 196 237 241 246 q 241 235 220 235 q 350 258 307 235 q 371 263 361 263 q 393 253 385 263 q 404 220 404 241 q 400 191 404 212 q 363 138 397 170 q 289 118 336 118 q 232 123 275 118 q 139 160 189 128 q 118 95 130 127 q 104 50 109 70 q 77 13 95 21 q 49 6 63 6 z "},"l":{"ha":235,"x_min":-10,"x_max":347,"o":"m 115 -109 q 26 -67 55 -107 q -8 28 -2 -27 q -10 70 -10 50 q -5 127 -10 100 q 67 440 20 269 q 162 741 115 611 q 239 891 210 871 q 262 896 250 896 q 297 888 275 896 q 337 854 319 880 q 347 823 347 840 q 341 794 347 809 q 297 679 330 767 q 158 249 208 437 q 123 49 123 118 q 154 -10 123 -8 q 180 -35 174 -12 q 182 -50 182 -43 q 165 -90 182 -73 q 115 -109 148 -107 z "},"m":{"ha":728,"x_min":-12,"x_max":696,"o":"m 325 3 q 279 17 301 3 q 256 61 256 31 l 256 68 q 299 254 271 163 q 335 399 321 328 q 336 414 336 408 q 324 433 336 432 q 294 408 312 433 q 197 231 250 342 q 119 31 144 119 q 71 5 110 5 q 42 8 60 5 q 6 26 24 12 q -12 60 -12 40 q 14 248 -12 134 q 84 525 38 352 q 144 568 98 568 q 190 554 170 568 q 211 515 211 539 q 208 498 211 507 q 204 483 205 489 q 199 467 202 477 l 198 464 q 195 444 195 450 q 198 439 195 439 q 222 463 205 439 q 363 572 300 572 q 442 529 412 572 q 460 460 460 502 q 454 409 460 437 l 448 380 q 512 477 483 439 q 600 522 551 521 q 677 480 648 522 q 696 412 696 454 q 681 326 696 376 q 652 199 665 269 q 648 151 648 172 q 661 93 648 115 q 667 73 667 85 q 639 34 667 46 q 603 26 621 26 q 560 36 587 26 q 526 93 533 45 l 526 111 q 559 297 526 179 q 575 368 575 353 q 568 382 575 382 q 494 295 549 382 q 425 168 458 239 q 373 31 392 97 q 325 3 363 3 z "},"n":{"ha":441,"x_min":-3,"x_max":402,"o":"m 68 6 q 44 9 59 6 q 13 29 28 13 q -3 72 -3 45 q 25 300 -3 149 q 81 534 53 451 q 124 561 93 561 q 182 543 156 561 q 204 509 204 529 l 203 502 q 165 353 182 429 l 163 339 q 163 338 163 338 q 179 365 165 338 q 231 453 211 432 q 294 477 258 477 q 316 477 296 477 q 363 452 336 477 q 389 393 389 431 l 388 383 l 382 338 q 370 200 370 256 q 395 113 370 141 q 402 98 402 106 q 393 81 402 92 q 359 63 385 71 q 334 59 347 59 q 302 64 321 59 q 268 98 283 69 q 254 172 254 129 q 269 300 254 222 l 273 329 q 275 353 275 345 q 273 362 275 362 q 261 351 269 362 q 113 32 189 261 q 68 6 104 6 z "},"o":{"ha":399,"x_min":-3,"x_max":384,"o":"m 169 8 l 161 8 q 50 61 98 14 q -3 178 1 109 l -3 182 q 22 329 -3 247 q 97 478 47 411 q 218 563 147 545 q 236 566 227 566 q 279 548 260 566 q 307 529 294 534 q 347 503 321 526 q 384 398 383 469 l 384 389 q 363 246 384 322 q 310 114 342 170 l 299 96 q 169 8 243 8 m 157 139 q 189 153 167 139 q 245 266 212 168 q 265 374 265 334 q 260 406 265 394 q 237 425 251 425 q 197 402 224 425 q 138 286 170 380 q 124 201 124 235 q 130 165 124 180 q 157 139 139 139 z "},"p":{"ha":476,"x_min":-98,"x_max":479,"o":"m -18 -296 q -73 -278 -47 -296 q -98 -229 -98 -260 q -97 -214 -98 -222 l -30 54 q 92 515 65 433 q 127 550 100 541 q 157 555 142 555 q 189 551 172 555 q 217 537 212 543 q 224 534 220 534 q 239 547 227 534 q 243 550 241 548 q 334 591 287 591 q 362 590 336 591 q 425 554 387 589 q 475 461 463 519 q 479 404 479 434 q 465 294 479 359 q 409 158 450 229 q 310 52 368 87 q 233 29 273 29 q 182 37 208 29 q 165 41 174 41 q 129 29 150 41 q 92 -40 108 18 q 68 -158 83 -69 q 57 -222 62 -199 l 51 -248 q -18 -296 35 -296 m 207 140 q 281 192 247 144 q 333 304 315 240 q 347 394 347 353 q 344 437 347 406 q 304 475 340 468 l 302 475 q 241 427 271 475 q 192 313 211 378 q 174 197 174 247 q 174 170 174 196 q 207 140 175 143 z "},"q":{"ha":478,"x_min":1,"x_max":476,"o":"m 256 -346 q 189 -312 219 -346 q 171 -269 171 -291 l 171 -264 q 208 -114 181 -203 q 251 53 232 -33 q 259 108 259 98 q 258 111 259 111 q 247 99 256 111 q 224 69 238 86 q 149 31 187 31 q 117 36 142 31 q 56 79 91 41 q 7 166 20 118 q 1 231 1 198 q 47 406 1 308 q 196 558 94 503 q 264 575 230 575 q 336 551 297 574 q 359 544 347 544 l 362 544 q 388 546 376 546 q 446 531 420 546 q 476 479 476 513 q 474 460 476 471 q 330 -248 359 -8 q 256 -346 317 -346 m 166 158 q 229 204 194 158 q 293 318 264 250 q 323 439 323 391 q 293 479 323 479 l 283 478 q 213 423 246 468 q 157 321 179 378 q 134 212 134 260 q 159 159 134 170 q 166 158 162 158 z "},"r":{"ha":361,"x_min":-24,"x_max":408,"o":"m 65 3 q -1 21 27 3 q -24 63 -24 34 q -1 184 -24 84 q 35 339 15 260 q 71 461 55 417 q 112 503 85 498 q 131 505 121 505 q 168 496 148 505 q 193 474 188 488 q 196 454 196 465 q 191 410 196 436 q 190 395 190 400 l 190 393 q 221 448 201 413 q 261 514 241 484 q 289 553 280 545 q 318 570 301 564 q 346 577 334 577 q 403 538 391 572 q 408 505 408 522 q 399 460 408 487 q 369 424 391 433 l 361 425 l 353 423 l 349 422 q 270 373 311 418 q 195 262 230 327 q 137 136 159 197 q 111 39 114 75 q 98 13 111 24 q 65 3 88 3 z "},"s":{"ha":297,"x_min":-41,"x_max":299,"o":"m 52 -39 l 45 -39 q -14 -18 11 -39 q -41 39 -41 6 q -11 94 -41 68 l 16 113 q 80 163 51 136 q 118 226 110 191 q 120 244 120 235 q 87 331 120 280 l 72 357 q 58 415 58 385 q 81 494 58 446 q 157 581 104 542 q 228 608 195 608 q 250 605 239 608 q 298 542 290 585 q 299 528 299 534 q 268 476 299 495 q 206 433 234 460 q 170 374 178 407 q 169 361 169 367 q 191 304 169 334 q 227 205 227 258 q 225 174 227 203 q 197 93 224 145 q 132 3 170 41 q 52 -39 90 -37 z "},"t":{"ha":201,"x_min":-94,"x_max":524,"o":"m 76 -85 q 52 -82 64 -85 q -6 -23 7 -68 q -15 49 -15 11 q -12 95 -15 62 q -2 164 -9 127 l -2 167 q 78 511 27 332 q 87 547 83 532 q 92 574 92 562 q 90 588 92 582 q 65 603 87 603 q 5 593 49 603 q -50 578 -30 585 l -54 578 q -81 596 -69 578 q -94 637 -94 614 q -93 653 -94 640 q -64 678 -92 667 q 96 712 -11 695 q 144 751 125 718 q 174 821 162 785 l 184 846 q 237 882 202 882 q 283 865 263 882 q 300 833 300 851 q 298 819 300 827 l 297 817 q 281 757 281 780 q 316 736 281 736 q 372 740 333 736 q 467 745 427 745 l 484 745 q 519 722 511 742 q 524 697 524 711 q 507 637 524 665 q 491 621 497 621 q 488 623 490 621 q 422 644 469 642 l 395 645 q 259 616 294 645 q 224 560 237 597 q 176 388 204 507 q 132 148 149 269 q 123 35 123 83 q 130 -37 123 -8 q 132 -47 132 -43 q 110 -78 132 -68 q 76 -85 94 -85 z "},"u":{"ha":405,"x_min":1,"x_max":412,"o":"m 273 -13 q 243 -3 258 -13 q 222 59 227 12 l 221 81 q 217 93 220 93 q 206 81 214 93 q 123 28 170 28 l 122 28 q 32 74 61 31 q 1 167 1 119 q 21 307 1 227 q 66 453 41 386 q 104 541 92 521 q 151 570 125 570 q 169 568 153 570 q 204 547 185 567 q 218 517 218 532 q 215 505 218 511 q 176 398 202 477 q 124 181 124 237 q 142 145 124 145 q 193 205 163 145 q 259 371 229 282 q 299 489 290 460 q 343 519 311 519 q 393 505 370 519 q 412 474 412 492 q 410 462 412 466 q 374 323 402 441 q 326 58 326 126 l 326 43 q 298 -7 326 5 q 273 -13 286 -13 z "},"v":{"ha":391,"x_min":21,"x_max":425,"o":"m 119 -9 q 102 -6 111 -9 q 44 43 70 4 q 21 132 21 79 l 21 143 q 44 344 28 236 q 70 510 60 452 q 128 555 81 555 q 171 543 151 555 q 192 509 192 530 q 191 497 192 503 q 170 406 182 468 q 150 280 159 343 q 138 181 138 197 q 140 174 138 174 q 145 177 141 174 q 170 225 149 180 l 231 355 q 313 529 282 469 q 350 553 328 553 q 374 549 356 553 q 413 519 393 545 q 425 489 425 505 q 419 468 425 479 q 276 215 397 433 q 179 41 218 109 q 119 -9 152 -9 z "},"w":{"ha":564,"x_min":24,"x_max":585,"o":"m 391 -7 l 384 -7 q 321 15 351 -7 q 286 61 292 38 q 277 116 283 82 q 267 181 271 149 q 264 220 264 205 l 264 229 q 245 173 254 205 q 209 73 231 120 q 143 22 186 26 q 62 58 97 22 q 24 139 26 95 l 24 156 q 30 268 24 199 q 47 406 36 336 q 69 509 58 476 q 106 532 77 526 q 123 533 115 533 q 159 524 142 533 q 176 493 176 515 q 173 473 176 484 q 144 298 164 441 q 130 168 130 196 q 138 140 130 140 l 144 142 q 165 182 151 143 q 222 350 195 266 q 258 463 249 433 q 291 488 265 481 q 313 491 302 491 q 346 485 327 491 q 365 450 364 478 q 361 271 361 338 q 372 164 361 164 q 430 390 384 164 q 460 533 444 457 q 509 567 469 567 q 537 563 519 567 q 570 548 554 559 q 585 526 585 536 q 553 395 585 522 q 453 54 494 165 q 391 -7 429 -5 z "},"x":{"ha":410,"x_min":-56,"x_max":426,"o":"m 17 -46 q -11 -37 8 -46 q -46 0 -30 -28 q -56 32 -56 18 q -53 46 -56 40 q 51 188 7 134 q 102 256 77 222 q 113 284 113 268 q 93 338 113 307 q 50 429 77 361 q 38 455 43 446 q 25 506 25 484 q 68 564 25 549 q 106 570 87 570 q 129 568 113 570 q 152 552 145 566 q 170 485 163 522 q 195 405 179 438 q 205 394 199 396 q 216 399 211 394 q 313 541 277 480 q 359 573 332 573 q 380 570 363 573 q 416 541 397 568 q 426 511 426 526 q 419 485 426 498 q 368 411 408 460 q 287 293 307 333 q 280 268 280 281 q 284 243 280 258 q 320 165 295 203 q 368 102 346 127 q 380 69 380 85 q 367 35 380 56 q 319 7 354 14 q 309 6 315 6 q 258 39 281 6 q 239 74 249 54 q 216 120 223 101 q 195 156 206 145 q 188 159 192 159 q 165 144 178 159 q 55 -26 88 16 q 17 -46 36 -46 z "},"y":{"ha":391,"x_min":-56,"x_max":400,"o":"m 234 177 q 138 71 193 89 q 49 89 101 60 q -16 185 -3 118 q 7 353 -26 233 q 60 522 40 474 q 106 569 74 560 q 175 553 139 577 q 197 486 212 528 q 157 355 182 440 q 127 217 132 270 q 145 176 123 164 q 170 206 155 180 q 210 296 187 237 q 279 473 253 405 q 333 506 292 506 q 387 483 374 506 q 399 437 400 459 q 395 389 398 416 q 382 304 391 353 q 361 207 374 255 q 343 144 353 178 q 279 -24 317 53 q 245 -81 263 -54 q 137 -212 184 -177 q 60 -254 90 -246 q 1 -252 26 -262 q -52 -183 -47 -231 q -18 -124 -56 -135 q 124 -11 52 -98 q 234 177 197 77 z "},"z":{"ha":326,"x_min":-33,"x_max":342,"o":"m 202 -1 q 104 0 139 -1 q 39 1 72 1 q -5 23 14 2 q -30 71 -23 44 q -33 95 -33 84 q 45 239 -33 127 l 30 239 q 1 279 1 239 q 20 323 1 315 q 116 337 60 334 q 189 431 161 397 q 197 444 197 439 q 196 449 197 445 q 176 452 195 452 q 138 449 161 452 q 96 446 115 446 q 47 475 54 448 q 44 494 44 484 q 58 535 44 512 q 105 559 73 558 l 128 559 q 212 563 170 559 q 283 566 247 566 q 324 543 309 566 q 342 480 342 515 q 333 442 342 458 q 252 329 306 399 q 267 326 260 328 q 290 285 290 316 q 288 267 290 279 q 280 246 286 256 q 269 236 275 236 l 265 237 q 184 243 253 243 q 102 118 102 136 q 126 106 102 106 q 183 108 148 106 q 236 111 219 109 l 237 111 q 255 97 249 111 q 262 64 262 82 q 261 47 262 60 q 246 17 260 35 q 202 -1 232 -1 z "},"{":{"ha":351,"x_min":50,"x_max":419,"o":"m 184 -1 q 79 38 112 -1 q 54 115 54 69 q 58 157 54 134 q 87 262 71 208 q 118 378 109 330 q 121 404 121 393 q 108 429 121 427 q 56 459 68 433 q 50 486 50 473 q 97 538 50 534 q 131 546 115 539 q 151 565 146 553 q 178 668 168 619 q 243 838 199 774 q 283 871 258 859 q 356 884 309 884 q 404 871 388 884 q 419 834 419 857 q 413 811 419 822 q 396 800 407 800 l 387 801 q 330 774 349 801 q 301 692 312 747 q 290 637 295 665 q 264 527 281 580 q 213 441 248 474 q 231 393 231 428 l 231 373 q 193 212 231 337 l 178 157 l 176 149 q 171 123 171 134 q 196 104 171 104 l 202 104 q 239 79 227 104 q 245 50 245 65 q 240 22 245 40 q 184 -1 233 -1 z "},"|":{"ha":201,"x_min":64,"x_max":151,"o":"m 107 -3 q 77 9 90 -3 q 64 40 64 22 l 64 839 q 77 869 64 857 q 107 882 90 882 q 138 869 125 882 q 151 839 151 857 l 151 40 q 138 9 151 22 q 107 -3 125 -3 z "},"}":{"ha":408,"x_min":-5,"x_max":364,"o":"m 58 -1 q 12 12 26 -1 q -5 49 -5 26 q 1 72 -5 60 q 18 83 7 83 l 28 82 q 84 109 66 82 q 113 191 102 136 q 124 246 119 218 q 150 356 134 303 q 201 441 166 408 q 183 490 183 454 q 183 510 183 491 q 195 577 184 529 q 221 671 207 625 q 236 726 230 701 q 239 752 239 736 q 232 773 239 764 q 205 782 224 782 l 201 782 q 167 806 176 782 q 163 827 163 816 q 171 859 163 840 q 233 884 181 884 q 335 845 302 884 q 361 768 361 814 q 356 726 361 749 q 326 620 343 675 q 296 505 306 553 q 293 477 293 489 q 306 454 293 456 q 358 424 346 450 q 364 397 364 410 q 317 345 364 349 q 283 337 300 344 q 263 318 267 330 q 236 215 246 264 q 172 46 214 107 q 131 12 157 24 q 58 -1 104 -1 z "},"~":{"ha":407,"x_min":40,"x_max":364,"o":"m 275 360 q 239 367 263 360 q 180 389 214 373 q 117 412 146 405 q 97 415 106 415 q 68 406 81 415 q 56 401 61 401 q 45 407 50 401 q 40 422 40 412 q 42 435 40 428 q 90 509 60 494 q 130 519 109 519 q 226 490 161 519 q 288 467 259 475 q 308 465 298 465 q 337 473 324 465 q 349 478 344 478 q 359 473 355 478 q 364 456 364 467 q 363 444 364 451 q 315 370 345 386 q 275 360 296 360 z "},"¡":{"ha":198,"x_min":-33,"x_max":296,"o":"m 52 -9 q -4 11 24 -9 q -33 63 -32 31 q 1 204 -27 102 q 65 424 29 306 q 133 628 102 543 q 174 671 149 668 l 181 672 q 216 657 201 672 q 231 623 231 642 q 183 391 231 606 q 111 45 142 206 q 64 -8 99 -3 l 52 -9 m 229 702 q 188 715 207 702 q 168 750 168 728 l 170 761 q 195 853 178 801 q 241 886 208 886 q 279 872 262 886 q 296 833 296 858 q 286 785 296 822 q 273 735 278 760 q 229 702 265 702 z "},"¢":{"ha":669,"x_min":18,"x_max":643,"o":"m 179 -103 q 141 -82 153 -103 q 135 -60 135 -72 q 136 -50 135 -55 l 153 12 q 57 110 93 47 q 18 252 20 174 l 18 255 q 57 483 18 363 q 168 704 96 602 q 334 859 239 806 l 355 935 q 375 961 360 953 q 397 967 385 967 q 435 946 422 967 q 440 925 440 937 q 439 913 440 919 l 433 892 l 437 892 q 475 895 457 895 q 586 865 534 895 q 643 754 639 836 l 643 751 q 628 661 643 715 q 529 504 585 504 q 510 505 528 504 q 468 533 492 507 q 449 573 449 553 q 450 583 449 578 q 480 654 463 611 q 505 749 505 715 q 481 793 505 783 q 470 795 476 795 q 444 788 459 795 q 341 690 392 762 q 249 528 290 619 q 186 348 208 437 q 172 234 172 284 q 177 175 172 214 q 228 122 182 135 l 234 121 q 299 159 263 121 q 373 249 336 197 q 415 302 395 278 q 448 315 427 315 q 468 313 452 315 q 502 290 484 311 q 510 263 510 279 q 450 130 510 227 q 366 30 416 73 q 252 -15 316 -13 l 236 -14 l 220 -71 q 201 -98 216 -89 q 179 -103 191 -103 z "},"£":{"ha":688,"x_min":-3,"x_max":631,"o":"m 484 -1 l 22 -1 q 0 24 5 3 q -3 45 -3 34 q 20 114 -3 85 q 85 245 68 173 q 104 397 101 318 l 58 397 q 35 411 45 397 q 26 445 26 425 q 35 479 26 465 q 58 493 45 493 l 111 493 q 137 658 115 577 q 222 810 159 739 q 430 892 299 892 q 599 823 543 892 q 631 735 631 781 q 594 655 631 691 q 547 641 576 641 q 501 654 522 641 q 480 694 480 667 q 446 796 480 777 q 413 805 431 805 q 355 785 391 805 q 290 711 320 766 q 238 493 246 629 l 494 493 q 517 479 508 493 q 527 445 527 465 q 517 411 527 425 q 494 397 508 397 l 232 397 q 229 355 231 374 q 202 245 222 300 q 140 136 182 190 q 125 112 125 117 l 125 111 q 136 106 125 106 l 280 118 q 473 136 430 130 l 481 136 q 520 118 508 136 q 533 76 533 101 q 532 59 533 74 q 518 21 532 43 q 484 -1 505 -1 z "},"¤":{"ha":382,"x_min":-24,"x_max":387,"o":"m 277 26 q 237 54 249 26 l 229 73 q 159 56 193 56 q 68 94 111 56 l 58 75 q 20 54 44 54 q -2 60 8 54 q -24 97 -24 73 q -18 119 -24 109 l 22 186 q 18 233 18 208 q 22 286 18 258 q 83 441 39 384 l 62 494 q 60 509 60 502 q 87 549 60 538 q 103 552 96 552 q 144 525 132 552 l 153 503 q 227 523 192 523 q 298 501 264 523 l 306 515 q 343 536 319 536 q 366 530 355 536 q 387 492 387 517 q 380 471 387 481 l 353 423 q 363 353 363 393 q 353 269 363 315 q 298 136 334 186 l 318 85 q 321 69 321 77 q 293 29 321 40 q 277 26 285 26 m 175 205 q 222 243 201 205 q 248 336 248 289 q 227 379 248 370 l 219 380 q 170 342 191 380 q 146 252 146 299 q 171 205 146 214 l 175 205 z "},"¥":{"ha":540,"x_min":-3,"x_max":540,"o":"m 134 4 q 56 35 88 4 q 38 82 38 54 q 40 103 38 92 l 62 188 l 33 188 q 7 201 18 188 q -3 232 -3 214 q 7 263 -3 250 q 33 276 18 276 l 86 276 l 92 294 l 58 294 q 32 307 43 294 q 21 338 21 320 q 32 370 21 357 q 58 383 43 383 l 116 383 l 127 418 q 92 565 116 468 q 55 720 73 645 q 33 831 33 813 q 64 880 33 863 q 108 892 85 892 q 142 886 119 892 q 173 833 165 880 q 193 708 180 774 q 220 543 207 639 q 329 730 277 635 q 410 869 373 810 q 456 895 429 895 q 487 891 464 895 q 531 852 509 886 q 540 821 540 838 q 524 773 540 799 q 445 656 501 740 q 338 492 389 573 q 277 383 287 410 l 313 383 q 339 370 328 383 q 350 338 350 357 q 339 307 350 320 q 313 294 328 294 l 256 294 l 252 276 l 289 276 q 315 263 304 276 q 326 232 326 250 q 315 201 326 214 q 289 188 304 188 l 233 188 l 205 56 q 172 13 197 25 q 134 4 155 4 z "},"¦":{"ha":189,"x_min":50,"x_max":137,"o":"m 94 444 q 63 456 76 444 q 50 487 50 469 l 50 845 q 63 876 50 863 q 94 888 76 888 q 124 876 112 888 q 137 845 137 863 l 137 487 q 124 456 137 469 q 94 444 112 444 m 94 -37 q 63 -25 76 -37 q 50 6 50 -12 l 50 364 q 63 395 50 382 q 94 408 76 408 q 124 395 112 408 q 137 364 137 382 l 137 6 q 124 -25 137 -12 q 94 -37 112 -37 z "},"§":{"ha":475,"x_min":-29,"x_max":515,"o":"m 64 -165 l 47 -165 q -9 -111 13 -157 q -29 -20 -29 -67 q -28 13 -29 -16 q 8 65 -28 42 q 136 221 113 119 q 139 258 139 239 q 107 395 139 320 l 93 434 q 82 506 82 470 q 115 631 82 559 q 220 771 147 702 q 361 871 292 840 q 425 886 397 886 q 470 872 444 886 q 508 819 496 859 q 515 774 515 795 q 508 732 515 758 q 474 700 502 706 q 415 626 441 673 q 383 523 389 578 q 382 500 382 511 q 403 411 382 455 q 427 304 427 359 q 424 258 427 295 q 395 160 421 222 q 334 43 368 98 q 255 -59 302 -9 q 155 -139 209 -109 q 64 -165 110 -165 m 238 148 q 315 259 288 195 q 327 326 327 289 q 300 450 327 382 l 286 490 q 275 562 275 525 q 278 600 275 581 q 202 494 229 559 q 191 437 191 467 q 211 355 191 398 q 243 210 243 286 q 238 148 243 180 z "},"¨":{"ha":281,"x_min":43,"x_max":252,"o":"m 201 639 l 199 639 q 163 654 178 639 q 149 689 149 669 l 149 694 q 163 730 149 715 q 199 745 178 745 q 237 730 222 745 q 252 694 252 715 l 252 689 q 237 654 252 669 q 201 639 222 639 m 88 645 l 87 645 q 56 658 68 645 q 43 688 43 671 l 43 693 q 56 724 43 711 q 87 736 68 736 q 119 724 106 736 q 132 693 132 711 l 132 688 q 119 658 132 671 q 88 645 106 645 z "},"©":{"ha":635,"x_min":-1,"x_max":646,"o":"m 260 -3 q 129 37 197 -3 q 20 184 60 76 q -1 321 -1 244 q 13 457 -1 384 q 138 739 53 634 q 323 876 223 844 q 406 890 366 890 q 525 857 459 890 q 628 706 591 824 q 646 576 646 650 q 625 394 646 496 q 500 122 583 218 q 260 -3 392 -3 m 254 83 q 408 162 329 83 q 530 417 486 242 q 554 607 554 528 q 540 714 554 650 q 469 804 526 779 q 418 816 445 816 q 327 788 382 816 q 208 669 271 760 q 112 440 145 578 q 96 302 96 363 q 128 159 96 229 q 242 83 161 90 l 254 83 m 296 180 q 235 193 263 180 q 146 311 162 231 q 141 370 141 340 q 163 496 141 423 q 243 631 186 569 q 369 690 298 690 l 374 690 q 467 645 434 684 q 489 585 489 618 q 485 555 489 571 q 439 523 473 523 q 408 532 422 523 q 389 570 389 544 l 389 576 q 385 598 389 593 q 375 603 380 603 q 368 602 372 603 q 313 543 339 591 q 272 435 288 495 q 256 329 256 375 q 278 275 256 282 l 282 275 q 307 284 294 275 q 340 314 324 296 q 369 349 357 332 q 396 365 382 365 q 409 363 399 365 q 429 345 419 361 q 437 323 437 335 q 435 311 437 317 q 405 248 425 279 q 296 180 362 180 z "},"®":{"ha":640,"x_min":-3,"x_max":644,"o":"m 258 -3 q 126 37 195 -3 q 18 184 58 76 q -3 320 -3 244 q 12 457 -3 382 q 136 739 51 634 q 321 876 221 844 q 404 890 364 890 q 523 857 457 890 q 626 706 589 824 q 644 576 644 650 q 623 394 644 496 q 498 122 581 218 q 258 -3 390 -3 m 252 83 q 406 162 327 83 q 528 417 485 242 q 552 607 552 528 q 538 714 552 650 q 467 804 524 779 q 416 816 443 816 q 325 788 380 816 q 206 669 269 760 q 110 440 143 578 q 94 302 94 363 q 126 159 94 229 q 240 83 159 90 l 252 83 m 384 187 q 334 214 355 189 q 273 330 299 254 q 261 357 264 357 q 259 356 260 357 q 259 354 259 355 l 257 343 q 241 247 253 324 q 203 220 234 220 q 162 231 181 220 q 143 258 143 242 l 144 264 q 201 477 168 347 q 252 677 235 608 q 271 695 256 690 q 304 701 286 701 q 342 690 329 701 q 351 686 347 686 q 363 694 357 686 q 424 721 393 721 q 454 716 431 721 q 490 661 477 711 q 494 619 494 641 q 481 532 494 584 q 429 433 469 481 q 326 378 389 385 q 324 376 324 377 q 361 335 324 366 q 435 291 409 294 q 450 287 444 290 q 456 267 456 283 q 438 215 456 241 q 384 187 421 189 m 315 439 q 340 457 323 439 q 377 517 357 475 q 403 614 403 575 q 393 643 403 636 q 388 645 391 645 q 367 630 380 645 q 340 584 357 618 q 314 513 324 550 q 303 458 303 477 q 315 439 303 439 z "},"¯":{"ha":274,"x_min":41,"x_max":233,"o":"m 177 667 l 131 667 l 97 668 q 74 667 81 668 q 45 686 53 668 q 41 706 41 696 q 45 727 41 714 q 69 743 49 740 q 142 745 87 745 l 205 745 q 229 726 222 744 q 233 706 233 716 q 230 685 233 698 q 205 668 226 671 q 177 667 198 667 z "},"°":{"ha":270,"x_min":29,"x_max":220,"o":"m 111 645 q 75 649 103 645 q 31 714 47 654 q 29 739 29 726 q 66 852 29 804 q 142 890 98 890 q 190 874 167 890 q 220 817 214 858 l 220 798 q 186 687 220 739 q 111 645 151 645 m 113 713 q 134 726 121 713 q 155 774 146 740 q 159 810 159 797 q 144 837 159 837 q 123 821 136 837 q 101 762 109 806 q 99 739 99 749 q 113 713 99 713 z "},"±":{"ha":410,"x_min":17,"x_max":394,"o":"m 191 254 l 184 254 q 136 277 146 254 q 132 310 132 290 q 140 383 132 338 q 143 405 143 396 q 142 410 143 408 q 134 412 141 412 l 127 411 q 107 410 119 410 q 58 408 83 408 q 35 429 41 408 q 29 458 29 443 q 32 479 29 465 q 52 502 35 494 q 143 519 87 513 q 160 521 154 521 q 170 522 167 521 q 186 580 175 525 q 208 650 198 635 q 269 678 231 678 q 299 672 286 678 q 315 647 315 664 l 315 640 l 292 551 q 290 538 290 544 q 298 524 290 528 q 319 521 305 521 l 328 521 q 362 519 344 521 q 387 475 387 513 q 375 433 387 453 q 359 419 369 422 q 331 415 349 416 q 302 416 315 415 l 288 417 q 268 414 277 417 q 253 388 258 410 q 241 330 245 357 q 229 271 237 302 q 216 258 227 262 q 191 254 205 254 m 81 -28 q 42 19 42 -28 q 71 76 42 60 q 202 98 119 98 q 309 85 260 98 q 347 33 347 71 q 335 -5 347 15 q 293 -26 323 -25 l 233 -26 q 81 -28 158 -26 z "},"´":{"ha":300,"x_min":45,"x_max":254,"o":"m 62 606 q 50 612 55 606 q 45 627 45 618 l 45 633 q 54 646 45 639 l 176 727 q 218 742 201 742 q 240 732 232 742 q 254 692 254 715 q 251 664 254 684 q 218 634 247 643 q 84 610 176 625 l 62 606 z "},"·":{"ha":345,"x_min":98,"x_max":247,"o":"m 172 432 q 119 454 141 432 q 98 507 98 475 q 119 559 98 537 q 172 581 141 581 q 225 559 203 581 q 247 507 247 537 q 225 454 247 475 q 172 432 203 432 z "},"∙":{"ha":345,"x_min":98,"x_max":247,"o":"m 172 432 q 119 454 141 432 q 98 507 98 475 q 119 559 98 537 q 172 581 141 581 q 225 559 203 581 q 247 507 247 537 q 225 454 247 475 q 172 432 203 432 z "},"¸":{"ha":297,"x_min":50,"x_max":230,"o":"m 137 -131 q 114 -130 132 -131 q 71 -111 96 -129 q 50 -73 50 -92 q 61 -39 50 -54 q 85 -16 72 -23 q 96 -12 92 -12 q 102 -16 100 -12 q 133 -47 115 -36 q 164 -58 151 -58 q 178 -46 178 -58 l 178 -43 q 168 -30 178 -37 l 141 -16 q 127 14 127 -6 q 131 31 127 22 q 141 42 134 41 l 149 43 q 164 42 155 43 q 187 42 174 42 q 207 41 200 41 q 211 35 210 40 q 212 24 212 30 q 208 18 212 19 q 172 6 186 12 l 181 3 q 220 -13 211 -1 q 230 -45 230 -28 q 178 -123 230 -94 q 137 -131 162 -131 z "},"¿":{"ha":507,"x_min":-13,"x_max":545,"o":"m 137 -11 q 67 1 107 -11 q 3 59 26 14 q -13 125 -13 90 q -9 163 -13 144 q 71 306 10 247 q 205 416 131 366 q 319 508 266 460 q 401 616 372 555 q 451 656 421 656 q 482 640 469 656 q 490 610 490 629 q 486 576 490 595 q 408 452 464 511 q 286 336 351 393 q 159 214 213 275 q 129 156 129 176 q 135 140 129 146 q 168 130 147 130 q 287 181 232 130 q 319 194 302 194 q 348 188 329 194 q 380 152 368 181 q 385 133 385 142 q 366 85 385 111 q 232 4 319 28 q 137 -11 178 -11 m 476 703 q 433 718 452 703 q 416 749 416 730 q 418 763 416 755 q 432 812 427 787 q 442 851 437 833 q 490 886 455 886 q 528 874 511 886 q 545 838 545 862 l 544 829 q 522 736 534 781 q 476 703 511 703 z "},"À":{"ha":848,"x_min":23,"x_max":871,"o":"m 247 517 q 232 524 236 517 q 227 578 227 542 q 250 592 229 592 q 273 578 273 592 q 260 526 269 555 q 247 517 257 517 m 625 528 l 622 528 q 603 532 614 528 q 584 543 591 535 q 576 561 576 551 l 577 566 q 595 658 586 606 q 606 739 604 710 q 601 755 606 747 q 597 766 597 760 q 602 774 597 769 q 644 807 616 793 q 702 820 673 820 q 749 799 732 820 q 763 756 763 779 q 749 715 763 733 q 667 665 715 679 q 661 660 661 662 q 689 648 661 652 q 706 646 697 646 q 733 649 717 646 q 767 663 749 651 q 774 667 770 667 l 775 666 q 783 636 783 661 q 768 598 783 605 q 734 593 751 593 q 642 624 682 593 q 638 625 640 625 q 634 620 635 625 q 633 593 633 608 q 635 534 633 568 q 625 528 634 529 m 648 692 q 682 716 656 692 q 709 746 697 730 q 724 778 724 765 q 717 786 724 786 q 690 779 708 786 q 667 768 677 774 q 656 758 657 762 q 648 715 651 734 q 646 694 646 696 q 648 692 646 692 m 113 158 q 102 161 107 158 q 81 178 90 167 q 72 203 72 190 q 90 236 72 220 l 123 258 q 120 261 123 260 q 114 266 117 262 q 111 276 111 269 q 113 313 111 294 l 113 325 q 114 327 113 326 l 114 330 q 111 336 114 336 q 104 333 109 336 q 95 329 100 331 q 53 312 64 312 q 34 330 45 312 q 23 359 23 348 q 33 380 23 370 l 72 419 q 136 484 125 475 q 151 488 142 488 q 176 480 164 488 q 184 464 184 474 q 182 452 182 458 q 172 393 176 422 q 177 389 172 390 q 185 378 185 385 l 184 372 q 167 353 182 362 q 163 348 164 351 q 161 328 163 338 q 159 288 159 308 q 165 281 159 281 q 169 281 168 281 q 198 296 182 290 q 203 302 202 298 q 222 481 221 459 q 236 490 224 488 q 260 485 250 490 q 269 470 269 481 q 262 374 267 427 q 251 245 252 248 q 245 241 250 243 q 237 240 241 240 q 205 256 213 240 q 201 260 204 258 q 195 258 197 260 q 119 164 153 226 q 113 158 117 159 m 68 359 l 72 359 q 87 363 79 361 q 104 368 96 366 q 109 369 106 368 q 114 371 112 370 q 117 376 115 372 q 124 422 119 399 l 125 429 q 109 410 123 429 q 71 362 86 379 q 68 359 68 360 l 68 359 m 524 528 q 506 533 513 528 q 499 549 499 539 q 505 585 499 559 l 505 590 q 504 593 505 593 q 496 585 501 593 q 465 559 484 561 q 445 565 456 559 q 424 579 433 570 q 414 597 415 588 q 417 633 414 616 q 439 755 423 684 l 440 762 q 434 770 440 770 q 427 768 431 770 l 404 758 q 391 751 396 754 q 389 745 389 749 l 389 742 q 398 691 398 723 q 397 667 398 687 q 381 615 397 646 q 328 579 363 579 q 285 595 304 579 q 266 646 266 612 l 266 650 q 287 725 269 688 q 330 779 305 763 q 338 781 334 781 q 346 779 341 781 q 359 774 354 774 q 394 784 373 774 q 435 798 420 798 q 461 791 446 798 q 484 764 477 785 q 484 754 484 761 q 472 683 475 692 l 465 641 q 462 617 462 625 q 467 605 462 605 q 478 613 471 605 q 494 639 486 621 q 528 735 515 688 l 528 737 q 538 773 534 755 q 564 789 543 789 q 577 787 570 789 q 587 774 587 783 q 582 741 587 768 q 568 666 575 709 q 553 557 553 588 q 554 541 553 547 q 545 531 553 535 q 524 528 536 528 m 333 604 q 353 626 345 606 q 365 671 361 646 q 368 706 368 691 q 368 724 368 711 q 360 737 367 736 q 352 734 354 737 q 324 648 338 715 q 322 623 322 633 q 331 604 322 604 l 333 604 m 312 513 l 310 513 q 302 519 306 513 q 298 534 298 525 q 306 549 298 543 q 344 562 319 557 q 385 566 368 566 q 399 563 392 566 q 406 551 406 560 q 399 531 406 535 l 396 530 q 312 513 357 526 m 152 514 q 127 533 136 514 q 77 600 125 553 q 58 621 66 610 q 45 650 50 631 q 43 665 43 657 q 73 728 43 696 q 133 772 95 752 q 248 812 207 812 q 284 793 277 812 q 288 774 288 784 q 276 743 288 755 q 268 738 271 738 q 262 740 265 738 q 242 746 256 746 q 212 741 233 746 q 158 721 191 736 q 104 686 124 705 q 85 651 85 669 q 108 612 85 631 q 134 578 123 602 l 140 610 l 140 612 q 138 619 140 618 q 133 629 133 623 q 148 654 133 644 q 151 658 151 655 q 153 665 152 661 q 163 704 158 691 q 181 713 169 713 q 197 710 190 713 q 203 699 203 706 l 203 697 l 199 678 l 197 670 q 199 667 197 667 l 206 669 q 236 678 224 678 l 243 677 q 252 657 252 674 q 252 650 252 655 q 248 640 251 645 q 243 635 245 635 l 242 635 q 233 636 238 636 q 191 628 218 636 q 174 564 184 626 q 169 523 170 543 q 152 514 168 514 m 309 252 q 289 256 300 252 q 277 271 278 260 q 292 404 282 335 q 301 473 297 439 q 316 492 303 485 q 340 498 328 498 q 352 498 343 498 q 366 484 360 497 q 404 374 382 427 q 410 363 409 363 q 413 378 412 363 q 426 525 420 479 q 429 531 427 528 q 453 539 436 539 q 469 536 460 539 q 481 521 481 532 l 481 518 q 473 463 476 490 q 467 431 471 447 l 461 391 q 454 330 458 355 q 446 274 454 314 l 445 271 q 425 264 440 264 q 402 274 408 264 q 350 422 374 348 q 345 433 347 433 q 342 425 342 433 l 340 353 q 339 317 339 334 q 336 274 338 296 q 309 252 334 252 m 675 239 q 631 250 653 239 q 606 282 606 263 q 606 302 606 296 q 606 309 606 308 q 604 310 605 310 q 597 300 602 310 q 563 271 584 281 q 530 264 545 264 q 495 277 510 264 q 473 327 473 296 q 475 353 473 332 q 523 404 477 374 l 524 405 q 523 407 524 406 q 519 410 523 408 q 496 435 503 417 q 492 455 492 446 q 501 486 492 471 q 551 518 519 513 l 557 519 q 597 506 582 519 q 608 484 608 497 q 605 468 608 477 l 597 454 q 588 437 591 446 l 582 437 q 562 454 562 437 q 571 486 562 465 l 574 493 q 573 496 574 496 l 572 496 q 568 494 571 496 q 545 467 554 486 q 538 439 538 452 q 555 415 538 421 q 570 413 562 413 q 576 409 574 413 q 578 402 578 406 q 571 391 578 393 q 534 363 549 385 q 526 340 526 352 q 532 320 526 330 q 550 309 537 309 q 622 375 579 309 q 631 380 626 380 l 636 380 q 644 376 640 380 q 647 370 647 372 q 646 366 647 368 q 631 311 632 342 q 632 293 631 300 q 639 281 633 286 q 645 279 642 279 q 650 280 648 279 q 672 292 661 283 q 690 309 682 300 q 702 330 697 318 l 703 332 q 700 337 703 336 q 695 339 696 339 q 690 335 692 339 q 678 330 685 330 q 663 340 667 330 q 662 345 662 342 q 667 357 662 351 l 682 376 q 684 379 684 377 q 681 385 684 384 l 656 406 q 633 459 633 429 q 636 489 633 466 q 667 541 640 511 q 728 570 694 570 q 758 563 741 569 q 786 545 776 557 q 792 531 792 538 q 782 508 792 521 q 772 491 777 500 q 764 473 764 477 q 759 467 763 467 q 745 474 753 467 q 735 486 739 478 q 734 491 734 488 q 759 527 734 505 l 759 528 q 736 516 753 528 q 688 457 702 490 q 682 434 682 446 q 699 402 682 414 l 702 401 q 708 404 706 401 q 815 491 762 460 q 830 495 823 495 q 860 476 847 495 q 871 448 871 459 q 868 442 871 444 q 797 419 836 440 q 732 376 757 398 q 730 370 730 374 l 730 367 q 742 328 742 348 q 724 271 742 300 q 675 239 704 239 m 274 128 q 263 130 268 129 q 258 133 259 132 q 257 137 257 134 q 257 140 257 139 q 258 140 258 140 l 260 140 q 274 136 267 136 q 283 138 279 136 q 286 146 286 140 q 282 153 286 151 q 273 158 278 156 q 263 164 267 161 q 258 175 258 168 q 264 187 258 183 q 277 191 269 191 q 286 190 281 191 q 291 186 291 188 q 292 184 292 185 q 290 180 292 180 l 288 181 q 277 184 283 184 q 267 176 267 184 q 271 168 267 171 q 281 163 275 165 q 290 157 286 161 q 295 146 294 153 q 289 133 294 138 q 274 128 283 128 m 340 129 l 338 129 q 334 130 334 129 q 334 183 334 130 l 316 183 q 315 186 315 183 q 315 190 315 189 q 338 191 315 191 q 360 190 360 191 q 361 186 361 189 q 360 184 361 184 q 342 183 359 183 q 341 130 342 130 q 340 129 341 130 m 410 128 q 393 134 399 128 q 387 151 387 140 l 387 189 q 388 190 387 190 q 391 191 389 191 q 394 190 393 191 q 395 171 395 190 q 396 145 395 148 q 410 136 399 136 q 425 144 421 136 q 425 170 425 148 q 426 190 425 190 q 429 191 427 191 q 433 190 433 191 q 433 152 433 189 q 427 134 433 140 q 410 128 421 128 m 483 130 q 468 130 469 130 q 467 160 467 131 q 468 190 467 189 q 484 191 469 191 q 507 182 499 191 q 514 161 514 174 q 483 130 514 130 m 484 136 q 500 142 495 136 q 505 161 505 148 q 494 182 505 176 q 475 184 490 184 l 475 136 l 484 136 m 549 129 l 547 129 q 544 129 545 129 q 543 160 543 130 q 544 190 543 190 q 547 191 545 191 q 550 190 549 191 q 551 160 551 190 q 551 130 551 130 q 549 129 551 130 m 608 128 q 588 137 594 129 q 581 159 581 144 q 588 183 581 174 q 609 191 595 191 q 629 183 623 191 q 636 161 636 176 q 629 137 636 146 q 608 128 622 129 m 608 136 q 627 160 627 136 q 609 184 627 184 q 594 178 599 184 q 590 160 590 171 q 594 142 590 149 q 608 136 597 136 z "},"Á":{"ha":848,"x_min":23,"x_max":871,"o":"m 247 517 q 232 524 236 517 q 227 578 227 542 q 250 592 229 592 q 273 578 273 592 q 260 526 269 555 q 247 517 257 517 m 625 528 l 622 528 q 603 532 614 528 q 584 543 591 535 q 576 561 576 551 l 577 566 q 595 658 586 606 q 606 739 604 710 q 601 755 606 747 q 597 766 597 760 q 602 774 597 769 q 644 807 616 793 q 702 820 673 820 q 749 799 732 820 q 763 756 763 779 q 749 715 763 733 q 667 665 715 679 q 661 660 661 662 q 689 648 661 652 q 706 646 697 646 q 733 649 717 646 q 767 663 749 651 q 774 667 770 667 l 775 666 q 783 636 783 661 q 768 598 783 605 q 734 593 751 593 q 642 624 682 593 q 638 625 640 625 q 634 620 635 625 q 633 593 633 608 q 635 534 633 568 q 625 528 634 529 m 648 692 q 682 716 656 692 q 709 746 697 730 q 724 778 724 765 q 717 786 724 786 q 690 779 708 786 q 667 768 677 774 q 656 758 657 762 q 648 715 651 734 q 646 694 646 696 q 648 692 646 692 m 113 158 q 102 161 107 158 q 81 178 90 167 q 72 203 72 190 q 90 236 72 220 l 123 258 q 120 261 123 260 q 114 266 117 262 q 111 276 111 269 q 113 313 111 294 l 113 325 q 114 327 113 326 l 114 330 q 111 336 114 336 q 104 333 109 336 q 95 329 100 331 q 53 312 64 312 q 34 330 45 312 q 23 359 23 348 q 33 380 23 370 l 72 419 q 136 484 125 475 q 151 488 142 488 q 176 480 164 488 q 184 464 184 474 q 182 452 182 458 q 172 393 176 422 q 177 389 172 390 q 185 378 185 385 l 184 372 q 167 353 182 362 q 163 348 164 351 q 161 328 163 338 q 159 288 159 308 q 165 281 159 281 q 169 281 168 281 q 198 296 182 290 q 203 302 202 298 q 222 481 221 459 q 236 490 224 488 q 260 485 250 490 q 269 470 269 481 q 262 374 267 427 q 251 245 252 248 q 245 241 250 243 q 237 240 241 240 q 205 256 213 240 q 201 260 204 258 q 195 258 197 260 q 119 164 153 226 q 113 158 117 159 m 68 359 l 72 359 q 87 363 79 361 q 104 368 96 366 q 109 369 106 368 q 114 371 112 370 q 117 376 115 372 q 124 422 119 399 l 125 429 q 109 410 123 429 q 71 362 86 379 q 68 359 68 360 l 68 359 m 524 528 q 506 533 513 528 q 499 549 499 539 q 505 585 499 559 l 505 590 q 504 593 505 593 q 496 585 501 593 q 465 559 484 561 q 445 565 456 559 q 424 579 433 570 q 414 597 415 588 q 417 633 414 616 q 439 755 423 684 l 440 762 q 434 770 440 770 q 427 768 431 770 l 404 758 q 391 751 396 754 q 389 745 389 749 l 389 742 q 398 691 398 723 q 397 667 398 687 q 381 615 397 646 q 328 579 363 579 q 285 595 304 579 q 266 646 266 612 l 266 650 q 287 725 269 688 q 330 779 305 763 q 338 781 334 781 q 346 779 341 781 q 359 774 354 774 q 394 784 373 774 q 435 798 420 798 q 461 791 446 798 q 484 764 477 785 q 484 754 484 761 q 472 683 475 692 l 465 641 q 462 617 462 625 q 467 605 462 605 q 478 613 471 605 q 494 639 486 621 q 528 735 515 688 l 528 737 q 538 773 534 755 q 564 789 543 789 q 577 787 570 789 q 587 774 587 783 q 582 741 587 768 q 568 666 575 709 q 553 557 553 588 q 554 541 553 547 q 545 531 553 535 q 524 528 536 528 m 333 604 q 353 626 345 606 q 365 671 361 646 q 368 706 368 691 q 368 724 368 711 q 360 737 367 736 q 352 734 354 737 q 324 648 338 715 q 322 623 322 633 q 331 604 322 604 l 333 604 m 312 513 l 310 513 q 302 519 306 513 q 298 534 298 525 q 306 549 298 543 q 344 562 319 557 q 385 566 368 566 q 399 563 392 566 q 406 551 406 560 q 399 531 406 535 l 396 530 q 312 513 357 526 m 152 514 q 127 533 136 514 q 77 600 125 553 q 58 621 66 610 q 45 650 50 631 q 43 665 43 657 q 73 728 43 696 q 133 772 95 752 q 248 812 207 812 q 284 793 277 812 q 288 774 288 784 q 276 743 288 755 q 268 738 271 738 q 262 740 265 738 q 242 746 256 746 q 212 741 233 746 q 158 721 191 736 q 104 686 124 705 q 85 651 85 669 q 108 612 85 631 q 134 578 123 602 l 140 610 l 140 612 q 138 619 140 618 q 133 629 133 623 q 148 654 133 644 q 151 658 151 655 q 153 665 152 661 q 163 704 158 691 q 181 713 169 713 q 197 710 190 713 q 203 699 203 706 l 203 697 l 199 678 l 197 670 q 199 667 197 667 l 206 669 q 236 678 224 678 l 243 677 q 252 657 252 674 q 252 650 252 655 q 248 640 251 645 q 243 635 245 635 l 242 635 q 233 636 238 636 q 191 628 218 636 q 174 564 184 626 q 169 523 170 543 q 152 514 168 514 m 309 252 q 289 256 300 252 q 277 271 278 260 q 292 404 282 335 q 301 473 297 439 q 316 492 303 485 q 340 498 328 498 q 352 498 343 498 q 366 484 360 497 q 404 374 382 427 q 410 363 409 363 q 413 378 412 363 q 426 525 420 479 q 429 531 427 528 q 453 539 436 539 q 469 536 460 539 q 481 521 481 532 l 481 518 q 473 463 476 490 q 467 431 471 447 l 461 391 q 454 330 458 355 q 446 274 454 314 l 445 271 q 425 264 440 264 q 402 274 408 264 q 350 422 374 348 q 345 433 347 433 q 342 425 342 433 l 340 353 q 339 317 339 334 q 336 274 338 296 q 309 252 334 252 m 675 239 q 631 250 653 239 q 606 282 606 263 q 606 302 606 296 q 606 309 606 308 q 604 310 605 310 q 597 300 602 310 q 563 271 584 281 q 530 264 545 264 q 495 277 510 264 q 473 327 473 296 q 475 353 473 332 q 523 404 477 374 l 524 405 q 523 407 524 406 q 519 410 523 408 q 496 435 503 417 q 492 455 492 446 q 501 486 492 471 q 551 518 519 513 l 557 519 q 597 506 582 519 q 608 484 608 497 q 605 468 608 477 l 597 454 q 588 437 591 446 l 582 437 q 562 454 562 437 q 571 486 562 465 l 574 493 q 573 496 574 496 l 572 496 q 568 494 571 496 q 545 467 554 486 q 538 439 538 452 q 555 415 538 421 q 570 413 562 413 q 576 409 574 413 q 578 402 578 406 q 571 391 578 393 q 534 363 549 385 q 526 340 526 352 q 532 320 526 330 q 550 309 537 309 q 622 375 579 309 q 631 380 626 380 l 636 380 q 644 376 640 380 q 647 370 647 372 q 646 366 647 368 q 631 311 632 342 q 632 293 631 300 q 639 281 633 286 q 645 279 642 279 q 650 280 648 279 q 672 292 661 283 q 690 309 682 300 q 702 330 697 318 l 703 332 q 700 337 703 336 q 695 339 696 339 q 690 335 692 339 q 678 330 685 330 q 663 340 667 330 q 662 345 662 342 q 667 357 662 351 l 682 376 q 684 379 684 377 q 681 385 684 384 l 656 406 q 633 459 633 429 q 636 489 633 466 q 667 541 640 511 q 728 570 694 570 q 758 563 741 569 q 786 545 776 557 q 792 531 792 538 q 782 508 792 521 q 772 491 777 500 q 764 473 764 477 q 759 467 763 467 q 745 474 753 467 q 735 486 739 478 q 734 491 734 488 q 759 527 734 505 l 759 528 q 736 516 753 528 q 688 457 702 490 q 682 434 682 446 q 699 402 682 414 l 702 401 q 708 404 706 401 q 815 491 762 460 q 830 495 823 495 q 860 476 847 495 q 871 448 871 459 q 868 442 871 444 q 797 419 836 440 q 732 376 757 398 q 730 370 730 374 l 730 367 q 742 328 742 348 q 724 271 742 300 q 675 239 704 239 m 274 128 q 263 130 268 129 q 258 133 259 132 q 257 137 257 134 q 257 140 257 139 q 258 140 258 140 l 260 140 q 274 136 267 136 q 283 138 279 136 q 286 146 286 140 q 282 153 286 151 q 273 158 278 156 q 263 164 267 161 q 258 175 258 168 q 264 187 258 183 q 277 191 269 191 q 286 190 281 191 q 291 186 291 188 q 292 184 292 185 q 290 180 292 180 l 288 181 q 277 184 283 184 q 267 176 267 184 q 271 168 267 171 q 281 163 275 165 q 290 157 286 161 q 295 146 294 153 q 289 133 294 138 q 274 128 283 128 m 340 129 l 338 129 q 334 130 334 129 q 334 183 334 130 l 316 183 q 315 186 315 183 q 315 190 315 189 q 338 191 315 191 q 360 190 360 191 q 361 186 361 189 q 360 184 361 184 q 342 183 359 183 q 341 130 342 130 q 340 129 341 130 m 410 128 q 393 134 399 128 q 387 151 387 140 l 387 189 q 388 190 387 190 q 391 191 389 191 q 394 190 393 191 q 395 171 395 190 q 396 145 395 148 q 410 136 399 136 q 425 144 421 136 q 425 170 425 148 q 426 190 425 190 q 429 191 427 191 q 433 190 433 191 q 433 152 433 189 q 427 134 433 140 q 410 128 421 128 m 483 130 q 468 130 469 130 q 467 160 467 131 q 468 190 467 189 q 484 191 469 191 q 507 182 499 191 q 514 161 514 174 q 483 130 514 130 m 484 136 q 500 142 495 136 q 505 161 505 148 q 494 182 505 176 q 475 184 490 184 l 475 136 l 484 136 m 549 129 l 547 129 q 544 129 545 129 q 543 160 543 130 q 544 190 543 190 q 547 191 545 191 q 550 190 549 191 q 551 160 551 190 q 551 130 551 130 q 549 129 551 130 m 608 128 q 588 137 594 129 q 581 159 581 144 q 588 183 581 174 q 609 191 595 191 q 629 183 623 191 q 636 161 636 176 q 629 137 636 146 q 608 128 622 129 m 608 136 q 627 160 627 136 q 609 184 627 184 q 594 178 599 184 q 590 160 590 171 q 594 142 590 149 q 608 136 597 136 z "},"Â":{"ha":848,"x_min":23,"x_max":871,"o":"m 247 517 q 232 524 236 517 q 227 578 227 542 q 250 592 229 592 q 273 578 273 592 q 260 526 269 555 q 247 517 257 517 m 625 528 l 622 528 q 603 532 614 528 q 584 543 591 535 q 576 561 576 551 l 577 566 q 595 658 586 606 q 606 739 604 710 q 601 755 606 747 q 597 766 597 760 q 602 774 597 769 q 644 807 616 793 q 702 820 673 820 q 749 799 732 820 q 763 756 763 779 q 749 715 763 733 q 667 665 715 679 q 661 660 661 662 q 689 648 661 652 q 706 646 697 646 q 733 649 717 646 q 767 663 749 651 q 774 667 770 667 l 775 666 q 783 636 783 661 q 768 598 783 605 q 734 593 751 593 q 642 624 682 593 q 638 625 640 625 q 634 620 635 625 q 633 593 633 608 q 635 534 633 568 q 625 528 634 529 m 648 692 q 682 716 656 692 q 709 746 697 730 q 724 778 724 765 q 717 786 724 786 q 690 779 708 786 q 667 768 677 774 q 656 758 657 762 q 648 715 651 734 q 646 694 646 696 q 648 692 646 692 m 113 158 q 102 161 107 158 q 81 178 90 167 q 72 203 72 190 q 90 236 72 220 l 123 258 q 120 261 123 260 q 114 266 117 262 q 111 276 111 269 q 113 313 111 294 l 113 325 q 114 327 113 326 l 114 330 q 111 336 114 336 q 104 333 109 336 q 95 329 100 331 q 53 312 64 312 q 34 330 45 312 q 23 359 23 348 q 33 380 23 370 l 72 419 q 136 484 125 475 q 151 488 142 488 q 176 480 164 488 q 184 464 184 474 q 182 452 182 458 q 172 393 176 422 q 177 389 172 390 q 185 378 185 385 l 184 372 q 167 353 182 362 q 163 348 164 351 q 161 328 163 338 q 159 288 159 308 q 165 281 159 281 q 169 281 168 281 q 198 296 182 290 q 203 302 202 298 q 222 481 221 459 q 236 490 224 488 q 260 485 250 490 q 269 470 269 481 q 262 374 267 427 q 251 245 252 248 q 245 241 250 243 q 237 240 241 240 q 205 256 213 240 q 201 260 204 258 q 195 258 197 260 q 119 164 153 226 q 113 158 117 159 m 68 359 l 72 359 q 87 363 79 361 q 104 368 96 366 q 109 369 106 368 q 114 371 112 370 q 117 376 115 372 q 124 422 119 399 l 125 429 q 109 410 123 429 q 71 362 86 379 q 68 359 68 360 l 68 359 m 524 528 q 506 533 513 528 q 499 549 499 539 q 505 585 499 559 l 505 590 q 504 593 505 593 q 496 585 501 593 q 465 559 484 561 q 445 565 456 559 q 424 579 433 570 q 414 597 415 588 q 417 633 414 616 q 439 755 423 684 l 440 762 q 434 770 440 770 q 427 768 431 770 l 404 758 q 391 751 396 754 q 389 745 389 749 l 389 742 q 398 691 398 723 q 397 667 398 687 q 381 615 397 646 q 328 579 363 579 q 285 595 304 579 q 266 646 266 612 l 266 650 q 287 725 269 688 q 330 779 305 763 q 338 781 334 781 q 346 779 341 781 q 359 774 354 774 q 394 784 373 774 q 435 798 420 798 q 461 791 446 798 q 484 764 477 785 q 484 754 484 761 q 472 683 475 692 l 465 641 q 462 617 462 625 q 467 605 462 605 q 478 613 471 605 q 494 639 486 621 q 528 735 515 688 l 528 737 q 538 773 534 755 q 564 789 543 789 q 577 787 570 789 q 587 774 587 783 q 582 741 587 768 q 568 666 575 709 q 553 557 553 588 q 554 541 553 547 q 545 531 553 535 q 524 528 536 528 m 333 604 q 353 626 345 606 q 365 671 361 646 q 368 706 368 691 q 368 724 368 711 q 360 737 367 736 q 352 734 354 737 q 324 648 338 715 q 322 623 322 633 q 331 604 322 604 l 333 604 m 312 513 l 310 513 q 302 519 306 513 q 298 534 298 525 q 306 549 298 543 q 344 562 319 557 q 385 566 368 566 q 399 563 392 566 q 406 551 406 560 q 399 531 406 535 l 396 530 q 312 513 357 526 m 152 514 q 127 533 136 514 q 77 600 125 553 q 58 621 66 610 q 45 650 50 631 q 43 665 43 657 q 73 728 43 696 q 133 772 95 752 q 248 812 207 812 q 284 793 277 812 q 288 774 288 784 q 276 743 288 755 q 268 738 271 738 q 262 740 265 738 q 242 746 256 746 q 212 741 233 746 q 158 721 191 736 q 104 686 124 705 q 85 651 85 669 q 108 612 85 631 q 134 578 123 602 l 140 610 l 140 612 q 138 619 140 618 q 133 629 133 623 q 148 654 133 644 q 151 658 151 655 q 153 665 152 661 q 163 704 158 691 q 181 713 169 713 q 197 710 190 713 q 203 699 203 706 l 203 697 l 199 678 l 197 670 q 199 667 197 667 l 206 669 q 236 678 224 678 l 243 677 q 252 657 252 674 q 252 650 252 655 q 248 640 251 645 q 243 635 245 635 l 242 635 q 233 636 238 636 q 191 628 218 636 q 174 564 184 626 q 169 523 170 543 q 152 514 168 514 m 309 252 q 289 256 300 252 q 277 271 278 260 q 292 404 282 335 q 301 473 297 439 q 316 492 303 485 q 340 498 328 498 q 352 498 343 498 q 366 484 360 497 q 404 374 382 427 q 410 363 409 363 q 413 378 412 363 q 426 525 420 479 q 429 531 427 528 q 453 539 436 539 q 469 536 460 539 q 481 521 481 532 l 481 518 q 473 463 476 490 q 467 431 471 447 l 461 391 q 454 330 458 355 q 446 274 454 314 l 445 271 q 425 264 440 264 q 402 274 408 264 q 350 422 374 348 q 345 433 347 433 q 342 425 342 433 l 340 353 q 339 317 339 334 q 336 274 338 296 q 309 252 334 252 m 675 239 q 631 250 653 239 q 606 282 606 263 q 606 302 606 296 q 606 309 606 308 q 604 310 605 310 q 597 300 602 310 q 563 271 584 281 q 530 264 545 264 q 495 277 510 264 q 473 327 473 296 q 475 353 473 332 q 523 404 477 374 l 524 405 q 523 407 524 406 q 519 410 523 408 q 496 435 503 417 q 492 455 492 446 q 501 486 492 471 q 551 518 519 513 l 557 519 q 597 506 582 519 q 608 484 608 497 q 605 468 608 477 l 597 454 q 588 437 591 446 l 582 437 q 562 454 562 437 q 571 486 562 465 l 574 493 q 573 496 574 496 l 572 496 q 568 494 571 496 q 545 467 554 486 q 538 439 538 452 q 555 415 538 421 q 570 413 562 413 q 576 409 574 413 q 578 402 578 406 q 571 391 578 393 q 534 363 549 385 q 526 340 526 352 q 532 320 526 330 q 550 309 537 309 q 622 375 579 309 q 631 380 626 380 l 636 380 q 644 376 640 380 q 647 370 647 372 q 646 366 647 368 q 631 311 632 342 q 632 293 631 300 q 639 281 633 286 q 645 279 642 279 q 650 280 648 279 q 672 292 661 283 q 690 309 682 300 q 702 330 697 318 l 703 332 q 700 337 703 336 q 695 339 696 339 q 690 335 692 339 q 678 330 685 330 q 663 340 667 330 q 662 345 662 342 q 667 357 662 351 l 682 376 q 684 379 684 377 q 681 385 684 384 l 656 406 q 633 459 633 429 q 636 489 633 466 q 667 541 640 511 q 728 570 694 570 q 758 563 741 569 q 786 545 776 557 q 792 531 792 538 q 782 508 792 521 q 772 491 777 500 q 764 473 764 477 q 759 467 763 467 q 745 474 753 467 q 735 486 739 478 q 734 491 734 488 q 759 527 734 505 l 759 528 q 736 516 753 528 q 688 457 702 490 q 682 434 682 446 q 699 402 682 414 l 702 401 q 708 404 706 401 q 815 491 762 460 q 830 495 823 495 q 860 476 847 495 q 871 448 871 459 q 868 442 871 444 q 797 419 836 440 q 732 376 757 398 q 730 370 730 374 l 730 367 q 742 328 742 348 q 724 271 742 300 q 675 239 704 239 m 274 128 q 263 130 268 129 q 258 133 259 132 q 257 137 257 134 q 257 140 257 139 q 258 140 258 140 l 260 140 q 274 136 267 136 q 283 138 279 136 q 286 146 286 140 q 282 153 286 151 q 273 158 278 156 q 263 164 267 161 q 258 175 258 168 q 264 187 258 183 q 277 191 269 191 q 286 190 281 191 q 291 186 291 188 q 292 184 292 185 q 290 180 292 180 l 288 181 q 277 184 283 184 q 267 176 267 184 q 271 168 267 171 q 281 163 275 165 q 290 157 286 161 q 295 146 294 153 q 289 133 294 138 q 274 128 283 128 m 340 129 l 338 129 q 334 130 334 129 q 334 183 334 130 l 316 183 q 315 186 315 183 q 315 190 315 189 q 338 191 315 191 q 360 190 360 191 q 361 186 361 189 q 360 184 361 184 q 342 183 359 183 q 341 130 342 130 q 340 129 341 130 m 410 128 q 393 134 399 128 q 387 151 387 140 l 387 189 q 388 190 387 190 q 391 191 389 191 q 394 190 393 191 q 395 171 395 190 q 396 145 395 148 q 410 136 399 136 q 425 144 421 136 q 425 170 425 148 q 426 190 425 190 q 429 191 427 191 q 433 190 433 191 q 433 152 433 189 q 427 134 433 140 q 410 128 421 128 m 483 130 q 468 130 469 130 q 467 160 467 131 q 468 190 467 189 q 484 191 469 191 q 507 182 499 191 q 514 161 514 174 q 483 130 514 130 m 484 136 q 500 142 495 136 q 505 161 505 148 q 494 182 505 176 q 475 184 490 184 l 475 136 l 484 136 m 549 129 l 547 129 q 544 129 545 129 q 543 160 543 130 q 544 190 543 190 q 547 191 545 191 q 550 190 549 191 q 551 160 551 190 q 551 130 551 130 q 549 129 551 130 m 608 128 q 588 137 594 129 q 581 159 581 144 q 588 183 581 174 q 609 191 595 191 q 629 183 623 191 q 636 161 636 176 q 629 137 636 146 q 608 128 622 129 m 608 136 q 627 160 627 136 q 609 184 627 184 q 594 178 599 184 q 590 160 590 171 q 594 142 590 149 q 608 136 597 136 z "},"Ã":{"ha":848,"x_min":23,"x_max":871,"o":"m 247 517 q 232 524 236 517 q 227 578 227 542 q 250 592 229 592 q 273 578 273 592 q 260 526 269 555 q 247 517 257 517 m 625 528 l 622 528 q 603 532 614 528 q 584 543 591 535 q 576 561 576 551 l 577 566 q 595 658 586 606 q 606 739 604 710 q 601 755 606 747 q 597 766 597 760 q 602 774 597 769 q 644 807 616 793 q 702 820 673 820 q 749 799 732 820 q 763 756 763 779 q 749 715 763 733 q 667 665 715 679 q 661 660 661 662 q 689 648 661 652 q 706 646 697 646 q 733 649 717 646 q 767 663 749 651 q 774 667 770 667 l 775 666 q 783 636 783 661 q 768 598 783 605 q 734 593 751 593 q 642 624 682 593 q 638 625 640 625 q 634 620 635 625 q 633 593 633 608 q 635 534 633 568 q 625 528 634 529 m 648 692 q 682 716 656 692 q 709 746 697 730 q 724 778 724 765 q 717 786 724 786 q 690 779 708 786 q 667 768 677 774 q 656 758 657 762 q 648 715 651 734 q 646 694 646 696 q 648 692 646 692 m 113 158 q 102 161 107 158 q 81 178 90 167 q 72 203 72 190 q 90 236 72 220 l 123 258 q 120 261 123 260 q 114 266 117 262 q 111 276 111 269 q 113 313 111 294 l 113 325 q 114 327 113 326 l 114 330 q 111 336 114 336 q 104 333 109 336 q 95 329 100 331 q 53 312 64 312 q 34 330 45 312 q 23 359 23 348 q 33 380 23 370 l 72 419 q 136 484 125 475 q 151 488 142 488 q 176 480 164 488 q 184 464 184 474 q 182 452 182 458 q 172 393 176 422 q 177 389 172 390 q 185 378 185 385 l 184 372 q 167 353 182 362 q 163 348 164 351 q 161 328 163 338 q 159 288 159 308 q 165 281 159 281 q 169 281 168 281 q 198 296 182 290 q 203 302 202 298 q 222 481 221 459 q 236 490 224 488 q 260 485 250 490 q 269 470 269 481 q 262 374 267 427 q 251 245 252 248 q 245 241 250 243 q 237 240 241 240 q 205 256 213 240 q 201 260 204 258 q 195 258 197 260 q 119 164 153 226 q 113 158 117 159 m 68 359 l 72 359 q 87 363 79 361 q 104 368 96 366 q 109 369 106 368 q 114 371 112 370 q 117 376 115 372 q 124 422 119 399 l 125 429 q 109 410 123 429 q 71 362 86 379 q 68 359 68 360 l 68 359 m 524 528 q 506 533 513 528 q 499 549 499 539 q 505 585 499 559 l 505 590 q 504 593 505 593 q 496 585 501 593 q 465 559 484 561 q 445 565 456 559 q 424 579 433 570 q 414 597 415 588 q 417 633 414 616 q 439 755 423 684 l 440 762 q 434 770 440 770 q 427 768 431 770 l 404 758 q 391 751 396 754 q 389 745 389 749 l 389 742 q 398 691 398 723 q 397 667 398 687 q 381 615 397 646 q 328 579 363 579 q 285 595 304 579 q 266 646 266 612 l 266 650 q 287 725 269 688 q 330 779 305 763 q 338 781 334 781 q 346 779 341 781 q 359 774 354 774 q 394 784 373 774 q 435 798 420 798 q 461 791 446 798 q 484 764 477 785 q 484 754 484 761 q 472 683 475 692 l 465 641 q 462 617 462 625 q 467 605 462 605 q 478 613 471 605 q 494 639 486 621 q 528 735 515 688 l 528 737 q 538 773 534 755 q 564 789 543 789 q 577 787 570 789 q 587 774 587 783 q 582 741 587 768 q 568 666 575 709 q 553 557 553 588 q 554 541 553 547 q 545 531 553 535 q 524 528 536 528 m 333 604 q 353 626 345 606 q 365 671 361 646 q 368 706 368 691 q 368 724 368 711 q 360 737 367 736 q 352 734 354 737 q 324 648 338 715 q 322 623 322 633 q 331 604 322 604 l 333 604 m 312 513 l 310 513 q 302 519 306 513 q 298 534 298 525 q 306 549 298 543 q 344 562 319 557 q 385 566 368 566 q 399 563 392 566 q 406 551 406 560 q 399 531 406 535 l 396 530 q 312 513 357 526 m 152 514 q 127 533 136 514 q 77 600 125 553 q 58 621 66 610 q 45 650 50 631 q 43 665 43 657 q 73 728 43 696 q 133 772 95 752 q 248 812 207 812 q 284 793 277 812 q 288 774 288 784 q 276 743 288 755 q 268 738 271 738 q 262 740 265 738 q 242 746 256 746 q 212 741 233 746 q 158 721 191 736 q 104 686 124 705 q 85 651 85 669 q 108 612 85 631 q 134 578 123 602 l 140 610 l 140 612 q 138 619 140 618 q 133 629 133 623 q 148 654 133 644 q 151 658 151 655 q 153 665 152 661 q 163 704 158 691 q 181 713 169 713 q 197 710 190 713 q 203 699 203 706 l 203 697 l 199 678 l 197 670 q 199 667 197 667 l 206 669 q 236 678 224 678 l 243 677 q 252 657 252 674 q 252 650 252 655 q 248 640 251 645 q 243 635 245 635 l 242 635 q 233 636 238 636 q 191 628 218 636 q 174 564 184 626 q 169 523 170 543 q 152 514 168 514 m 309 252 q 289 256 300 252 q 277 271 278 260 q 292 404 282 335 q 301 473 297 439 q 316 492 303 485 q 340 498 328 498 q 352 498 343 498 q 366 484 360 497 q 404 374 382 427 q 410 363 409 363 q 413 378 412 363 q 426 525 420 479 q 429 531 427 528 q 453 539 436 539 q 469 536 460 539 q 481 521 481 532 l 481 518 q 473 463 476 490 q 467 431 471 447 l 461 391 q 454 330 458 355 q 446 274 454 314 l 445 271 q 425 264 440 264 q 402 274 408 264 q 350 422 374 348 q 345 433 347 433 q 342 425 342 433 l 340 353 q 339 317 339 334 q 336 274 338 296 q 309 252 334 252 m 675 239 q 631 250 653 239 q 606 282 606 263 q 606 302 606 296 q 606 309 606 308 q 604 310 605 310 q 597 300 602 310 q 563 271 584 281 q 530 264 545 264 q 495 277 510 264 q 473 327 473 296 q 475 353 473 332 q 523 404 477 374 l 524 405 q 523 407 524 406 q 519 410 523 408 q 496 435 503 417 q 492 455 492 446 q 501 486 492 471 q 551 518 519 513 l 557 519 q 597 506 582 519 q 608 484 608 497 q 605 468 608 477 l 597 454 q 588 437 591 446 l 582 437 q 562 454 562 437 q 571 486 562 465 l 574 493 q 573 496 574 496 l 572 496 q 568 494 571 496 q 545 467 554 486 q 538 439 538 452 q 555 415 538 421 q 570 413 562 413 q 576 409 574 413 q 578 402 578 406 q 571 391 578 393 q 534 363 549 385 q 526 340 526 352 q 532 320 526 330 q 550 309 537 309 q 622 375 579 309 q 631 380 626 380 l 636 380 q 644 376 640 380 q 647 370 647 372 q 646 366 647 368 q 631 311 632 342 q 632 293 631 300 q 639 281 633 286 q 645 279 642 279 q 650 280 648 279 q 672 292 661 283 q 690 309 682 300 q 702 330 697 318 l 703 332 q 700 337 703 336 q 695 339 696 339 q 690 335 692 339 q 678 330 685 330 q 663 340 667 330 q 662 345 662 342 q 667 357 662 351 l 682 376 q 684 379 684 377 q 681 385 684 384 l 656 406 q 633 459 633 429 q 636 489 633 466 q 667 541 640 511 q 728 570 694 570 q 758 563 741 569 q 786 545 776 557 q 792 531 792 538 q 782 508 792 521 q 772 491 777 500 q 764 473 764 477 q 759 467 763 467 q 745 474 753 467 q 735 486 739 478 q 734 491 734 488 q 759 527 734 505 l 759 528 q 736 516 753 528 q 688 457 702 490 q 682 434 682 446 q 699 402 682 414 l 702 401 q 708 404 706 401 q 815 491 762 460 q 830 495 823 495 q 860 476 847 495 q 871 448 871 459 q 868 442 871 444 q 797 419 836 440 q 732 376 757 398 q 730 370 730 374 l 730 367 q 742 328 742 348 q 724 271 742 300 q 675 239 704 239 m 274 128 q 263 130 268 129 q 258 133 259 132 q 257 137 257 134 q 257 140 257 139 q 258 140 258 140 l 260 140 q 274 136 267 136 q 283 138 279 136 q 286 146 286 140 q 282 153 286 151 q 273 158 278 156 q 263 164 267 161 q 258 175 258 168 q 264 187 258 183 q 277 191 269 191 q 286 190 281 191 q 291 186 291 188 q 292 184 292 185 q 290 180 292 180 l 288 181 q 277 184 283 184 q 267 176 267 184 q 271 168 267 171 q 281 163 275 165 q 290 157 286 161 q 295 146 294 153 q 289 133 294 138 q 274 128 283 128 m 340 129 l 338 129 q 334 130 334 129 q 334 183 334 130 l 316 183 q 315 186 315 183 q 315 190 315 189 q 338 191 315 191 q 360 190 360 191 q 361 186 361 189 q 360 184 361 184 q 342 183 359 183 q 341 130 342 130 q 340 129 341 130 m 410 128 q 393 134 399 128 q 387 151 387 140 l 387 189 q 388 190 387 190 q 391 191 389 191 q 394 190 393 191 q 395 171 395 190 q 396 145 395 148 q 410 136 399 136 q 425 144 421 136 q 425 170 425 148 q 426 190 425 190 q 429 191 427 191 q 433 190 433 191 q 433 152 433 189 q 427 134 433 140 q 410 128 421 128 m 483 130 q 468 130 469 130 q 467 160 467 131 q 468 190 467 189 q 484 191 469 191 q 507 182 499 191 q 514 161 514 174 q 483 130 514 130 m 484 136 q 500 142 495 136 q 505 161 505 148 q 494 182 505 176 q 475 184 490 184 l 475 136 l 484 136 m 549 129 l 547 129 q 544 129 545 129 q 543 160 543 130 q 544 190 543 190 q 547 191 545 191 q 550 190 549 191 q 551 160 551 190 q 551 130 551 130 q 549 129 551 130 m 608 128 q 588 137 594 129 q 581 159 581 144 q 588 183 581 174 q 609 191 595 191 q 629 183 623 191 q 636 161 636 176 q 629 137 636 146 q 608 128 622 129 m 608 136 q 627 160 627 136 q 609 184 627 184 q 594 178 599 184 q 590 160 590 171 q 594 142 590 149 q 608 136 597 136 z "},"Ä":{"ha":661,"x_min":-33,"x_max":745,"o":"m 460 -132 q 393 -115 429 -132 q 353 -37 353 -94 q 443 361 353 101 q 283 340 363 353 q 195 131 230 232 q 155 -42 160 31 q 134 -60 154 -53 q 102 -64 120 -64 q 78 -63 95 -64 q 38 -44 60 -62 q 9 14 16 -26 q 8 28 8 20 q 32 139 8 68 q 104 306 56 210 q 22 281 47 292 l 18 281 q -2 295 8 281 q -19 332 -13 309 q -22 352 -22 342 q -18 373 -22 363 q 41 402 -11 387 q 173 431 94 418 q 431 776 290 631 q 577 850 509 850 q 614 849 578 850 q 688 802 650 848 q 715 730 715 768 q 711 697 715 714 l 696 650 q 640 467 671 570 q 683 461 666 465 q 707 441 703 455 q 710 422 710 432 q 701 385 710 406 l 699 378 q 682 361 694 361 q 669 363 674 361 q 640 369 659 368 q 621 370 629 370 l 611 370 q 521 -91 521 60 q 460 -132 517 -132 m 342 455 q 480 467 414 463 q 527 592 505 536 q 557 672 545 638 q 565 711 565 696 q 549 731 565 731 q 503 697 532 731 q 342 455 425 603 m 690 881 l 688 881 q 652 896 667 881 q 637 931 637 911 l 637 937 q 652 972 637 958 q 688 987 667 987 q 726 972 711 987 q 741 937 741 958 l 741 931 q 726 896 741 911 q 690 881 711 881 m 577 887 l 576 887 q 545 900 557 887 q 532 930 532 913 l 532 935 q 545 966 532 954 q 576 979 557 979 q 608 966 595 979 q 621 935 621 954 l 621 930 q 608 900 621 913 q 577 887 595 887 z "},"Å":{"ha":661,"x_min":-33,"x_max":795,"o":"m 460 -132 q 393 -115 429 -132 q 353 -37 353 -94 q 443 361 353 101 q 283 340 363 353 q 195 131 230 232 q 155 -42 160 31 q 134 -60 154 -53 q 102 -64 120 -64 q 78 -63 95 -64 q 38 -44 60 -62 q 9 14 16 -26 q 8 28 8 20 q 32 139 8 68 q 104 306 56 210 q 22 281 47 292 l 18 281 q -2 295 8 281 q -19 332 -13 309 q -22 352 -22 342 q -18 373 -22 363 q 41 402 -11 387 q 173 431 94 418 q 431 776 290 631 q 577 850 509 850 q 614 849 578 850 q 688 802 650 848 q 715 730 715 768 q 711 697 715 714 l 696 650 q 640 467 671 570 q 683 461 666 465 q 707 441 703 455 q 710 422 710 432 q 701 385 710 406 l 699 378 q 682 361 694 361 q 669 363 674 361 q 640 369 659 368 q 621 370 629 370 l 611 370 q 521 -91 521 60 q 460 -132 517 -132 m 342 455 q 480 467 414 463 q 527 592 505 536 q 557 672 545 638 q 565 711 565 696 q 549 731 565 731 q 503 697 532 731 q 342 455 425 603 m 656 862 q 636 864 646 862 q 576 944 576 884 q 599 1009 576 980 q 660 1039 622 1039 q 682 1037 671 1039 q 741 974 737 1020 l 742 962 q 715 891 742 923 q 656 862 692 862 m 652 913 q 665 924 659 913 q 675 950 672 935 q 679 972 679 962 q 678 983 679 975 q 669 992 677 991 q 647 974 656 992 q 638 935 638 955 q 650 913 638 918 l 652 913 z "},"Æ":{"ha":859,"x_min":-40,"x_max":1005,"o":"m 530 -36 q 408 6 455 -36 q 356 153 356 52 q 383 315 356 232 q 410 396 396 356 q 258 381 333 390 q 174 178 208 275 q 136 10 141 81 q 115 -7 135 -1 q 83 -12 101 -12 q 59 -11 76 -12 q 19 9 41 -9 q -10 66 -3 27 q -11 81 -11 73 q 13 190 -11 120 q 83 355 36 260 q 3 334 26 344 l -1 333 q -21 347 -9 333 q -37 385 -32 361 q -40 406 -40 396 q -37 425 -40 416 q 151 479 -24 450 q 412 829 270 682 q 536 900 477 891 q 564 902 551 902 q 637 882 606 902 q 703 892 671 888 q 916 906 823 906 l 924 906 q 986 884 968 905 q 1005 828 1005 862 q 996 772 1005 800 q 973 728 986 744 q 958 719 965 719 q 951 722 955 719 q 863 744 930 744 q 816 743 857 744 q 684 725 775 742 l 684 722 q 696 691 696 708 q 688 661 696 677 q 617 523 665 625 l 654 524 q 761 515 725 524 q 807 448 807 501 q 790 389 807 412 q 775 380 783 380 q 766 383 770 380 q 610 405 739 405 l 566 404 q 524 282 541 341 q 508 180 508 218 q 562 116 508 116 q 583 116 562 116 q 663 132 603 117 q 714 142 707 142 q 760 111 744 142 q 771 61 771 87 q 766 24 771 50 q 722 -9 762 -1 q 604 -29 667 -17 q 600 -30 602 -29 q 530 -36 562 -36 m 321 502 q 457 515 389 509 l 475 558 l 538 724 q 546 762 546 748 q 530 783 546 783 q 484 749 513 783 q 321 502 404 653 z "},"Ç":{"ha":550,"x_min":1,"x_max":628,"o":"m 124 -33 q 73 14 96 -14 q 2 199 7 90 q 55 470 1 329 q 204 715 109 611 q 421 840 299 820 q 564 817 504 850 q 627 702 624 783 q 613 609 628 665 q 570 496 597 553 q 510 452 545 449 q 452 480 476 454 q 435 530 429 507 q 444 549 438 537 q 478 641 463 583 q 459 717 492 701 q 422 711 445 722 q 318 606 372 685 q 223 429 265 528 q 166 243 182 330 q 170 106 149 135 q 232 98 190 77 q 319 164 273 119 q 399 250 366 209 q 441 261 413 264 q 486 237 469 258 q 486 172 503 215 q 434 77 469 133 q 351 -22 400 21 q 237 -67 301 -66 q 188 -66 207 -66 q 157 -66 168 -66 q 166 -71 161 -69 q 189 -76 178 -73 q 205 -87 199 -80 q 209 -146 222 -113 q 163 -197 197 -178 q 112 -205 144 -207 q 56 -184 81 -203 q 35 -147 35 -166 q 46 -113 35 -128 q 70 -90 57 -97 q 87 -90 83 -83 q 118 -121 100 -110 q 150 -132 136 -132 q 163 -119 164 -132 q 153 -104 165 -111 q 140 -96 146 -100 l 126 -90 q 113 -69 115 -82 q 115 -45 111 -56 q 124 -33 118 -35 z "},"È":{"ha":848,"x_min":23,"x_max":871,"o":"m 247 517 q 232 524 236 517 q 227 578 227 542 q 250 592 229 592 q 273 578 273 592 q 260 526 269 555 q 247 517 257 517 m 625 528 l 622 528 q 603 532 614 528 q 584 543 591 535 q 576 561 576 551 l 577 566 q 595 658 586 606 q 606 739 604 710 q 601 755 606 747 q 597 766 597 760 q 602 774 597 769 q 644 807 616 793 q 702 820 673 820 q 749 799 732 820 q 763 756 763 779 q 749 715 763 733 q 667 665 715 679 q 661 660 661 662 q 689 648 661 652 q 706 646 697 646 q 733 649 717 646 q 767 663 749 651 q 774 667 770 667 l 775 666 q 783 636 783 661 q 768 598 783 605 q 734 593 751 593 q 642 624 682 593 q 638 625 640 625 q 634 620 635 625 q 633 593 633 608 q 635 534 633 568 q 625 528 634 529 m 648 692 q 682 716 656 692 q 709 746 697 730 q 724 778 724 765 q 717 786 724 786 q 690 779 708 786 q 667 768 677 774 q 656 758 657 762 q 648 715 651 734 q 646 694 646 696 q 648 692 646 692 m 113 158 q 102 161 107 158 q 81 178 90 167 q 72 203 72 190 q 90 236 72 220 l 123 258 q 120 261 123 260 q 114 266 117 262 q 111 276 111 269 q 113 313 111 294 l 113 325 q 114 327 113 326 l 114 330 q 111 336 114 336 q 104 333 109 336 q 95 329 100 331 q 53 312 64 312 q 34 330 45 312 q 23 359 23 348 q 33 380 23 370 l 72 419 q 136 484 125 475 q 151 488 142 488 q 176 480 164 488 q 184 464 184 474 q 182 452 182 458 q 172 393 176 422 q 177 389 172 390 q 185 378 185 385 l 184 372 q 167 353 182 362 q 163 348 164 351 q 161 328 163 338 q 159 288 159 308 q 165 281 159 281 q 169 281 168 281 q 198 296 182 290 q 203 302 202 298 q 222 481 221 459 q 236 490 224 488 q 260 485 250 490 q 269 470 269 481 q 262 374 267 427 q 251 245 252 248 q 245 241 250 243 q 237 240 241 240 q 205 256 213 240 q 201 260 204 258 q 195 258 197 260 q 119 164 153 226 q 113 158 117 159 m 68 359 l 72 359 q 87 363 79 361 q 104 368 96 366 q 109 369 106 368 q 114 371 112 370 q 117 376 115 372 q 124 422 119 399 l 125 429 q 109 410 123 429 q 71 362 86 379 q 68 359 68 360 l 68 359 m 524 528 q 506 533 513 528 q 499 549 499 539 q 505 585 499 559 l 505 590 q 504 593 505 593 q 496 585 501 593 q 465 559 484 561 q 445 565 456 559 q 424 579 433 570 q 414 597 415 588 q 417 633 414 616 q 439 755 423 684 l 440 762 q 434 770 440 770 q 427 768 431 770 l 404 758 q 391 751 396 754 q 389 745 389 749 l 389 742 q 398 691 398 723 q 397 667 398 687 q 381 615 397 646 q 328 579 363 579 q 285 595 304 579 q 266 646 266 612 l 266 650 q 287 725 269 688 q 330 779 305 763 q 338 781 334 781 q 346 779 341 781 q 359 774 354 774 q 394 784 373 774 q 435 798 420 798 q 461 791 446 798 q 484 764 477 785 q 484 754 484 761 q 472 683 475 692 l 465 641 q 462 617 462 625 q 467 605 462 605 q 478 613 471 605 q 494 639 486 621 q 528 735 515 688 l 528 737 q 538 773 534 755 q 564 789 543 789 q 577 787 570 789 q 587 774 587 783 q 582 741 587 768 q 568 666 575 709 q 553 557 553 588 q 554 541 553 547 q 545 531 553 535 q 524 528 536 528 m 333 604 q 353 626 345 606 q 365 671 361 646 q 368 706 368 691 q 368 724 368 711 q 360 737 367 736 q 352 734 354 737 q 324 648 338 715 q 322 623 322 633 q 331 604 322 604 l 333 604 m 312 513 l 310 513 q 302 519 306 513 q 298 534 298 525 q 306 549 298 543 q 344 562 319 557 q 385 566 368 566 q 399 563 392 566 q 406 551 406 560 q 399 531 406 535 l 396 530 q 312 513 357 526 m 152 514 q 127 533 136 514 q 77 600 125 553 q 58 621 66 610 q 45 650 50 631 q 43 665 43 657 q 73 728 43 696 q 133 772 95 752 q 248 812 207 812 q 284 793 277 812 q 288 774 288 784 q 276 743 288 755 q 268 738 271 738 q 262 740 265 738 q 242 746 256 746 q 212 741 233 746 q 158 721 191 736 q 104 686 124 705 q 85 651 85 669 q 108 612 85 631 q 134 578 123 602 l 140 610 l 140 612 q 138 619 140 618 q 133 629 133 623 q 148 654 133 644 q 151 658 151 655 q 153 665 152 661 q 163 704 158 691 q 181 713 169 713 q 197 710 190 713 q 203 699 203 706 l 203 697 l 199 678 l 197 670 q 199 667 197 667 l 206 669 q 236 678 224 678 l 243 677 q 252 657 252 674 q 252 650 252 655 q 248 640 251 645 q 243 635 245 635 l 242 635 q 233 636 238 636 q 191 628 218 636 q 174 564 184 626 q 169 523 170 543 q 152 514 168 514 m 309 252 q 289 256 300 252 q 277 271 278 260 q 292 404 282 335 q 301 473 297 439 q 316 492 303 485 q 340 498 328 498 q 352 498 343 498 q 366 484 360 497 q 404 374 382 427 q 410 363 409 363 q 413 378 412 363 q 426 525 420 479 q 429 531 427 528 q 453 539 436 539 q 469 536 460 539 q 481 521 481 532 l 481 518 q 473 463 476 490 q 467 431 471 447 l 461 391 q 454 330 458 355 q 446 274 454 314 l 445 271 q 425 264 440 264 q 402 274 408 264 q 350 422 374 348 q 345 433 347 433 q 342 425 342 433 l 340 353 q 339 317 339 334 q 336 274 338 296 q 309 252 334 252 m 675 239 q 631 250 653 239 q 606 282 606 263 q 606 302 606 296 q 606 309 606 308 q 604 310 605 310 q 597 300 602 310 q 563 271 584 281 q 530 264 545 264 q 495 277 510 264 q 473 327 473 296 q 475 353 473 332 q 523 404 477 374 l 524 405 q 523 407 524 406 q 519 410 523 408 q 496 435 503 417 q 492 455 492 446 q 501 486 492 471 q 551 518 519 513 l 557 519 q 597 506 582 519 q 608 484 608 497 q 605 468 608 477 l 597 454 q 588 437 591 446 l 582 437 q 562 454 562 437 q 571 486 562 465 l 574 493 q 573 496 574 496 l 572 496 q 568 494 571 496 q 545 467 554 486 q 538 439 538 452 q 555 415 538 421 q 570 413 562 413 q 576 409 574 413 q 578 402 578 406 q 571 391 578 393 q 534 363 549 385 q 526 340 526 352 q 532 320 526 330 q 550 309 537 309 q 622 375 579 309 q 631 380 626 380 l 636 380 q 644 376 640 380 q 647 370 647 372 q 646 366 647 368 q 631 311 632 342 q 632 293 631 300 q 639 281 633 286 q 645 279 642 279 q 650 280 648 279 q 672 292 661 283 q 690 309 682 300 q 702 330 697 318 l 703 332 q 700 337 703 336 q 695 339 696 339 q 690 335 692 339 q 678 330 685 330 q 663 340 667 330 q 662 345 662 342 q 667 357 662 351 l 682 376 q 684 379 684 377 q 681 385 684 384 l 656 406 q 633 459 633 429 q 636 489 633 466 q 667 541 640 511 q 728 570 694 570 q 758 563 741 569 q 786 545 776 557 q 792 531 792 538 q 782 508 792 521 q 772 491 777 500 q 764 473 764 477 q 759 467 763 467 q 745 474 753 467 q 735 486 739 478 q 734 491 734 488 q 759 527 734 505 l 759 528 q 736 516 753 528 q 688 457 702 490 q 682 434 682 446 q 699 402 682 414 l 702 401 q 708 404 706 401 q 815 491 762 460 q 830 495 823 495 q 860 476 847 495 q 871 448 871 459 q 868 442 871 444 q 797 419 836 440 q 732 376 757 398 q 730 370 730 374 l 730 367 q 742 328 742 348 q 724 271 742 300 q 675 239 704 239 m 274 128 q 263 130 268 129 q 258 133 259 132 q 257 137 257 134 q 257 140 257 139 q 258 140 258 140 l 260 140 q 274 136 267 136 q 283 138 279 136 q 286 146 286 140 q 282 153 286 151 q 273 158 278 156 q 263 164 267 161 q 258 175 258 168 q 264 187 258 183 q 277 191 269 191 q 286 190 281 191 q 291 186 291 188 q 292 184 292 185 q 290 180 292 180 l 288 181 q 277 184 283 184 q 267 176 267 184 q 271 168 267 171 q 281 163 275 165 q 290 157 286 161 q 295 146 294 153 q 289 133 294 138 q 274 128 283 128 m 340 129 l 338 129 q 334 130 334 129 q 334 183 334 130 l 316 183 q 315 186 315 183 q 315 190 315 189 q 338 191 315 191 q 360 190 360 191 q 361 186 361 189 q 360 184 361 184 q 342 183 359 183 q 341 130 342 130 q 340 129 341 130 m 410 128 q 393 134 399 128 q 387 151 387 140 l 387 189 q 388 190 387 190 q 391 191 389 191 q 394 190 393 191 q 395 171 395 190 q 396 145 395 148 q 410 136 399 136 q 425 144 421 136 q 425 170 425 148 q 426 190 425 190 q 429 191 427 191 q 433 190 433 191 q 433 152 433 189 q 427 134 433 140 q 410 128 421 128 m 483 130 q 468 130 469 130 q 467 160 467 131 q 468 190 467 189 q 484 191 469 191 q 507 182 499 191 q 514 161 514 174 q 483 130 514 130 m 484 136 q 500 142 495 136 q 505 161 505 148 q 494 182 505 176 q 475 184 490 184 l 475 136 l 484 136 m 549 129 l 547 129 q 544 129 545 129 q 543 160 543 130 q 544 190 543 190 q 547 191 545 191 q 550 190 549 191 q 551 160 551 190 q 551 130 551 130 q 549 129 551 130 m 608 128 q 588 137 594 129 q 581 159 581 144 q 588 183 581 174 q 609 191 595 191 q 629 183 623 191 q 636 161 636 176 q 629 137 636 146 q 608 128 622 129 m 608 136 q 627 160 627 136 q 609 184 627 184 q 594 178 599 184 q 590 160 590 171 q 594 142 590 149 q 608 136 597 136 z "},"É":{"ha":848,"x_min":23,"x_max":871,"o":"m 247 517 q 232 524 236 517 q 227 578 227 542 q 250 592 229 592 q 273 578 273 592 q 260 526 269 555 q 247 517 257 517 m 625 528 l 622 528 q 603 532 614 528 q 584 543 591 535 q 576 561 576 551 l 577 566 q 595 658 586 606 q 606 739 604 710 q 601 755 606 747 q 597 766 597 760 q 602 774 597 769 q 644 807 616 793 q 702 820 673 820 q 749 799 732 820 q 763 756 763 779 q 749 715 763 733 q 667 665 715 679 q 661 660 661 662 q 689 648 661 652 q 706 646 697 646 q 733 649 717 646 q 767 663 749 651 q 774 667 770 667 l 775 666 q 783 636 783 661 q 768 598 783 605 q 734 593 751 593 q 642 624 682 593 q 638 625 640 625 q 634 620 635 625 q 633 593 633 608 q 635 534 633 568 q 625 528 634 529 m 648 692 q 682 716 656 692 q 709 746 697 730 q 724 778 724 765 q 717 786 724 786 q 690 779 708 786 q 667 768 677 774 q 656 758 657 762 q 648 715 651 734 q 646 694 646 696 q 648 692 646 692 m 113 158 q 102 161 107 158 q 81 178 90 167 q 72 203 72 190 q 90 236 72 220 l 123 258 q 120 261 123 260 q 114 266 117 262 q 111 276 111 269 q 113 313 111 294 l 113 325 q 114 327 113 326 l 114 330 q 111 336 114 336 q 104 333 109 336 q 95 329 100 331 q 53 312 64 312 q 34 330 45 312 q 23 359 23 348 q 33 380 23 370 l 72 419 q 136 484 125 475 q 151 488 142 488 q 176 480 164 488 q 184 464 184 474 q 182 452 182 458 q 172 393 176 422 q 177 389 172 390 q 185 378 185 385 l 184 372 q 167 353 182 362 q 163 348 164 351 q 161 328 163 338 q 159 288 159 308 q 165 281 159 281 q 169 281 168 281 q 198 296 182 290 q 203 302 202 298 q 222 481 221 459 q 236 490 224 488 q 260 485 250 490 q 269 470 269 481 q 262 374 267 427 q 251 245 252 248 q 245 241 250 243 q 237 240 241 240 q 205 256 213 240 q 201 260 204 258 q 195 258 197 260 q 119 164 153 226 q 113 158 117 159 m 68 359 l 72 359 q 87 363 79 361 q 104 368 96 366 q 109 369 106 368 q 114 371 112 370 q 117 376 115 372 q 124 422 119 399 l 125 429 q 109 410 123 429 q 71 362 86 379 q 68 359 68 360 l 68 359 m 524 528 q 506 533 513 528 q 499 549 499 539 q 505 585 499 559 l 505 590 q 504 593 505 593 q 496 585 501 593 q 465 559 484 561 q 445 565 456 559 q 424 579 433 570 q 414 597 415 588 q 417 633 414 616 q 439 755 423 684 l 440 762 q 434 770 440 770 q 427 768 431 770 l 404 758 q 391 751 396 754 q 389 745 389 749 l 389 742 q 398 691 398 723 q 397 667 398 687 q 381 615 397 646 q 328 579 363 579 q 285 595 304 579 q 266 646 266 612 l 266 650 q 287 725 269 688 q 330 779 305 763 q 338 781 334 781 q 346 779 341 781 q 359 774 354 774 q 394 784 373 774 q 435 798 420 798 q 461 791 446 798 q 484 764 477 785 q 484 754 484 761 q 472 683 475 692 l 465 641 q 462 617 462 625 q 467 605 462 605 q 478 613 471 605 q 494 639 486 621 q 528 735 515 688 l 528 737 q 538 773 534 755 q 564 789 543 789 q 577 787 570 789 q 587 774 587 783 q 582 741 587 768 q 568 666 575 709 q 553 557 553 588 q 554 541 553 547 q 545 531 553 535 q 524 528 536 528 m 333 604 q 353 626 345 606 q 365 671 361 646 q 368 706 368 691 q 368 724 368 711 q 360 737 367 736 q 352 734 354 737 q 324 648 338 715 q 322 623 322 633 q 331 604 322 604 l 333 604 m 312 513 l 310 513 q 302 519 306 513 q 298 534 298 525 q 306 549 298 543 q 344 562 319 557 q 385 566 368 566 q 399 563 392 566 q 406 551 406 560 q 399 531 406 535 l 396 530 q 312 513 357 526 m 152 514 q 127 533 136 514 q 77 600 125 553 q 58 621 66 610 q 45 650 50 631 q 43 665 43 657 q 73 728 43 696 q 133 772 95 752 q 248 812 207 812 q 284 793 277 812 q 288 774 288 784 q 276 743 288 755 q 268 738 271 738 q 262 740 265 738 q 242 746 256 746 q 212 741 233 746 q 158 721 191 736 q 104 686 124 705 q 85 651 85 669 q 108 612 85 631 q 134 578 123 602 l 140 610 l 140 612 q 138 619 140 618 q 133 629 133 623 q 148 654 133 644 q 151 658 151 655 q 153 665 152 661 q 163 704 158 691 q 181 713 169 713 q 197 710 190 713 q 203 699 203 706 l 203 697 l 199 678 l 197 670 q 199 667 197 667 l 206 669 q 236 678 224 678 l 243 677 q 252 657 252 674 q 252 650 252 655 q 248 640 251 645 q 243 635 245 635 l 242 635 q 233 636 238 636 q 191 628 218 636 q 174 564 184 626 q 169 523 170 543 q 152 514 168 514 m 309 252 q 289 256 300 252 q 277 271 278 260 q 292 404 282 335 q 301 473 297 439 q 316 492 303 485 q 340 498 328 498 q 352 498 343 498 q 366 484 360 497 q 404 374 382 427 q 410 363 409 363 q 413 378 412 363 q 426 525 420 479 q 429 531 427 528 q 453 539 436 539 q 469 536 460 539 q 481 521 481 532 l 481 518 q 473 463 476 490 q 467 431 471 447 l 461 391 q 454 330 458 355 q 446 274 454 314 l 445 271 q 425 264 440 264 q 402 274 408 264 q 350 422 374 348 q 345 433 347 433 q 342 425 342 433 l 340 353 q 339 317 339 334 q 336 274 338 296 q 309 252 334 252 m 675 239 q 631 250 653 239 q 606 282 606 263 q 606 302 606 296 q 606 309 606 308 q 604 310 605 310 q 597 300 602 310 q 563 271 584 281 q 530 264 545 264 q 495 277 510 264 q 473 327 473 296 q 475 353 473 332 q 523 404 477 374 l 524 405 q 523 407 524 406 q 519 410 523 408 q 496 435 503 417 q 492 455 492 446 q 501 486 492 471 q 551 518 519 513 l 557 519 q 597 506 582 519 q 608 484 608 497 q 605 468 608 477 l 597 454 q 588 437 591 446 l 582 437 q 562 454 562 437 q 571 486 562 465 l 574 493 q 573 496 574 496 l 572 496 q 568 494 571 496 q 545 467 554 486 q 538 439 538 452 q 555 415 538 421 q 570 413 562 413 q 576 409 574 413 q 578 402 578 406 q 571 391 578 393 q 534 363 549 385 q 526 340 526 352 q 532 320 526 330 q 550 309 537 309 q 622 375 579 309 q 631 380 626 380 l 636 380 q 644 376 640 380 q 647 370 647 372 q 646 366 647 368 q 631 311 632 342 q 632 293 631 300 q 639 281 633 286 q 645 279 642 279 q 650 280 648 279 q 672 292 661 283 q 690 309 682 300 q 702 330 697 318 l 703 332 q 700 337 703 336 q 695 339 696 339 q 690 335 692 339 q 678 330 685 330 q 663 340 667 330 q 662 345 662 342 q 667 357 662 351 l 682 376 q 684 379 684 377 q 681 385 684 384 l 656 406 q 633 459 633 429 q 636 489 633 466 q 667 541 640 511 q 728 570 694 570 q 758 563 741 569 q 786 545 776 557 q 792 531 792 538 q 782 508 792 521 q 772 491 777 500 q 764 473 764 477 q 759 467 763 467 q 745 474 753 467 q 735 486 739 478 q 734 491 734 488 q 759 527 734 505 l 759 528 q 736 516 753 528 q 688 457 702 490 q 682 434 682 446 q 699 402 682 414 l 702 401 q 708 404 706 401 q 815 491 762 460 q 830 495 823 495 q 860 476 847 495 q 871 448 871 459 q 868 442 871 444 q 797 419 836 440 q 732 376 757 398 q 730 370 730 374 l 730 367 q 742 328 742 348 q 724 271 742 300 q 675 239 704 239 m 274 128 q 263 130 268 129 q 258 133 259 132 q 257 137 257 134 q 257 140 257 139 q 258 140 258 140 l 260 140 q 274 136 267 136 q 283 138 279 136 q 286 146 286 140 q 282 153 286 151 q 273 158 278 156 q 263 164 267 161 q 258 175 258 168 q 264 187 258 183 q 277 191 269 191 q 286 190 281 191 q 291 186 291 188 q 292 184 292 185 q 290 180 292 180 l 288 181 q 277 184 283 184 q 267 176 267 184 q 271 168 267 171 q 281 163 275 165 q 290 157 286 161 q 295 146 294 153 q 289 133 294 138 q 274 128 283 128 m 340 129 l 338 129 q 334 130 334 129 q 334 183 334 130 l 316 183 q 315 186 315 183 q 315 190 315 189 q 338 191 315 191 q 360 190 360 191 q 361 186 361 189 q 360 184 361 184 q 342 183 359 183 q 341 130 342 130 q 340 129 341 130 m 410 128 q 393 134 399 128 q 387 151 387 140 l 387 189 q 388 190 387 190 q 391 191 389 191 q 394 190 393 191 q 395 171 395 190 q 396 145 395 148 q 410 136 399 136 q 425 144 421 136 q 425 170 425 148 q 426 190 425 190 q 429 191 427 191 q 433 190 433 191 q 433 152 433 189 q 427 134 433 140 q 410 128 421 128 m 483 130 q 468 130 469 130 q 467 160 467 131 q 468 190 467 189 q 484 191 469 191 q 507 182 499 191 q 514 161 514 174 q 483 130 514 130 m 484 136 q 500 142 495 136 q 505 161 505 148 q 494 182 505 176 q 475 184 490 184 l 475 136 l 484 136 m 549 129 l 547 129 q 544 129 545 129 q 543 160 543 130 q 544 190 543 190 q 547 191 545 191 q 550 190 549 191 q 551 160 551 190 q 551 130 551 130 q 549 129 551 130 m 608 128 q 588 137 594 129 q 581 159 581 144 q 588 183 581 174 q 609 191 595 191 q 629 183 623 191 q 636 161 636 176 q 629 137 636 146 q 608 128 622 129 m 608 136 q 627 160 627 136 q 609 184 627 184 q 594 178 599 184 q 590 160 590 171 q 594 142 590 149 q 608 136 597 136 z "},"Ê":{"ha":848,"x_min":23,"x_max":871,"o":"m 247 517 q 232 524 236 517 q 227 578 227 542 q 250 592 229 592 q 273 578 273 592 q 260 526 269 555 q 247 517 257 517 m 625 528 l 622 528 q 603 532 614 528 q 584 543 591 535 q 576 561 576 551 l 577 566 q 595 658 586 606 q 606 739 604 710 q 601 755 606 747 q 597 766 597 760 q 602 774 597 769 q 644 807 616 793 q 702 820 673 820 q 749 799 732 820 q 763 756 763 779 q 749 715 763 733 q 667 665 715 679 q 661 660 661 662 q 689 648 661 652 q 706 646 697 646 q 733 649 717 646 q 767 663 749 651 q 774 667 770 667 l 775 666 q 783 636 783 661 q 768 598 783 605 q 734 593 751 593 q 642 624 682 593 q 638 625 640 625 q 634 620 635 625 q 633 593 633 608 q 635 534 633 568 q 625 528 634 529 m 648 692 q 682 716 656 692 q 709 746 697 730 q 724 778 724 765 q 717 786 724 786 q 690 779 708 786 q 667 768 677 774 q 656 758 657 762 q 648 715 651 734 q 646 694 646 696 q 648 692 646 692 m 113 158 q 102 161 107 158 q 81 178 90 167 q 72 203 72 190 q 90 236 72 220 l 123 258 q 120 261 123 260 q 114 266 117 262 q 111 276 111 269 q 113 313 111 294 l 113 325 q 114 327 113 326 l 114 330 q 111 336 114 336 q 104 333 109 336 q 95 329 100 331 q 53 312 64 312 q 34 330 45 312 q 23 359 23 348 q 33 380 23 370 l 72 419 q 136 484 125 475 q 151 488 142 488 q 176 480 164 488 q 184 464 184 474 q 182 452 182 458 q 172 393 176 422 q 177 389 172 390 q 185 378 185 385 l 184 372 q 167 353 182 362 q 163 348 164 351 q 161 328 163 338 q 159 288 159 308 q 165 281 159 281 q 169 281 168 281 q 198 296 182 290 q 203 302 202 298 q 222 481 221 459 q 236 490 224 488 q 260 485 250 490 q 269 470 269 481 q 262 374 267 427 q 251 245 252 248 q 245 241 250 243 q 237 240 241 240 q 205 256 213 240 q 201 260 204 258 q 195 258 197 260 q 119 164 153 226 q 113 158 117 159 m 68 359 l 72 359 q 87 363 79 361 q 104 368 96 366 q 109 369 106 368 q 114 371 112 370 q 117 376 115 372 q 124 422 119 399 l 125 429 q 109 410 123 429 q 71 362 86 379 q 68 359 68 360 l 68 359 m 524 528 q 506 533 513 528 q 499 549 499 539 q 505 585 499 559 l 505 590 q 504 593 505 593 q 496 585 501 593 q 465 559 484 561 q 445 565 456 559 q 424 579 433 570 q 414 597 415 588 q 417 633 414 616 q 439 755 423 684 l 440 762 q 434 770 440 770 q 427 768 431 770 l 404 758 q 391 751 396 754 q 389 745 389 749 l 389 742 q 398 691 398 723 q 397 667 398 687 q 381 615 397 646 q 328 579 363 579 q 285 595 304 579 q 266 646 266 612 l 266 650 q 287 725 269 688 q 330 779 305 763 q 338 781 334 781 q 346 779 341 781 q 359 774 354 774 q 394 784 373 774 q 435 798 420 798 q 461 791 446 798 q 484 764 477 785 q 484 754 484 761 q 472 683 475 692 l 465 641 q 462 617 462 625 q 467 605 462 605 q 478 613 471 605 q 494 639 486 621 q 528 735 515 688 l 528 737 q 538 773 534 755 q 564 789 543 789 q 577 787 570 789 q 587 774 587 783 q 582 741 587 768 q 568 666 575 709 q 553 557 553 588 q 554 541 553 547 q 545 531 553 535 q 524 528 536 528 m 333 604 q 353 626 345 606 q 365 671 361 646 q 368 706 368 691 q 368 724 368 711 q 360 737 367 736 q 352 734 354 737 q 324 648 338 715 q 322 623 322 633 q 331 604 322 604 l 333 604 m 312 513 l 310 513 q 302 519 306 513 q 298 534 298 525 q 306 549 298 543 q 344 562 319 557 q 385 566 368 566 q 399 563 392 566 q 406 551 406 560 q 399 531 406 535 l 396 530 q 312 513 357 526 m 152 514 q 127 533 136 514 q 77 600 125 553 q 58 621 66 610 q 45 650 50 631 q 43 665 43 657 q 73 728 43 696 q 133 772 95 752 q 248 812 207 812 q 284 793 277 812 q 288 774 288 784 q 276 743 288 755 q 268 738 271 738 q 262 740 265 738 q 242 746 256 746 q 212 741 233 746 q 158 721 191 736 q 104 686 124 705 q 85 651 85 669 q 108 612 85 631 q 134 578 123 602 l 140 610 l 140 612 q 138 619 140 618 q 133 629 133 623 q 148 654 133 644 q 151 658 151 655 q 153 665 152 661 q 163 704 158 691 q 181 713 169 713 q 197 710 190 713 q 203 699 203 706 l 203 697 l 199 678 l 197 670 q 199 667 197 667 l 206 669 q 236 678 224 678 l 243 677 q 252 657 252 674 q 252 650 252 655 q 248 640 251 645 q 243 635 245 635 l 242 635 q 233 636 238 636 q 191 628 218 636 q 174 564 184 626 q 169 523 170 543 q 152 514 168 514 m 309 252 q 289 256 300 252 q 277 271 278 260 q 292 404 282 335 q 301 473 297 439 q 316 492 303 485 q 340 498 328 498 q 352 498 343 498 q 366 484 360 497 q 404 374 382 427 q 410 363 409 363 q 413 378 412 363 q 426 525 420 479 q 429 531 427 528 q 453 539 436 539 q 469 536 460 539 q 481 521 481 532 l 481 518 q 473 463 476 490 q 467 431 471 447 l 461 391 q 454 330 458 355 q 446 274 454 314 l 445 271 q 425 264 440 264 q 402 274 408 264 q 350 422 374 348 q 345 433 347 433 q 342 425 342 433 l 340 353 q 339 317 339 334 q 336 274 338 296 q 309 252 334 252 m 675 239 q 631 250 653 239 q 606 282 606 263 q 606 302 606 296 q 606 309 606 308 q 604 310 605 310 q 597 300 602 310 q 563 271 584 281 q 530 264 545 264 q 495 277 510 264 q 473 327 473 296 q 475 353 473 332 q 523 404 477 374 l 524 405 q 523 407 524 406 q 519 410 523 408 q 496 435 503 417 q 492 455 492 446 q 501 486 492 471 q 551 518 519 513 l 557 519 q 597 506 582 519 q 608 484 608 497 q 605 468 608 477 l 597 454 q 588 437 591 446 l 582 437 q 562 454 562 437 q 571 486 562 465 l 574 493 q 573 496 574 496 l 572 496 q 568 494 571 496 q 545 467 554 486 q 538 439 538 452 q 555 415 538 421 q 570 413 562 413 q 576 409 574 413 q 578 402 578 406 q 571 391 578 393 q 534 363 549 385 q 526 340 526 352 q 532 320 526 330 q 550 309 537 309 q 622 375 579 309 q 631 380 626 380 l 636 380 q 644 376 640 380 q 647 370 647 372 q 646 366 647 368 q 631 311 632 342 q 632 293 631 300 q 639 281 633 286 q 645 279 642 279 q 650 280 648 279 q 672 292 661 283 q 690 309 682 300 q 702 330 697 318 l 703 332 q 700 337 703 336 q 695 339 696 339 q 690 335 692 339 q 678 330 685 330 q 663 340 667 330 q 662 345 662 342 q 667 357 662 351 l 682 376 q 684 379 684 377 q 681 385 684 384 l 656 406 q 633 459 633 429 q 636 489 633 466 q 667 541 640 511 q 728 570 694 570 q 758 563 741 569 q 786 545 776 557 q 792 531 792 538 q 782 508 792 521 q 772 491 777 500 q 764 473 764 477 q 759 467 763 467 q 745 474 753 467 q 735 486 739 478 q 734 491 734 488 q 759 527 734 505 l 759 528 q 736 516 753 528 q 688 457 702 490 q 682 434 682 446 q 699 402 682 414 l 702 401 q 708 404 706 401 q 815 491 762 460 q 830 495 823 495 q 860 476 847 495 q 871 448 871 459 q 868 442 871 444 q 797 419 836 440 q 732 376 757 398 q 730 370 730 374 l 730 367 q 742 328 742 348 q 724 271 742 300 q 675 239 704 239 m 274 128 q 263 130 268 129 q 258 133 259 132 q 257 137 257 134 q 257 140 257 139 q 258 140 258 140 l 260 140 q 274 136 267 136 q 283 138 279 136 q 286 146 286 140 q 282 153 286 151 q 273 158 278 156 q 263 164 267 161 q 258 175 258 168 q 264 187 258 183 q 277 191 269 191 q 286 190 281 191 q 291 186 291 188 q 292 184 292 185 q 290 180 292 180 l 288 181 q 277 184 283 184 q 267 176 267 184 q 271 168 267 171 q 281 163 275 165 q 290 157 286 161 q 295 146 294 153 q 289 133 294 138 q 274 128 283 128 m 340 129 l 338 129 q 334 130 334 129 q 334 183 334 130 l 316 183 q 315 186 315 183 q 315 190 315 189 q 338 191 315 191 q 360 190 360 191 q 361 186 361 189 q 360 184 361 184 q 342 183 359 183 q 341 130 342 130 q 340 129 341 130 m 410 128 q 393 134 399 128 q 387 151 387 140 l 387 189 q 388 190 387 190 q 391 191 389 191 q 394 190 393 191 q 395 171 395 190 q 396 145 395 148 q 410 136 399 136 q 425 144 421 136 q 425 170 425 148 q 426 190 425 190 q 429 191 427 191 q 433 190 433 191 q 433 152 433 189 q 427 134 433 140 q 410 128 421 128 m 483 130 q 468 130 469 130 q 467 160 467 131 q 468 190 467 189 q 484 191 469 191 q 507 182 499 191 q 514 161 514 174 q 483 130 514 130 m 484 136 q 500 142 495 136 q 505 161 505 148 q 494 182 505 176 q 475 184 490 184 l 475 136 l 484 136 m 549 129 l 547 129 q 544 129 545 129 q 543 160 543 130 q 544 190 543 190 q 547 191 545 191 q 550 190 549 191 q 551 160 551 190 q 551 130 551 130 q 549 129 551 130 m 608 128 q 588 137 594 129 q 581 159 581 144 q 588 183 581 174 q 609 191 595 191 q 629 183 623 191 q 636 161 636 176 q 629 137 636 146 q 608 128 622 129 m 608 136 q 627 160 627 136 q 609 184 627 184 q 594 178 599 184 q 590 160 590 171 q 594 142 590 149 q 608 136 597 136 z "},"Ë":{"ha":848,"x_min":23,"x_max":871,"o":"m 247 517 q 232 524 236 517 q 227 578 227 542 q 250 592 229 592 q 273 578 273 592 q 260 526 269 555 q 247 517 257 517 m 625 528 l 622 528 q 603 532 614 528 q 584 543 591 535 q 576 561 576 551 l 577 566 q 595 658 586 606 q 606 739 604 710 q 601 755 606 747 q 597 766 597 760 q 602 774 597 769 q 644 807 616 793 q 702 820 673 820 q 749 799 732 820 q 763 756 763 779 q 749 715 763 733 q 667 665 715 679 q 661 660 661 662 q 689 648 661 652 q 706 646 697 646 q 733 649 717 646 q 767 663 749 651 q 774 667 770 667 l 775 666 q 783 636 783 661 q 768 598 783 605 q 734 593 751 593 q 642 624 682 593 q 638 625 640 625 q 634 620 635 625 q 633 593 633 608 q 635 534 633 568 q 625 528 634 529 m 648 692 q 682 716 656 692 q 709 746 697 730 q 724 778 724 765 q 717 786 724 786 q 690 779 708 786 q 667 768 677 774 q 656 758 657 762 q 648 715 651 734 q 646 694 646 696 q 648 692 646 692 m 113 158 q 102 161 107 158 q 81 178 90 167 q 72 203 72 190 q 90 236 72 220 l 123 258 q 120 261 123 260 q 114 266 117 262 q 111 276 111 269 q 113 313 111 294 l 113 325 q 114 327 113 326 l 114 330 q 111 336 114 336 q 104 333 109 336 q 95 329 100 331 q 53 312 64 312 q 34 330 45 312 q 23 359 23 348 q 33 380 23 370 l 72 419 q 136 484 125 475 q 151 488 142 488 q 176 480 164 488 q 184 464 184 474 q 182 452 182 458 q 172 393 176 422 q 177 389 172 390 q 185 378 185 385 l 184 372 q 167 353 182 362 q 163 348 164 351 q 161 328 163 338 q 159 288 159 308 q 165 281 159 281 q 169 281 168 281 q 198 296 182 290 q 203 302 202 298 q 222 481 221 459 q 236 490 224 488 q 260 485 250 490 q 269 470 269 481 q 262 374 267 427 q 251 245 252 248 q 245 241 250 243 q 237 240 241 240 q 205 256 213 240 q 201 260 204 258 q 195 258 197 260 q 119 164 153 226 q 113 158 117 159 m 68 359 l 72 359 q 87 363 79 361 q 104 368 96 366 q 109 369 106 368 q 114 371 112 370 q 117 376 115 372 q 124 422 119 399 l 125 429 q 109 410 123 429 q 71 362 86 379 q 68 359 68 360 l 68 359 m 524 528 q 506 533 513 528 q 499 549 499 539 q 505 585 499 559 l 505 590 q 504 593 505 593 q 496 585 501 593 q 465 559 484 561 q 445 565 456 559 q 424 579 433 570 q 414 597 415 588 q 417 633 414 616 q 439 755 423 684 l 440 762 q 434 770 440 770 q 427 768 431 770 l 404 758 q 391 751 396 754 q 389 745 389 749 l 389 742 q 398 691 398 723 q 397 667 398 687 q 381 615 397 646 q 328 579 363 579 q 285 595 304 579 q 266 646 266 612 l 266 650 q 287 725 269 688 q 330 779 305 763 q 338 781 334 781 q 346 779 341 781 q 359 774 354 774 q 394 784 373 774 q 435 798 420 798 q 461 791 446 798 q 484 764 477 785 q 484 754 484 761 q 472 683 475 692 l 465 641 q 462 617 462 625 q 467 605 462 605 q 478 613 471 605 q 494 639 486 621 q 528 735 515 688 l 528 737 q 538 773 534 755 q 564 789 543 789 q 577 787 570 789 q 587 774 587 783 q 582 741 587 768 q 568 666 575 709 q 553 557 553 588 q 554 541 553 547 q 545 531 553 535 q 524 528 536 528 m 333 604 q 353 626 345 606 q 365 671 361 646 q 368 706 368 691 q 368 724 368 711 q 360 737 367 736 q 352 734 354 737 q 324 648 338 715 q 322 623 322 633 q 331 604 322 604 l 333 604 m 312 513 l 310 513 q 302 519 306 513 q 298 534 298 525 q 306 549 298 543 q 344 562 319 557 q 385 566 368 566 q 399 563 392 566 q 406 551 406 560 q 399 531 406 535 l 396 530 q 312 513 357 526 m 152 514 q 127 533 136 514 q 77 600 125 553 q 58 621 66 610 q 45 650 50 631 q 43 665 43 657 q 73 728 43 696 q 133 772 95 752 q 248 812 207 812 q 284 793 277 812 q 288 774 288 784 q 276 743 288 755 q 268 738 271 738 q 262 740 265 738 q 242 746 256 746 q 212 741 233 746 q 158 721 191 736 q 104 686 124 705 q 85 651 85 669 q 108 612 85 631 q 134 578 123 602 l 140 610 l 140 612 q 138 619 140 618 q 133 629 133 623 q 148 654 133 644 q 151 658 151 655 q 153 665 152 661 q 163 704 158 691 q 181 713 169 713 q 197 710 190 713 q 203 699 203 706 l 203 697 l 199 678 l 197 670 q 199 667 197 667 l 206 669 q 236 678 224 678 l 243 677 q 252 657 252 674 q 252 650 252 655 q 248 640 251 645 q 243 635 245 635 l 242 635 q 233 636 238 636 q 191 628 218 636 q 174 564 184 626 q 169 523 170 543 q 152 514 168 514 m 309 252 q 289 256 300 252 q 277 271 278 260 q 292 404 282 335 q 301 473 297 439 q 316 492 303 485 q 340 498 328 498 q 352 498 343 498 q 366 484 360 497 q 404 374 382 427 q 410 363 409 363 q 413 378 412 363 q 426 525 420 479 q 429 531 427 528 q 453 539 436 539 q 469 536 460 539 q 481 521 481 532 l 481 518 q 473 463 476 490 q 467 431 471 447 l 461 391 q 454 330 458 355 q 446 274 454 314 l 445 271 q 425 264 440 264 q 402 274 408 264 q 350 422 374 348 q 345 433 347 433 q 342 425 342 433 l 340 353 q 339 317 339 334 q 336 274 338 296 q 309 252 334 252 m 675 239 q 631 250 653 239 q 606 282 606 263 q 606 302 606 296 q 606 309 606 308 q 604 310 605 310 q 597 300 602 310 q 563 271 584 281 q 530 264 545 264 q 495 277 510 264 q 473 327 473 296 q 475 353 473 332 q 523 404 477 374 l 524 405 q 523 407 524 406 q 519 410 523 408 q 496 435 503 417 q 492 455 492 446 q 501 486 492 471 q 551 518 519 513 l 557 519 q 597 506 582 519 q 608 484 608 497 q 605 468 608 477 l 597 454 q 588 437 591 446 l 582 437 q 562 454 562 437 q 571 486 562 465 l 574 493 q 573 496 574 496 l 572 496 q 568 494 571 496 q 545 467 554 486 q 538 439 538 452 q 555 415 538 421 q 570 413 562 413 q 576 409 574 413 q 578 402 578 406 q 571 391 578 393 q 534 363 549 385 q 526 340 526 352 q 532 320 526 330 q 550 309 537 309 q 622 375 579 309 q 631 380 626 380 l 636 380 q 644 376 640 380 q 647 370 647 372 q 646 366 647 368 q 631 311 632 342 q 632 293 631 300 q 639 281 633 286 q 645 279 642 279 q 650 280 648 279 q 672 292 661 283 q 690 309 682 300 q 702 330 697 318 l 703 332 q 700 337 703 336 q 695 339 696 339 q 690 335 692 339 q 678 330 685 330 q 663 340 667 330 q 662 345 662 342 q 667 357 662 351 l 682 376 q 684 379 684 377 q 681 385 684 384 l 656 406 q 633 459 633 429 q 636 489 633 466 q 667 541 640 511 q 728 570 694 570 q 758 563 741 569 q 786 545 776 557 q 792 531 792 538 q 782 508 792 521 q 772 491 777 500 q 764 473 764 477 q 759 467 763 467 q 745 474 753 467 q 735 486 739 478 q 734 491 734 488 q 759 527 734 505 l 759 528 q 736 516 753 528 q 688 457 702 490 q 682 434 682 446 q 699 402 682 414 l 702 401 q 708 404 706 401 q 815 491 762 460 q 830 495 823 495 q 860 476 847 495 q 871 448 871 459 q 868 442 871 444 q 797 419 836 440 q 732 376 757 398 q 730 370 730 374 l 730 367 q 742 328 742 348 q 724 271 742 300 q 675 239 704 239 m 274 128 q 263 130 268 129 q 258 133 259 132 q 257 137 257 134 q 257 140 257 139 q 258 140 258 140 l 260 140 q 274 136 267 136 q 283 138 279 136 q 286 146 286 140 q 282 153 286 151 q 273 158 278 156 q 263 164 267 161 q 258 175 258 168 q 264 187 258 183 q 277 191 269 191 q 286 190 281 191 q 291 186 291 188 q 292 184 292 185 q 290 180 292 180 l 288 181 q 277 184 283 184 q 267 176 267 184 q 271 168 267 171 q 281 163 275 165 q 290 157 286 161 q 295 146 294 153 q 289 133 294 138 q 274 128 283 128 m 340 129 l 338 129 q 334 130 334 129 q 334 183 334 130 l 316 183 q 315 186 315 183 q 315 190 315 189 q 338 191 315 191 q 360 190 360 191 q 361 186 361 189 q 360 184 361 184 q 342 183 359 183 q 341 130 342 130 q 340 129 341 130 m 410 128 q 393 134 399 128 q 387 151 387 140 l 387 189 q 388 190 387 190 q 391 191 389 191 q 394 190 393 191 q 395 171 395 190 q 396 145 395 148 q 410 136 399 136 q 425 144 421 136 q 425 170 425 148 q 426 190 425 190 q 429 191 427 191 q 433 190 433 191 q 433 152 433 189 q 427 134 433 140 q 410 128 421 128 m 483 130 q 468 130 469 130 q 467 160 467 131 q 468 190 467 189 q 484 191 469 191 q 507 182 499 191 q 514 161 514 174 q 483 130 514 130 m 484 136 q 500 142 495 136 q 505 161 505 148 q 494 182 505 176 q 475 184 490 184 l 475 136 l 484 136 m 549 129 l 547 129 q 544 129 545 129 q 543 160 543 130 q 544 190 543 190 q 547 191 545 191 q 550 190 549 191 q 551 160 551 190 q 551 130 551 130 q 549 129 551 130 m 608 128 q 588 137 594 129 q 581 159 581 144 q 588 183 581 174 q 609 191 595 191 q 629 183 623 191 q 636 161 636 176 q 629 137 636 146 q 608 128 622 129 m 608 136 q 627 160 627 136 q 609 184 627 184 q 594 178 599 184 q 590 160 590 171 q 594 142 590 149 q 608 136 597 136 z "},"Ì":{"ha":393,"x_min":-38,"x_max":542,"o":"m 239 83 q 252 73 239 72 q 295 75 264 74 q 330 73 315 76 q 363 39 359 67 q 355 -17 368 10 q 315 -47 342 -45 q 131 -47 230 -46 q 7 -47 65 -47 q -27 -15 -17 -45 q -29 46 -38 16 q 12 80 -20 77 q 41 80 26 81 q 88 79 71 79 q 106 92 105 79 q 110 127 106 111 q 180 428 136 268 q 265 715 222 581 q 267 721 266 718 q 260 728 268 727 q 238 728 253 729 q 184 723 221 728 q 154 751 161 720 q 149 799 146 781 q 167 829 151 817 q 272 861 191 850 q 359 867 314 866 q 425 868 404 869 q 507 857 477 865 q 532 838 522 853 q 541 797 542 823 q 528 750 539 770 q 489 730 517 729 q 448 732 468 731 q 429 728 433 732 q 421 712 426 724 q 371 562 401 644 q 275 261 318 418 q 239 83 245 154 m 335 884 q 328 886 332 884 l 271 910 q 188 947 216 934 q 164 993 164 962 q 165 1013 164 995 q 190 1048 167 1031 q 205 1053 197 1053 q 250 1027 224 1053 l 348 922 q 354 906 354 914 q 344 887 354 893 q 335 884 340 884 z "},"Í":{"ha":393,"x_min":-38,"x_max":542,"o":"m 239 83 q 252 73 239 72 q 295 75 264 74 q 330 73 315 76 q 363 39 359 67 q 355 -17 368 10 q 315 -47 342 -45 q 131 -47 230 -46 q 7 -47 65 -47 q -27 -15 -17 -45 q -29 46 -38 16 q 12 80 -20 77 q 41 80 26 81 q 88 79 71 79 q 106 92 105 79 q 110 127 106 111 q 180 428 136 268 q 265 715 222 581 q 267 721 266 718 q 260 728 268 727 q 238 728 253 729 q 184 723 221 728 q 154 751 161 720 q 149 799 146 781 q 167 829 151 817 q 272 861 191 850 q 359 867 314 866 q 425 868 404 869 q 507 857 477 865 q 532 838 522 853 q 541 797 542 823 q 528 750 539 770 q 489 730 517 729 q 448 732 468 731 q 429 728 433 732 q 421 712 426 724 q 371 562 401 644 q 275 261 318 418 q 239 83 245 154 m 311 886 q 299 892 304 886 q 294 907 294 898 l 294 913 q 304 926 294 919 l 426 1007 q 468 1022 451 1022 q 490 1013 481 1022 q 504 972 504 996 q 500 944 504 964 q 467 914 496 923 q 334 890 425 905 l 311 886 z "},"Î":{"ha":393,"x_min":-38,"x_max":542,"o":"m 239 83 q 252 73 239 72 q 295 75 264 74 q 330 73 315 76 q 363 39 359 67 q 355 -17 368 10 q 315 -47 342 -45 q 131 -47 230 -46 q 7 -47 65 -47 q -27 -15 -17 -45 q -29 46 -38 16 q 12 80 -20 77 q 41 80 26 81 q 88 79 71 79 q 106 92 105 79 q 110 127 106 111 q 180 428 136 268 q 265 715 222 581 q 267 721 266 718 q 260 728 268 727 q 238 728 253 729 q 184 723 221 728 q 154 751 161 720 q 149 799 146 781 q 167 829 151 817 q 272 861 191 850 q 359 867 314 866 q 425 868 404 869 q 507 857 477 865 q 532 838 522 853 q 541 797 542 823 q 528 750 539 770 q 489 730 517 729 q 448 732 468 731 q 429 728 433 732 q 421 712 426 724 q 371 562 401 644 q 275 261 318 418 q 239 83 245 154 m 418 881 q 402 884 409 881 q 393 912 393 891 q 398 966 393 934 l 401 995 l 391 972 q 362 921 373 936 q 337 905 351 905 q 300 928 315 905 q 295 943 295 936 q 301 956 295 949 q 314 971 307 963 q 356 1018 336 994 q 387 1062 377 1042 q 423 1086 400 1086 q 444 1080 435 1086 q 454 1062 454 1073 l 453 1057 q 452 1029 452 1048 q 455 951 452 983 q 465 909 458 920 q 454 892 465 900 q 418 881 437 881 z "},"Ï":{"ha":393,"x_min":-38,"x_max":542,"o":"m 239 83 q 252 73 239 72 q 295 75 264 74 q 330 73 315 76 q 363 39 359 67 q 355 -17 368 10 q 315 -47 342 -45 q 131 -47 230 -46 q 7 -47 65 -47 q -27 -15 -17 -45 q -29 46 -38 16 q 12 80 -20 77 q 41 80 26 81 q 88 79 71 79 q 106 92 105 79 q 110 127 106 111 q 180 428 136 268 q 265 715 222 581 q 267 721 266 718 q 260 728 268 727 q 238 728 253 729 q 184 723 221 728 q 154 751 161 720 q 149 799 146 781 q 167 829 151 817 q 272 861 191 850 q 359 867 314 866 q 425 868 404 869 q 507 857 477 865 q 532 838 522 853 q 541 797 542 823 q 528 750 539 770 q 489 730 517 729 q 448 732 468 731 q 429 728 433 732 q 421 712 426 724 q 371 562 401 644 q 275 261 318 418 q 239 83 245 154 m 430 884 l 428 884 q 392 899 407 884 q 377 935 377 914 l 377 940 q 392 976 377 961 q 428 990 407 990 q 466 976 451 990 q 480 940 480 961 l 480 935 q 466 899 480 914 q 430 884 451 884 m 317 890 l 315 890 q 284 903 297 890 q 271 934 271 916 l 271 939 q 284 969 271 957 q 316 982 297 982 q 348 969 335 982 q 361 939 361 957 l 361 934 q 348 903 361 916 q 317 890 335 890 z "},"Ð":{"ha":848,"x_min":23,"x_max":871,"o":"m 247 517 q 232 524 236 517 q 227 578 227 542 q 250 592 229 592 q 273 578 273 592 q 260 526 269 555 q 247 517 257 517 m 625 528 l 622 528 q 603 532 614 528 q 584 543 591 535 q 576 561 576 551 l 577 566 q 595 658 586 606 q 606 739 604 710 q 601 755 606 747 q 597 766 597 760 q 602 774 597 769 q 644 807 616 793 q 702 820 673 820 q 749 799 732 820 q 763 756 763 779 q 749 715 763 733 q 667 665 715 679 q 661 660 661 662 q 689 648 661 652 q 706 646 697 646 q 733 649 717 646 q 767 663 749 651 q 774 667 770 667 l 775 666 q 783 636 783 661 q 768 598 783 605 q 734 593 751 593 q 642 624 682 593 q 638 625 640 625 q 634 620 635 625 q 633 593 633 608 q 635 534 633 568 q 625 528 634 529 m 648 692 q 682 716 656 692 q 709 746 697 730 q 724 778 724 765 q 717 786 724 786 q 690 779 708 786 q 667 768 677 774 q 656 758 657 762 q 648 715 651 734 q 646 694 646 696 q 648 692 646 692 m 113 158 q 102 161 107 158 q 81 178 90 167 q 72 203 72 190 q 90 236 72 220 l 123 258 q 120 261 123 260 q 114 266 117 262 q 111 276 111 269 q 113 313 111 294 l 113 325 q 114 327 113 326 l 114 330 q 111 336 114 336 q 104 333 109 336 q 95 329 100 331 q 53 312 64 312 q 34 330 45 312 q 23 359 23 348 q 33 380 23 370 l 72 419 q 136 484 125 475 q 151 488 142 488 q 176 480 164 488 q 184 464 184 474 q 182 452 182 458 q 172 393 176 422 q 177 389 172 390 q 185 378 185 385 l 184 372 q 167 353 182 362 q 163 348 164 351 q 161 328 163 338 q 159 288 159 308 q 165 281 159 281 q 169 281 168 281 q 198 296 182 290 q 203 302 202 298 q 222 481 221 459 q 236 490 224 488 q 260 485 250 490 q 269 470 269 481 q 262 374 267 427 q 251 245 252 248 q 245 241 250 243 q 237 240 241 240 q 205 256 213 240 q 201 260 204 258 q 195 258 197 260 q 119 164 153 226 q 113 158 117 159 m 68 359 l 72 359 q 87 363 79 361 q 104 368 96 366 q 109 369 106 368 q 114 371 112 370 q 117 376 115 372 q 124 422 119 399 l 125 429 q 109 410 123 429 q 71 362 86 379 q 68 359 68 360 l 68 359 m 524 528 q 506 533 513 528 q 499 549 499 539 q 505 585 499 559 l 505 590 q 504 593 505 593 q 496 585 501 593 q 465 559 484 561 q 445 565 456 559 q 424 579 433 570 q 414 597 415 588 q 417 633 414 616 q 439 755 423 684 l 440 762 q 434 770 440 770 q 427 768 431 770 l 404 758 q 391 751 396 754 q 389 745 389 749 l 389 742 q 398 691 398 723 q 397 667 398 687 q 381 615 397 646 q 328 579 363 579 q 285 595 304 579 q 266 646 266 612 l 266 650 q 287 725 269 688 q 330 779 305 763 q 338 781 334 781 q 346 779 341 781 q 359 774 354 774 q 394 784 373 774 q 435 798 420 798 q 461 791 446 798 q 484 764 477 785 q 484 754 484 761 q 472 683 475 692 l 465 641 q 462 617 462 625 q 467 605 462 605 q 478 613 471 605 q 494 639 486 621 q 528 735 515 688 l 528 737 q 538 773 534 755 q 564 789 543 789 q 577 787 570 789 q 587 774 587 783 q 582 741 587 768 q 568 666 575 709 q 553 557 553 588 q 554 541 553 547 q 545 531 553 535 q 524 528 536 528 m 333 604 q 353 626 345 606 q 365 671 361 646 q 368 706 368 691 q 368 724 368 711 q 360 737 367 736 q 352 734 354 737 q 324 648 338 715 q 322 623 322 633 q 331 604 322 604 l 333 604 m 312 513 l 310 513 q 302 519 306 513 q 298 534 298 525 q 306 549 298 543 q 344 562 319 557 q 385 566 368 566 q 399 563 392 566 q 406 551 406 560 q 399 531 406 535 l 396 530 q 312 513 357 526 m 152 514 q 127 533 136 514 q 77 600 125 553 q 58 621 66 610 q 45 650 50 631 q 43 665 43 657 q 73 728 43 696 q 133 772 95 752 q 248 812 207 812 q 284 793 277 812 q 288 774 288 784 q 276 743 288 755 q 268 738 271 738 q 262 740 265 738 q 242 746 256 746 q 212 741 233 746 q 158 721 191 736 q 104 686 124 705 q 85 651 85 669 q 108 612 85 631 q 134 578 123 602 l 140 610 l 140 612 q 138 619 140 618 q 133 629 133 623 q 148 654 133 644 q 151 658 151 655 q 153 665 152 661 q 163 704 158 691 q 181 713 169 713 q 197 710 190 713 q 203 699 203 706 l 203 697 l 199 678 l 197 670 q 199 667 197 667 l 206 669 q 236 678 224 678 l 243 677 q 252 657 252 674 q 252 650 252 655 q 248 640 251 645 q 243 635 245 635 l 242 635 q 233 636 238 636 q 191 628 218 636 q 174 564 184 626 q 169 523 170 543 q 152 514 168 514 m 309 252 q 289 256 300 252 q 277 271 278 260 q 292 404 282 335 q 301 473 297 439 q 316 492 303 485 q 340 498 328 498 q 352 498 343 498 q 366 484 360 497 q 404 374 382 427 q 410 363 409 363 q 413 378 412 363 q 426 525 420 479 q 429 531 427 528 q 453 539 436 539 q 469 536 460 539 q 481 521 481 532 l 481 518 q 473 463 476 490 q 467 431 471 447 l 461 391 q 454 330 458 355 q 446 274 454 314 l 445 271 q 425 264 440 264 q 402 274 408 264 q 350 422 374 348 q 345 433 347 433 q 342 425 342 433 l 340 353 q 339 317 339 334 q 336 274 338 296 q 309 252 334 252 m 675 239 q 631 250 653 239 q 606 282 606 263 q 606 302 606 296 q 606 309 606 308 q 604 310 605 310 q 597 300 602 310 q 563 271 584 281 q 530 264 545 264 q 495 277 510 264 q 473 327 473 296 q 475 353 473 332 q 523 404 477 374 l 524 405 q 523 407 524 406 q 519 410 523 408 q 496 435 503 417 q 492 455 492 446 q 501 486 492 471 q 551 518 519 513 l 557 519 q 597 506 582 519 q 608 484 608 497 q 605 468 608 477 l 597 454 q 588 437 591 446 l 582 437 q 562 454 562 437 q 571 486 562 465 l 574 493 q 573 496 574 496 l 572 496 q 568 494 571 496 q 545 467 554 486 q 538 439 538 452 q 555 415 538 421 q 570 413 562 413 q 576 409 574 413 q 578 402 578 406 q 571 391 578 393 q 534 363 549 385 q 526 340 526 352 q 532 320 526 330 q 550 309 537 309 q 622 375 579 309 q 631 380 626 380 l 636 380 q 644 376 640 380 q 647 370 647 372 q 646 366 647 368 q 631 311 632 342 q 632 293 631 300 q 639 281 633 286 q 645 279 642 279 q 650 280 648 279 q 672 292 661 283 q 690 309 682 300 q 702 330 697 318 l 703 332 q 700 337 703 336 q 695 339 696 339 q 690 335 692 339 q 678 330 685 330 q 663 340 667 330 q 662 345 662 342 q 667 357 662 351 l 682 376 q 684 379 684 377 q 681 385 684 384 l 656 406 q 633 459 633 429 q 636 489 633 466 q 667 541 640 511 q 728 570 694 570 q 758 563 741 569 q 786 545 776 557 q 792 531 792 538 q 782 508 792 521 q 772 491 777 500 q 764 473 764 477 q 759 467 763 467 q 745 474 753 467 q 735 486 739 478 q 734 491 734 488 q 759 527 734 505 l 759 528 q 736 516 753 528 q 688 457 702 490 q 682 434 682 446 q 699 402 682 414 l 702 401 q 708 404 706 401 q 815 491 762 460 q 830 495 823 495 q 860 476 847 495 q 871 448 871 459 q 868 442 871 444 q 797 419 836 440 q 732 376 757 398 q 730 370 730 374 l 730 367 q 742 328 742 348 q 724 271 742 300 q 675 239 704 239 m 274 128 q 263 130 268 129 q 258 133 259 132 q 257 137 257 134 q 257 140 257 139 q 258 140 258 140 l 260 140 q 274 136 267 136 q 283 138 279 136 q 286 146 286 140 q 282 153 286 151 q 273 158 278 156 q 263 164 267 161 q 258 175 258 168 q 264 187 258 183 q 277 191 269 191 q 286 190 281 191 q 291 186 291 188 q 292 184 292 185 q 290 180 292 180 l 288 181 q 277 184 283 184 q 267 176 267 184 q 271 168 267 171 q 281 163 275 165 q 290 157 286 161 q 295 146 294 153 q 289 133 294 138 q 274 128 283 128 m 340 129 l 338 129 q 334 130 334 129 q 334 183 334 130 l 316 183 q 315 186 315 183 q 315 190 315 189 q 338 191 315 191 q 360 190 360 191 q 361 186 361 189 q 360 184 361 184 q 342 183 359 183 q 341 130 342 130 q 340 129 341 130 m 410 128 q 393 134 399 128 q 387 151 387 140 l 387 189 q 388 190 387 190 q 391 191 389 191 q 394 190 393 191 q 395 171 395 190 q 396 145 395 148 q 410 136 399 136 q 425 144 421 136 q 425 170 425 148 q 426 190 425 190 q 429 191 427 191 q 433 190 433 191 q 433 152 433 189 q 427 134 433 140 q 410 128 421 128 m 483 130 q 468 130 469 130 q 467 160 467 131 q 468 190 467 189 q 484 191 469 191 q 507 182 499 191 q 514 161 514 174 q 483 130 514 130 m 484 136 q 500 142 495 136 q 505 161 505 148 q 494 182 505 176 q 475 184 490 184 l 475 136 l 484 136 m 549 129 l 547 129 q 544 129 545 129 q 543 160 543 130 q 544 190 543 190 q 547 191 545 191 q 550 190 549 191 q 551 160 551 190 q 551 130 551 130 q 549 129 551 130 m 608 128 q 588 137 594 129 q 581 159 581 144 q 588 183 581 174 q 609 191 595 191 q 629 183 623 191 q 636 161 636 176 q 629 137 636 146 q 608 128 622 129 m 608 136 q 627 160 627 136 q 609 184 627 184 q 594 178 599 184 q 590 160 590 171 q 594 142 590 149 q 608 136 597 136 z "},"Ñ":{"ha":848,"x_min":23,"x_max":871,"o":"m 247 517 q 232 524 236 517 q 227 578 227 542 q 250 592 229 592 q 273 578 273 592 q 260 526 269 555 q 247 517 257 517 m 625 528 l 622 528 q 603 532 614 528 q 584 543 591 535 q 576 561 576 551 l 577 566 q 595 658 586 606 q 606 739 604 710 q 601 755 606 747 q 597 766 597 760 q 602 774 597 769 q 644 807 616 793 q 702 820 673 820 q 749 799 732 820 q 763 756 763 779 q 749 715 763 733 q 667 665 715 679 q 661 660 661 662 q 689 648 661 652 q 706 646 697 646 q 733 649 717 646 q 767 663 749 651 q 774 667 770 667 l 775 666 q 783 636 783 661 q 768 598 783 605 q 734 593 751 593 q 642 624 682 593 q 638 625 640 625 q 634 620 635 625 q 633 593 633 608 q 635 534 633 568 q 625 528 634 529 m 648 692 q 682 716 656 692 q 709 746 697 730 q 724 778 724 765 q 717 786 724 786 q 690 779 708 786 q 667 768 677 774 q 656 758 657 762 q 648 715 651 734 q 646 694 646 696 q 648 692 646 692 m 113 158 q 102 161 107 158 q 81 178 90 167 q 72 203 72 190 q 90 236 72 220 l 123 258 q 120 261 123 260 q 114 266 117 262 q 111 276 111 269 q 113 313 111 294 l 113 325 q 114 327 113 326 l 114 330 q 111 336 114 336 q 104 333 109 336 q 95 329 100 331 q 53 312 64 312 q 34 330 45 312 q 23 359 23 348 q 33 380 23 370 l 72 419 q 136 484 125 475 q 151 488 142 488 q 176 480 164 488 q 184 464 184 474 q 182 452 182 458 q 172 393 176 422 q 177 389 172 390 q 185 378 185 385 l 184 372 q 167 353 182 362 q 163 348 164 351 q 161 328 163 338 q 159 288 159 308 q 165 281 159 281 q 169 281 168 281 q 198 296 182 290 q 203 302 202 298 q 222 481 221 459 q 236 490 224 488 q 260 485 250 490 q 269 470 269 481 q 262 374 267 427 q 251 245 252 248 q 245 241 250 243 q 237 240 241 240 q 205 256 213 240 q 201 260 204 258 q 195 258 197 260 q 119 164 153 226 q 113 158 117 159 m 68 359 l 72 359 q 87 363 79 361 q 104 368 96 366 q 109 369 106 368 q 114 371 112 370 q 117 376 115 372 q 124 422 119 399 l 125 429 q 109 410 123 429 q 71 362 86 379 q 68 359 68 360 l 68 359 m 524 528 q 506 533 513 528 q 499 549 499 539 q 505 585 499 559 l 505 590 q 504 593 505 593 q 496 585 501 593 q 465 559 484 561 q 445 565 456 559 q 424 579 433 570 q 414 597 415 588 q 417 633 414 616 q 439 755 423 684 l 440 762 q 434 770 440 770 q 427 768 431 770 l 404 758 q 391 751 396 754 q 389 745 389 749 l 389 742 q 398 691 398 723 q 397 667 398 687 q 381 615 397 646 q 328 579 363 579 q 285 595 304 579 q 266 646 266 612 l 266 650 q 287 725 269 688 q 330 779 305 763 q 338 781 334 781 q 346 779 341 781 q 359 774 354 774 q 394 784 373 774 q 435 798 420 798 q 461 791 446 798 q 484 764 477 785 q 484 754 484 761 q 472 683 475 692 l 465 641 q 462 617 462 625 q 467 605 462 605 q 478 613 471 605 q 494 639 486 621 q 528 735 515 688 l 528 737 q 538 773 534 755 q 564 789 543 789 q 577 787 570 789 q 587 774 587 783 q 582 741 587 768 q 568 666 575 709 q 553 557 553 588 q 554 541 553 547 q 545 531 553 535 q 524 528 536 528 m 333 604 q 353 626 345 606 q 365 671 361 646 q 368 706 368 691 q 368 724 368 711 q 360 737 367 736 q 352 734 354 737 q 324 648 338 715 q 322 623 322 633 q 331 604 322 604 l 333 604 m 312 513 l 310 513 q 302 519 306 513 q 298 534 298 525 q 306 549 298 543 q 344 562 319 557 q 385 566 368 566 q 399 563 392 566 q 406 551 406 560 q 399 531 406 535 l 396 530 q 312 513 357 526 m 152 514 q 127 533 136 514 q 77 600 125 553 q 58 621 66 610 q 45 650 50 631 q 43 665 43 657 q 73 728 43 696 q 133 772 95 752 q 248 812 207 812 q 284 793 277 812 q 288 774 288 784 q 276 743 288 755 q 268 738 271 738 q 262 740 265 738 q 242 746 256 746 q 212 741 233 746 q 158 721 191 736 q 104 686 124 705 q 85 651 85 669 q 108 612 85 631 q 134 578 123 602 l 140 610 l 140 612 q 138 619 140 618 q 133 629 133 623 q 148 654 133 644 q 151 658 151 655 q 153 665 152 661 q 163 704 158 691 q 181 713 169 713 q 197 710 190 713 q 203 699 203 706 l 203 697 l 199 678 l 197 670 q 199 667 197 667 l 206 669 q 236 678 224 678 l 243 677 q 252 657 252 674 q 252 650 252 655 q 248 640 251 645 q 243 635 245 635 l 242 635 q 233 636 238 636 q 191 628 218 636 q 174 564 184 626 q 169 523 170 543 q 152 514 168 514 m 309 252 q 289 256 300 252 q 277 271 278 260 q 292 404 282 335 q 301 473 297 439 q 316 492 303 485 q 340 498 328 498 q 352 498 343 498 q 366 484 360 497 q 404 374 382 427 q 410 363 409 363 q 413 378 412 363 q 426 525 420 479 q 429 531 427 528 q 453 539 436 539 q 469 536 460 539 q 481 521 481 532 l 481 518 q 473 463 476 490 q 467 431 471 447 l 461 391 q 454 330 458 355 q 446 274 454 314 l 445 271 q 425 264 440 264 q 402 274 408 264 q 350 422 374 348 q 345 433 347 433 q 342 425 342 433 l 340 353 q 339 317 339 334 q 336 274 338 296 q 309 252 334 252 m 675 239 q 631 250 653 239 q 606 282 606 263 q 606 302 606 296 q 606 309 606 308 q 604 310 605 310 q 597 300 602 310 q 563 271 584 281 q 530 264 545 264 q 495 277 510 264 q 473 327 473 296 q 475 353 473 332 q 523 404 477 374 l 524 405 q 523 407 524 406 q 519 410 523 408 q 496 435 503 417 q 492 455 492 446 q 501 486 492 471 q 551 518 519 513 l 557 519 q 597 506 582 519 q 608 484 608 497 q 605 468 608 477 l 597 454 q 588 437 591 446 l 582 437 q 562 454 562 437 q 571 486 562 465 l 574 493 q 573 496 574 496 l 572 496 q 568 494 571 496 q 545 467 554 486 q 538 439 538 452 q 555 415 538 421 q 570 413 562 413 q 576 409 574 413 q 578 402 578 406 q 571 391 578 393 q 534 363 549 385 q 526 340 526 352 q 532 320 526 330 q 550 309 537 309 q 622 375 579 309 q 631 380 626 380 l 636 380 q 644 376 640 380 q 647 370 647 372 q 646 366 647 368 q 631 311 632 342 q 632 293 631 300 q 639 281 633 286 q 645 279 642 279 q 650 280 648 279 q 672 292 661 283 q 690 309 682 300 q 702 330 697 318 l 703 332 q 700 337 703 336 q 695 339 696 339 q 690 335 692 339 q 678 330 685 330 q 663 340 667 330 q 662 345 662 342 q 667 357 662 351 l 682 376 q 684 379 684 377 q 681 385 684 384 l 656 406 q 633 459 633 429 q 636 489 633 466 q 667 541 640 511 q 728 570 694 570 q 758 563 741 569 q 786 545 776 557 q 792 531 792 538 q 782 508 792 521 q 772 491 777 500 q 764 473 764 477 q 759 467 763 467 q 745 474 753 467 q 735 486 739 478 q 734 491 734 488 q 759 527 734 505 l 759 528 q 736 516 753 528 q 688 457 702 490 q 682 434 682 446 q 699 402 682 414 l 702 401 q 708 404 706 401 q 815 491 762 460 q 830 495 823 495 q 860 476 847 495 q 871 448 871 459 q 868 442 871 444 q 797 419 836 440 q 732 376 757 398 q 730 370 730 374 l 730 367 q 742 328 742 348 q 724 271 742 300 q 675 239 704 239 m 274 128 q 263 130 268 129 q 258 133 259 132 q 257 137 257 134 q 257 140 257 139 q 258 140 258 140 l 260 140 q 274 136 267 136 q 283 138 279 136 q 286 146 286 140 q 282 153 286 151 q 273 158 278 156 q 263 164 267 161 q 258 175 258 168 q 264 187 258 183 q 277 191 269 191 q 286 190 281 191 q 291 186 291 188 q 292 184 292 185 q 290 180 292 180 l 288 181 q 277 184 283 184 q 267 176 267 184 q 271 168 267 171 q 281 163 275 165 q 290 157 286 161 q 295 146 294 153 q 289 133 294 138 q 274 128 283 128 m 340 129 l 338 129 q 334 130 334 129 q 334 183 334 130 l 316 183 q 315 186 315 183 q 315 190 315 189 q 338 191 315 191 q 360 190 360 191 q 361 186 361 189 q 360 184 361 184 q 342 183 359 183 q 341 130 342 130 q 340 129 341 130 m 410 128 q 393 134 399 128 q 387 151 387 140 l 387 189 q 388 190 387 190 q 391 191 389 191 q 394 190 393 191 q 395 171 395 190 q 396 145 395 148 q 410 136 399 136 q 425 144 421 136 q 425 170 425 148 q 426 190 425 190 q 429 191 427 191 q 433 190 433 191 q 433 152 433 189 q 427 134 433 140 q 410 128 421 128 m 483 130 q 468 130 469 130 q 467 160 467 131 q 468 190 467 189 q 484 191 469 191 q 507 182 499 191 q 514 161 514 174 q 483 130 514 130 m 484 136 q 500 142 495 136 q 505 161 505 148 q 494 182 505 176 q 475 184 490 184 l 475 136 l 484 136 m 549 129 l 547 129 q 544 129 545 129 q 543 160 543 130 q 544 190 543 190 q 547 191 545 191 q 550 190 549 191 q 551 160 551 190 q 551 130 551 130 q 549 129 551 130 m 608 128 q 588 137 594 129 q 581 159 581 144 q 588 183 581 174 q 609 191 595 191 q 629 183 623 191 q 636 161 636 176 q 629 137 636 146 q 608 128 622 129 m 608 136 q 627 160 627 136 q 609 184 627 184 q 594 178 599 184 q 590 160 590 171 q 594 142 590 149 q 608 136 597 136 z "},"Ò":{"ha":848,"x_min":23,"x_max":871,"o":"m 247 517 q 232 524 236 517 q 227 578 227 542 q 250 592 229 592 q 273 578 273 592 q 260 526 269 555 q 247 517 257 517 m 625 528 l 622 528 q 603 532 614 528 q 584 543 591 535 q 576 561 576 551 l 577 566 q 595 658 586 606 q 606 739 604 710 q 601 755 606 747 q 597 766 597 760 q 602 774 597 769 q 644 807 616 793 q 702 820 673 820 q 749 799 732 820 q 763 756 763 779 q 749 715 763 733 q 667 665 715 679 q 661 660 661 662 q 689 648 661 652 q 706 646 697 646 q 733 649 717 646 q 767 663 749 651 q 774 667 770 667 l 775 666 q 783 636 783 661 q 768 598 783 605 q 734 593 751 593 q 642 624 682 593 q 638 625 640 625 q 634 620 635 625 q 633 593 633 608 q 635 534 633 568 q 625 528 634 529 m 648 692 q 682 716 656 692 q 709 746 697 730 q 724 778 724 765 q 717 786 724 786 q 690 779 708 786 q 667 768 677 774 q 656 758 657 762 q 648 715 651 734 q 646 694 646 696 q 648 692 646 692 m 113 158 q 102 161 107 158 q 81 178 90 167 q 72 203 72 190 q 90 236 72 220 l 123 258 q 120 261 123 260 q 114 266 117 262 q 111 276 111 269 q 113 313 111 294 l 113 325 q 114 327 113 326 l 114 330 q 111 336 114 336 q 104 333 109 336 q 95 329 100 331 q 53 312 64 312 q 34 330 45 312 q 23 359 23 348 q 33 380 23 370 l 72 419 q 136 484 125 475 q 151 488 142 488 q 176 480 164 488 q 184 464 184 474 q 182 452 182 458 q 172 393 176 422 q 177 389 172 390 q 185 378 185 385 l 184 372 q 167 353 182 362 q 163 348 164 351 q 161 328 163 338 q 159 288 159 308 q 165 281 159 281 q 169 281 168 281 q 198 296 182 290 q 203 302 202 298 q 222 481 221 459 q 236 490 224 488 q 260 485 250 490 q 269 470 269 481 q 262 374 267 427 q 251 245 252 248 q 245 241 250 243 q 237 240 241 240 q 205 256 213 240 q 201 260 204 258 q 195 258 197 260 q 119 164 153 226 q 113 158 117 159 m 68 359 l 72 359 q 87 363 79 361 q 104 368 96 366 q 109 369 106 368 q 114 371 112 370 q 117 376 115 372 q 124 422 119 399 l 125 429 q 109 410 123 429 q 71 362 86 379 q 68 359 68 360 l 68 359 m 524 528 q 506 533 513 528 q 499 549 499 539 q 505 585 499 559 l 505 590 q 504 593 505 593 q 496 585 501 593 q 465 559 484 561 q 445 565 456 559 q 424 579 433 570 q 414 597 415 588 q 417 633 414 616 q 439 755 423 684 l 440 762 q 434 770 440 770 q 427 768 431 770 l 404 758 q 391 751 396 754 q 389 745 389 749 l 389 742 q 398 691 398 723 q 397 667 398 687 q 381 615 397 646 q 328 579 363 579 q 285 595 304 579 q 266 646 266 612 l 266 650 q 287 725 269 688 q 330 779 305 763 q 338 781 334 781 q 346 779 341 781 q 359 774 354 774 q 394 784 373 774 q 435 798 420 798 q 461 791 446 798 q 484 764 477 785 q 484 754 484 761 q 472 683 475 692 l 465 641 q 462 617 462 625 q 467 605 462 605 q 478 613 471 605 q 494 639 486 621 q 528 735 515 688 l 528 737 q 538 773 534 755 q 564 789 543 789 q 577 787 570 789 q 587 774 587 783 q 582 741 587 768 q 568 666 575 709 q 553 557 553 588 q 554 541 553 547 q 545 531 553 535 q 524 528 536 528 m 333 604 q 353 626 345 606 q 365 671 361 646 q 368 706 368 691 q 368 724 368 711 q 360 737 367 736 q 352 734 354 737 q 324 648 338 715 q 322 623 322 633 q 331 604 322 604 l 333 604 m 312 513 l 310 513 q 302 519 306 513 q 298 534 298 525 q 306 549 298 543 q 344 562 319 557 q 385 566 368 566 q 399 563 392 566 q 406 551 406 560 q 399 531 406 535 l 396 530 q 312 513 357 526 m 152 514 q 127 533 136 514 q 77 600 125 553 q 58 621 66 610 q 45 650 50 631 q 43 665 43 657 q 73 728 43 696 q 133 772 95 752 q 248 812 207 812 q 284 793 277 812 q 288 774 288 784 q 276 743 288 755 q 268 738 271 738 q 262 740 265 738 q 242 746 256 746 q 212 741 233 746 q 158 721 191 736 q 104 686 124 705 q 85 651 85 669 q 108 612 85 631 q 134 578 123 602 l 140 610 l 140 612 q 138 619 140 618 q 133 629 133 623 q 148 654 133 644 q 151 658 151 655 q 153 665 152 661 q 163 704 158 691 q 181 713 169 713 q 197 710 190 713 q 203 699 203 706 l 203 697 l 199 678 l 197 670 q 199 667 197 667 l 206 669 q 236 678 224 678 l 243 677 q 252 657 252 674 q 252 650 252 655 q 248 640 251 645 q 243 635 245 635 l 242 635 q 233 636 238 636 q 191 628 218 636 q 174 564 184 626 q 169 523 170 543 q 152 514 168 514 m 309 252 q 289 256 300 252 q 277 271 278 260 q 292 404 282 335 q 301 473 297 439 q 316 492 303 485 q 340 498 328 498 q 352 498 343 498 q 366 484 360 497 q 404 374 382 427 q 410 363 409 363 q 413 378 412 363 q 426 525 420 479 q 429 531 427 528 q 453 539 436 539 q 469 536 460 539 q 481 521 481 532 l 481 518 q 473 463 476 490 q 467 431 471 447 l 461 391 q 454 330 458 355 q 446 274 454 314 l 445 271 q 425 264 440 264 q 402 274 408 264 q 350 422 374 348 q 345 433 347 433 q 342 425 342 433 l 340 353 q 339 317 339 334 q 336 274 338 296 q 309 252 334 252 m 675 239 q 631 250 653 239 q 606 282 606 263 q 606 302 606 296 q 606 309 606 308 q 604 310 605 310 q 597 300 602 310 q 563 271 584 281 q 530 264 545 264 q 495 277 510 264 q 473 327 473 296 q 475 353 473 332 q 523 404 477 374 l 524 405 q 523 407 524 406 q 519 410 523 408 q 496 435 503 417 q 492 455 492 446 q 501 486 492 471 q 551 518 519 513 l 557 519 q 597 506 582 519 q 608 484 608 497 q 605 468 608 477 l 597 454 q 588 437 591 446 l 582 437 q 562 454 562 437 q 571 486 562 465 l 574 493 q 573 496 574 496 l 572 496 q 568 494 571 496 q 545 467 554 486 q 538 439 538 452 q 555 415 538 421 q 570 413 562 413 q 576 409 574 413 q 578 402 578 406 q 571 391 578 393 q 534 363 549 385 q 526 340 526 352 q 532 320 526 330 q 550 309 537 309 q 622 375 579 309 q 631 380 626 380 l 636 380 q 644 376 640 380 q 647 370 647 372 q 646 366 647 368 q 631 311 632 342 q 632 293 631 300 q 639 281 633 286 q 645 279 642 279 q 650 280 648 279 q 672 292 661 283 q 690 309 682 300 q 702 330 697 318 l 703 332 q 700 337 703 336 q 695 339 696 339 q 690 335 692 339 q 678 330 685 330 q 663 340 667 330 q 662 345 662 342 q 667 357 662 351 l 682 376 q 684 379 684 377 q 681 385 684 384 l 656 406 q 633 459 633 429 q 636 489 633 466 q 667 541 640 511 q 728 570 694 570 q 758 563 741 569 q 786 545 776 557 q 792 531 792 538 q 782 508 792 521 q 772 491 777 500 q 764 473 764 477 q 759 467 763 467 q 745 474 753 467 q 735 486 739 478 q 734 491 734 488 q 759 527 734 505 l 759 528 q 736 516 753 528 q 688 457 702 490 q 682 434 682 446 q 699 402 682 414 l 702 401 q 708 404 706 401 q 815 491 762 460 q 830 495 823 495 q 860 476 847 495 q 871 448 871 459 q 868 442 871 444 q 797 419 836 440 q 732 376 757 398 q 730 370 730 374 l 730 367 q 742 328 742 348 q 724 271 742 300 q 675 239 704 239 m 274 128 q 263 130 268 129 q 258 133 259 132 q 257 137 257 134 q 257 140 257 139 q 258 140 258 140 l 260 140 q 274 136 267 136 q 283 138 279 136 q 286 146 286 140 q 282 153 286 151 q 273 158 278 156 q 263 164 267 161 q 258 175 258 168 q 264 187 258 183 q 277 191 269 191 q 286 190 281 191 q 291 186 291 188 q 292 184 292 185 q 290 180 292 180 l 288 181 q 277 184 283 184 q 267 176 267 184 q 271 168 267 171 q 281 163 275 165 q 290 157 286 161 q 295 146 294 153 q 289 133 294 138 q 274 128 283 128 m 340 129 l 338 129 q 334 130 334 129 q 334 183 334 130 l 316 183 q 315 186 315 183 q 315 190 315 189 q 338 191 315 191 q 360 190 360 191 q 361 186 361 189 q 360 184 361 184 q 342 183 359 183 q 341 130 342 130 q 340 129 341 130 m 410 128 q 393 134 399 128 q 387 151 387 140 l 387 189 q 388 190 387 190 q 391 191 389 191 q 394 190 393 191 q 395 171 395 190 q 396 145 395 148 q 410 136 399 136 q 425 144 421 136 q 425 170 425 148 q 426 190 425 190 q 429 191 427 191 q 433 190 433 191 q 433 152 433 189 q 427 134 433 140 q 410 128 421 128 m 483 130 q 468 130 469 130 q 467 160 467 131 q 468 190 467 189 q 484 191 469 191 q 507 182 499 191 q 514 161 514 174 q 483 130 514 130 m 484 136 q 500 142 495 136 q 505 161 505 148 q 494 182 505 176 q 475 184 490 184 l 475 136 l 484 136 m 549 129 l 547 129 q 544 129 545 129 q 543 160 543 130 q 544 190 543 190 q 547 191 545 191 q 550 190 549 191 q 551 160 551 190 q 551 130 551 130 q 549 129 551 130 m 608 128 q 588 137 594 129 q 581 159 581 144 q 588 183 581 174 q 609 191 595 191 q 629 183 623 191 q 636 161 636 176 q 629 137 636 146 q 608 128 622 129 m 608 136 q 627 160 627 136 q 609 184 627 184 q 594 178 599 184 q 590 160 590 171 q 594 142 590 149 q 608 136 597 136 z "},"Ó":{"ha":848,"x_min":23,"x_max":871,"o":"m 247 517 q 232 524 236 517 q 227 578 227 542 q 250 592 229 592 q 273 578 273 592 q 260 526 269 555 q 247 517 257 517 m 625 528 l 622 528 q 603 532 614 528 q 584 543 591 535 q 576 561 576 551 l 577 566 q 595 658 586 606 q 606 739 604 710 q 601 755 606 747 q 597 766 597 760 q 602 774 597 769 q 644 807 616 793 q 702 820 673 820 q 749 799 732 820 q 763 756 763 779 q 749 715 763 733 q 667 665 715 679 q 661 660 661 662 q 689 648 661 652 q 706 646 697 646 q 733 649 717 646 q 767 663 749 651 q 774 667 770 667 l 775 666 q 783 636 783 661 q 768 598 783 605 q 734 593 751 593 q 642 624 682 593 q 638 625 640 625 q 634 620 635 625 q 633 593 633 608 q 635 534 633 568 q 625 528 634 529 m 648 692 q 682 716 656 692 q 709 746 697 730 q 724 778 724 765 q 717 786 724 786 q 690 779 708 786 q 667 768 677 774 q 656 758 657 762 q 648 715 651 734 q 646 694 646 696 q 648 692 646 692 m 113 158 q 102 161 107 158 q 81 178 90 167 q 72 203 72 190 q 90 236 72 220 l 123 258 q 120 261 123 260 q 114 266 117 262 q 111 276 111 269 q 113 313 111 294 l 113 325 q 114 327 113 326 l 114 330 q 111 336 114 336 q 104 333 109 336 q 95 329 100 331 q 53 312 64 312 q 34 330 45 312 q 23 359 23 348 q 33 380 23 370 l 72 419 q 136 484 125 475 q 151 488 142 488 q 176 480 164 488 q 184 464 184 474 q 182 452 182 458 q 172 393 176 422 q 177 389 172 390 q 185 378 185 385 l 184 372 q 167 353 182 362 q 163 348 164 351 q 161 328 163 338 q 159 288 159 308 q 165 281 159 281 q 169 281 168 281 q 198 296 182 290 q 203 302 202 298 q 222 481 221 459 q 236 490 224 488 q 260 485 250 490 q 269 470 269 481 q 262 374 267 427 q 251 245 252 248 q 245 241 250 243 q 237 240 241 240 q 205 256 213 240 q 201 260 204 258 q 195 258 197 260 q 119 164 153 226 q 113 158 117 159 m 68 359 l 72 359 q 87 363 79 361 q 104 368 96 366 q 109 369 106 368 q 114 371 112 370 q 117 376 115 372 q 124 422 119 399 l 125 429 q 109 410 123 429 q 71 362 86 379 q 68 359 68 360 l 68 359 m 524 528 q 506 533 513 528 q 499 549 499 539 q 505 585 499 559 l 505 590 q 504 593 505 593 q 496 585 501 593 q 465 559 484 561 q 445 565 456 559 q 424 579 433 570 q 414 597 415 588 q 417 633 414 616 q 439 755 423 684 l 440 762 q 434 770 440 770 q 427 768 431 770 l 404 758 q 391 751 396 754 q 389 745 389 749 l 389 742 q 398 691 398 723 q 397 667 398 687 q 381 615 397 646 q 328 579 363 579 q 285 595 304 579 q 266 646 266 612 l 266 650 q 287 725 269 688 q 330 779 305 763 q 338 781 334 781 q 346 779 341 781 q 359 774 354 774 q 394 784 373 774 q 435 798 420 798 q 461 791 446 798 q 484 764 477 785 q 484 754 484 761 q 472 683 475 692 l 465 641 q 462 617 462 625 q 467 605 462 605 q 478 613 471 605 q 494 639 486 621 q 528 735 515 688 l 528 737 q 538 773 534 755 q 564 789 543 789 q 577 787 570 789 q 587 774 587 783 q 582 741 587 768 q 568 666 575 709 q 553 557 553 588 q 554 541 553 547 q 545 531 553 535 q 524 528 536 528 m 333 604 q 353 626 345 606 q 365 671 361 646 q 368 706 368 691 q 368 724 368 711 q 360 737 367 736 q 352 734 354 737 q 324 648 338 715 q 322 623 322 633 q 331 604 322 604 l 333 604 m 312 513 l 310 513 q 302 519 306 513 q 298 534 298 525 q 306 549 298 543 q 344 562 319 557 q 385 566 368 566 q 399 563 392 566 q 406 551 406 560 q 399 531 406 535 l 396 530 q 312 513 357 526 m 152 514 q 127 533 136 514 q 77 600 125 553 q 58 621 66 610 q 45 650 50 631 q 43 665 43 657 q 73 728 43 696 q 133 772 95 752 q 248 812 207 812 q 284 793 277 812 q 288 774 288 784 q 276 743 288 755 q 268 738 271 738 q 262 740 265 738 q 242 746 256 746 q 212 741 233 746 q 158 721 191 736 q 104 686 124 705 q 85 651 85 669 q 108 612 85 631 q 134 578 123 602 l 140 610 l 140 612 q 138 619 140 618 q 133 629 133 623 q 148 654 133 644 q 151 658 151 655 q 153 665 152 661 q 163 704 158 691 q 181 713 169 713 q 197 710 190 713 q 203 699 203 706 l 203 697 l 199 678 l 197 670 q 199 667 197 667 l 206 669 q 236 678 224 678 l 243 677 q 252 657 252 674 q 252 650 252 655 q 248 640 251 645 q 243 635 245 635 l 242 635 q 233 636 238 636 q 191 628 218 636 q 174 564 184 626 q 169 523 170 543 q 152 514 168 514 m 309 252 q 289 256 300 252 q 277 271 278 260 q 292 404 282 335 q 301 473 297 439 q 316 492 303 485 q 340 498 328 498 q 352 498 343 498 q 366 484 360 497 q 404 374 382 427 q 410 363 409 363 q 413 378 412 363 q 426 525 420 479 q 429 531 427 528 q 453 539 436 539 q 469 536 460 539 q 481 521 481 532 l 481 518 q 473 463 476 490 q 467 431 471 447 l 461 391 q 454 330 458 355 q 446 274 454 314 l 445 271 q 425 264 440 264 q 402 274 408 264 q 350 422 374 348 q 345 433 347 433 q 342 425 342 433 l 340 353 q 339 317 339 334 q 336 274 338 296 q 309 252 334 252 m 675 239 q 631 250 653 239 q 606 282 606 263 q 606 302 606 296 q 606 309 606 308 q 604 310 605 310 q 597 300 602 310 q 563 271 584 281 q 530 264 545 264 q 495 277 510 264 q 473 327 473 296 q 475 353 473 332 q 523 404 477 374 l 524 405 q 523 407 524 406 q 519 410 523 408 q 496 435 503 417 q 492 455 492 446 q 501 486 492 471 q 551 518 519 513 l 557 519 q 597 506 582 519 q 608 484 608 497 q 605 468 608 477 l 597 454 q 588 437 591 446 l 582 437 q 562 454 562 437 q 571 486 562 465 l 574 493 q 573 496 574 496 l 572 496 q 568 494 571 496 q 545 467 554 486 q 538 439 538 452 q 555 415 538 421 q 570 413 562 413 q 576 409 574 413 q 578 402 578 406 q 571 391 578 393 q 534 363 549 385 q 526 340 526 352 q 532 320 526 330 q 550 309 537 309 q 622 375 579 309 q 631 380 626 380 l 636 380 q 644 376 640 380 q 647 370 647 372 q 646 366 647 368 q 631 311 632 342 q 632 293 631 300 q 639 281 633 286 q 645 279 642 279 q 650 280 648 279 q 672 292 661 283 q 690 309 682 300 q 702 330 697 318 l 703 332 q 700 337 703 336 q 695 339 696 339 q 690 335 692 339 q 678 330 685 330 q 663 340 667 330 q 662 345 662 342 q 667 357 662 351 l 682 376 q 684 379 684 377 q 681 385 684 384 l 656 406 q 633 459 633 429 q 636 489 633 466 q 667 541 640 511 q 728 570 694 570 q 758 563 741 569 q 786 545 776 557 q 792 531 792 538 q 782 508 792 521 q 772 491 777 500 q 764 473 764 477 q 759 467 763 467 q 745 474 753 467 q 735 486 739 478 q 734 491 734 488 q 759 527 734 505 l 759 528 q 736 516 753 528 q 688 457 702 490 q 682 434 682 446 q 699 402 682 414 l 702 401 q 708 404 706 401 q 815 491 762 460 q 830 495 823 495 q 860 476 847 495 q 871 448 871 459 q 868 442 871 444 q 797 419 836 440 q 732 376 757 398 q 730 370 730 374 l 730 367 q 742 328 742 348 q 724 271 742 300 q 675 239 704 239 m 274 128 q 263 130 268 129 q 258 133 259 132 q 257 137 257 134 q 257 140 257 139 q 258 140 258 140 l 260 140 q 274 136 267 136 q 283 138 279 136 q 286 146 286 140 q 282 153 286 151 q 273 158 278 156 q 263 164 267 161 q 258 175 258 168 q 264 187 258 183 q 277 191 269 191 q 286 190 281 191 q 291 186 291 188 q 292 184 292 185 q 290 180 292 180 l 288 181 q 277 184 283 184 q 267 176 267 184 q 271 168 267 171 q 281 163 275 165 q 290 157 286 161 q 295 146 294 153 q 289 133 294 138 q 274 128 283 128 m 340 129 l 338 129 q 334 130 334 129 q 334 183 334 130 l 316 183 q 315 186 315 183 q 315 190 315 189 q 338 191 315 191 q 360 190 360 191 q 361 186 361 189 q 360 184 361 184 q 342 183 359 183 q 341 130 342 130 q 340 129 341 130 m 410 128 q 393 134 399 128 q 387 151 387 140 l 387 189 q 388 190 387 190 q 391 191 389 191 q 394 190 393 191 q 395 171 395 190 q 396 145 395 148 q 410 136 399 136 q 425 144 421 136 q 425 170 425 148 q 426 190 425 190 q 429 191 427 191 q 433 190 433 191 q 433 152 433 189 q 427 134 433 140 q 410 128 421 128 m 483 130 q 468 130 469 130 q 467 160 467 131 q 468 190 467 189 q 484 191 469 191 q 507 182 499 191 q 514 161 514 174 q 483 130 514 130 m 484 136 q 500 142 495 136 q 505 161 505 148 q 494 182 505 176 q 475 184 490 184 l 475 136 l 484 136 m 549 129 l 547 129 q 544 129 545 129 q 543 160 543 130 q 544 190 543 190 q 547 191 545 191 q 550 190 549 191 q 551 160 551 190 q 551 130 551 130 q 549 129 551 130 m 608 128 q 588 137 594 129 q 581 159 581 144 q 588 183 581 174 q 609 191 595 191 q 629 183 623 191 q 636 161 636 176 q 629 137 636 146 q 608 128 622 129 m 608 136 q 627 160 627 136 q 609 184 627 184 q 594 178 599 184 q 590 160 590 171 q 594 142 590 149 q 608 136 597 136 z "},"Ô":{"ha":585,"x_min":-84,"x_max":722,"o":"m 237 -56 q 146 -40 207 -56 q 27 66 85 -24 q -7 210 -7 126 q -4 280 -7 222 q 38 447 0 338 q 131 647 77 555 q 239 787 184 739 q 368 842 298 842 q 420 831 406 842 q 440 806 435 820 q 463 780 450 789 q 492 765 476 771 q 581 654 560 734 q 595 545 595 604 q 586 438 595 509 q 542 265 577 368 q 460 85 506 162 q 368 -20 414 7 q 237 -56 301 -56 m 235 104 q 274 114 245 104 q 352 223 304 124 q 416 387 387 298 q 456 597 456 513 q 404 688 456 688 q 283 583 348 688 q 178 302 212 457 q 170 219 170 256 q 184 143 170 172 q 235 104 203 104 m 446 850 q 431 854 437 850 q 422 882 422 861 q 427 935 422 903 l 430 964 l 420 942 q 391 890 401 905 q 366 875 380 875 q 329 897 344 875 q 323 912 323 905 q 329 926 323 919 q 342 941 335 932 q 385 988 364 964 q 416 1031 406 1012 q 452 1056 429 1056 q 473 1049 463 1056 q 482 1031 482 1042 l 481 1027 q 480 998 480 1018 q 483 921 480 953 q 493 879 486 889 q 482 862 493 869 q 446 850 466 850 z "},"Õ":{"ha":585,"x_min":-84,"x_max":722,"o":"m 237 -56 q 146 -40 207 -56 q 27 66 85 -24 q -7 210 -7 126 q -4 280 -7 222 q 38 447 0 338 q 131 647 77 555 q 239 787 184 739 q 368 842 298 842 q 420 831 406 842 q 440 806 435 820 q 463 780 450 789 q 492 765 476 771 q 581 654 560 734 q 595 545 595 604 q 586 438 595 509 q 542 265 577 368 q 460 85 506 162 q 368 -20 414 7 q 237 -56 301 -56 m 235 104 q 274 114 245 104 q 352 223 304 124 q 416 387 387 298 q 456 597 456 513 q 404 688 456 688 q 283 583 348 688 q 178 302 212 457 q 170 219 170 256 q 184 143 170 172 q 235 104 203 104 m 466 858 l 464 858 q 407 882 435 863 q 359 903 374 903 q 348 901 353 903 q 338 898 342 898 q 330 909 330 898 q 333 924 330 916 q 376 962 351 962 q 391 962 377 962 q 434 945 405 961 q 487 927 469 927 q 510 935 499 927 q 517 937 515 937 q 523 927 523 937 q 517 901 523 918 q 497 871 511 885 q 466 858 484 858 z "},"Ö":{"ha":585,"x_min":-84,"x_max":722,"o":"m 237 -56 q 146 -40 207 -56 q 27 66 85 -24 q -7 210 -7 126 q -4 280 -7 222 q 38 447 0 338 q 131 647 77 555 q 239 787 184 739 q 368 842 298 842 q 420 831 406 842 q 440 806 435 820 q 463 780 450 789 q 492 765 476 771 q 581 654 560 734 q 595 545 595 604 q 586 438 595 509 q 542 265 577 368 q 460 85 506 162 q 368 -20 414 7 q 237 -56 301 -56 m 235 104 q 274 114 245 104 q 352 223 304 124 q 416 387 387 298 q 456 597 456 513 q 404 688 456 688 q 283 583 348 688 q 178 302 212 457 q 170 219 170 256 q 184 143 170 172 q 235 104 203 104 m 458 869 l 456 869 q 420 884 435 869 q 405 920 405 899 l 405 925 q 420 961 405 946 q 456 975 435 975 q 493 961 479 975 q 508 925 508 946 l 508 920 q 493 884 508 899 q 458 869 479 869 m 345 876 l 343 876 q 312 888 325 876 q 299 919 299 901 l 299 924 q 312 955 299 942 q 344 967 325 967 q 376 955 363 967 q 389 924 389 942 l 389 919 q 376 888 389 901 q 345 876 363 876 z "},"×":{"ha":444,"x_min":-33,"x_max":441,"o":"m 28 -3 q 2 5 20 -3 q -26 37 -15 13 q -33 62 -33 51 q -28 79 -33 71 q 45 172 9 128 q 111 256 78 212 q 119 279 119 266 q 106 328 119 293 q 79 429 87 394 l 73 452 q 66 497 66 477 q 74 535 66 515 q 103 564 82 555 q 132 571 118 571 q 150 568 138 571 q 169 552 163 566 q 185 485 179 522 q 208 404 193 438 q 219 393 213 393 q 229 399 224 393 l 268 455 q 330 541 308 514 q 385 571 355 571 q 400 570 385 571 q 432 546 416 570 q 441 517 441 534 q 434 485 441 503 q 381 410 422 460 q 318 327 347 370 q 296 292 302 304 q 289 267 289 280 q 292 243 289 258 q 327 164 302 203 q 373 101 351 126 q 384 71 384 85 q 370 35 384 56 q 321 6 356 13 l 313 5 q 260 39 283 5 q 226 106 241 70 q 196 142 214 134 q 188 144 192 144 q 155 123 173 144 q 126 84 142 106 q 95 43 110 62 q 67 13 79 24 q 28 -3 47 -3 z "},"Ø":{"ha":848,"x_min":23,"x_max":871,"o":"m 247 517 q 232 524 236 517 q 227 578 227 542 q 250 592 229 592 q 273 578 273 592 q 260 526 269 555 q 247 517 257 517 m 625 528 l 622 528 q 603 532 614 528 q 584 543 591 535 q 576 561 576 551 l 577 566 q 595 658 586 606 q 606 739 604 710 q 601 755 606 747 q 597 766 597 760 q 602 774 597 769 q 644 807 616 793 q 702 820 673 820 q 749 799 732 820 q 763 756 763 779 q 749 715 763 733 q 667 665 715 679 q 661 660 661 662 q 689 648 661 652 q 706 646 697 646 q 733 649 717 646 q 767 663 749 651 q 774 667 770 667 l 775 666 q 783 636 783 661 q 768 598 783 605 q 734 593 751 593 q 642 624 682 593 q 638 625 640 625 q 634 620 635 625 q 633 593 633 608 q 635 534 633 568 q 625 528 634 529 m 648 692 q 682 716 656 692 q 709 746 697 730 q 724 778 724 765 q 717 786 724 786 q 690 779 708 786 q 667 768 677 774 q 656 758 657 762 q 648 715 651 734 q 646 694 646 696 q 648 692 646 692 m 113 158 q 102 161 107 158 q 81 178 90 167 q 72 203 72 190 q 90 236 72 220 l 123 258 q 120 261 123 260 q 114 266 117 262 q 111 276 111 269 q 113 313 111 294 l 113 325 q 114 327 113 326 l 114 330 q 111 336 114 336 q 104 333 109 336 q 95 329 100 331 q 53 312 64 312 q 34 330 45 312 q 23 359 23 348 q 33 380 23 370 l 72 419 q 136 484 125 475 q 151 488 142 488 q 176 480 164 488 q 184 464 184 474 q 182 452 182 458 q 172 393 176 422 q 177 389 172 390 q 185 378 185 385 l 184 372 q 167 353 182 362 q 163 348 164 351 q 161 328 163 338 q 159 288 159 308 q 165 281 159 281 q 169 281 168 281 q 198 296 182 290 q 203 302 202 298 q 222 481 221 459 q 236 490 224 488 q 260 485 250 490 q 269 470 269 481 q 262 374 267 427 q 251 245 252 248 q 245 241 250 243 q 237 240 241 240 q 205 256 213 240 q 201 260 204 258 q 195 258 197 260 q 119 164 153 226 q 113 158 117 159 m 68 359 l 72 359 q 87 363 79 361 q 104 368 96 366 q 109 369 106 368 q 114 371 112 370 q 117 376 115 372 q 124 422 119 399 l 125 429 q 109 410 123 429 q 71 362 86 379 q 68 359 68 360 l 68 359 m 524 528 q 506 533 513 528 q 499 549 499 539 q 505 585 499 559 l 505 590 q 504 593 505 593 q 496 585 501 593 q 465 559 484 561 q 445 565 456 559 q 424 579 433 570 q 414 597 415 588 q 417 633 414 616 q 439 755 423 684 l 440 762 q 434 770 440 770 q 427 768 431 770 l 404 758 q 391 751 396 754 q 389 745 389 749 l 389 742 q 398 691 398 723 q 397 667 398 687 q 381 615 397 646 q 328 579 363 579 q 285 595 304 579 q 266 646 266 612 l 266 650 q 287 725 269 688 q 330 779 305 763 q 338 781 334 781 q 346 779 341 781 q 359 774 354 774 q 394 784 373 774 q 435 798 420 798 q 461 791 446 798 q 484 764 477 785 q 484 754 484 761 q 472 683 475 692 l 465 641 q 462 617 462 625 q 467 605 462 605 q 478 613 471 605 q 494 639 486 621 q 528 735 515 688 l 528 737 q 538 773 534 755 q 564 789 543 789 q 577 787 570 789 q 587 774 587 783 q 582 741 587 768 q 568 666 575 709 q 553 557 553 588 q 554 541 553 547 q 545 531 553 535 q 524 528 536 528 m 333 604 q 353 626 345 606 q 365 671 361 646 q 368 706 368 691 q 368 724 368 711 q 360 737 367 736 q 352 734 354 737 q 324 648 338 715 q 322 623 322 633 q 331 604 322 604 l 333 604 m 312 513 l 310 513 q 302 519 306 513 q 298 534 298 525 q 306 549 298 543 q 344 562 319 557 q 385 566 368 566 q 399 563 392 566 q 406 551 406 560 q 399 531 406 535 l 396 530 q 312 513 357 526 m 152 514 q 127 533 136 514 q 77 600 125 553 q 58 621 66 610 q 45 650 50 631 q 43 665 43 657 q 73 728 43 696 q 133 772 95 752 q 248 812 207 812 q 284 793 277 812 q 288 774 288 784 q 276 743 288 755 q 268 738 271 738 q 262 740 265 738 q 242 746 256 746 q 212 741 233 746 q 158 721 191 736 q 104 686 124 705 q 85 651 85 669 q 108 612 85 631 q 134 578 123 602 l 140 610 l 140 612 q 138 619 140 618 q 133 629 133 623 q 148 654 133 644 q 151 658 151 655 q 153 665 152 661 q 163 704 158 691 q 181 713 169 713 q 197 710 190 713 q 203 699 203 706 l 203 697 l 199 678 l 197 670 q 199 667 197 667 l 206 669 q 236 678 224 678 l 243 677 q 252 657 252 674 q 252 650 252 655 q 248 640 251 645 q 243 635 245 635 l 242 635 q 233 636 238 636 q 191 628 218 636 q 174 564 184 626 q 169 523 170 543 q 152 514 168 514 m 309 252 q 289 256 300 252 q 277 271 278 260 q 292 404 282 335 q 301 473 297 439 q 316 492 303 485 q 340 498 328 498 q 352 498 343 498 q 366 484 360 497 q 404 374 382 427 q 410 363 409 363 q 413 378 412 363 q 426 525 420 479 q 429 531 427 528 q 453 539 436 539 q 469 536 460 539 q 481 521 481 532 l 481 518 q 473 463 476 490 q 467 431 471 447 l 461 391 q 454 330 458 355 q 446 274 454 314 l 445 271 q 425 264 440 264 q 402 274 408 264 q 350 422 374 348 q 345 433 347 433 q 342 425 342 433 l 340 353 q 339 317 339 334 q 336 274 338 296 q 309 252 334 252 m 675 239 q 631 250 653 239 q 606 282 606 263 q 606 302 606 296 q 606 309 606 308 q 604 310 605 310 q 597 300 602 310 q 563 271 584 281 q 530 264 545 264 q 495 277 510 264 q 473 327 473 296 q 475 353 473 332 q 523 404 477 374 l 524 405 q 523 407 524 406 q 519 410 523 408 q 496 435 503 417 q 492 455 492 446 q 501 486 492 471 q 551 518 519 513 l 557 519 q 597 506 582 519 q 608 484 608 497 q 605 468 608 477 l 597 454 q 588 437 591 446 l 582 437 q 562 454 562 437 q 571 486 562 465 l 574 493 q 573 496 574 496 l 572 496 q 568 494 571 496 q 545 467 554 486 q 538 439 538 452 q 555 415 538 421 q 570 413 562 413 q 576 409 574 413 q 578 402 578 406 q 571 391 578 393 q 534 363 549 385 q 526 340 526 352 q 532 320 526 330 q 550 309 537 309 q 622 375 579 309 q 631 380 626 380 l 636 380 q 644 376 640 380 q 647 370 647 372 q 646 366 647 368 q 631 311 632 342 q 632 293 631 300 q 639 281 633 286 q 645 279 642 279 q 650 280 648 279 q 672 292 661 283 q 690 309 682 300 q 702 330 697 318 l 703 332 q 700 337 703 336 q 695 339 696 339 q 690 335 692 339 q 678 330 685 330 q 663 340 667 330 q 662 345 662 342 q 667 357 662 351 l 682 376 q 684 379 684 377 q 681 385 684 384 l 656 406 q 633 459 633 429 q 636 489 633 466 q 667 541 640 511 q 728 570 694 570 q 758 563 741 569 q 786 545 776 557 q 792 531 792 538 q 782 508 792 521 q 772 491 777 500 q 764 473 764 477 q 759 467 763 467 q 745 474 753 467 q 735 486 739 478 q 734 491 734 488 q 759 527 734 505 l 759 528 q 736 516 753 528 q 688 457 702 490 q 682 434 682 446 q 699 402 682 414 l 702 401 q 708 404 706 401 q 815 491 762 460 q 830 495 823 495 q 860 476 847 495 q 871 448 871 459 q 868 442 871 444 q 797 419 836 440 q 732 376 757 398 q 730 370 730 374 l 730 367 q 742 328 742 348 q 724 271 742 300 q 675 239 704 239 m 274 128 q 263 130 268 129 q 258 133 259 132 q 257 137 257 134 q 257 140 257 139 q 258 140 258 140 l 260 140 q 274 136 267 136 q 283 138 279 136 q 286 146 286 140 q 282 153 286 151 q 273 158 278 156 q 263 164 267 161 q 258 175 258 168 q 264 187 258 183 q 277 191 269 191 q 286 190 281 191 q 291 186 291 188 q 292 184 292 185 q 290 180 292 180 l 288 181 q 277 184 283 184 q 267 176 267 184 q 271 168 267 171 q 281 163 275 165 q 290 157 286 161 q 295 146 294 153 q 289 133 294 138 q 274 128 283 128 m 340 129 l 338 129 q 334 130 334 129 q 334 183 334 130 l 316 183 q 315 186 315 183 q 315 190 315 189 q 338 191 315 191 q 360 190 360 191 q 361 186 361 189 q 360 184 361 184 q 342 183 359 183 q 341 130 342 130 q 340 129 341 130 m 410 128 q 393 134 399 128 q 387 151 387 140 l 387 189 q 388 190 387 190 q 391 191 389 191 q 394 190 393 191 q 395 171 395 190 q 396 145 395 148 q 410 136 399 136 q 425 144 421 136 q 425 170 425 148 q 426 190 425 190 q 429 191 427 191 q 433 190 433 191 q 433 152 433 189 q 427 134 433 140 q 410 128 421 128 m 483 130 q 468 130 469 130 q 467 160 467 131 q 468 190 467 189 q 484 191 469 191 q 507 182 499 191 q 514 161 514 174 q 483 130 514 130 m 484 136 q 500 142 495 136 q 505 161 505 148 q 494 182 505 176 q 475 184 490 184 l 475 136 l 484 136 m 549 129 l 547 129 q 544 129 545 129 q 543 160 543 130 q 544 190 543 190 q 547 191 545 191 q 550 190 549 191 q 551 160 551 190 q 551 130 551 130 q 549 129 551 130 m 608 128 q 588 137 594 129 q 581 159 581 144 q 588 183 581 174 q 609 191 595 191 q 629 183 623 191 q 636 161 636 176 q 629 137 636 146 q 608 128 622 129 m 608 136 q 627 160 627 136 q 609 184 627 184 q 594 178 599 184 q 590 160 590 171 q 594 142 590 149 q 608 136 597 136 z "},"Ù":{"ha":848,"x_min":23,"x_max":871,"o":"m 247 517 q 232 524 236 517 q 227 578 227 542 q 250 592 229 592 q 273 578 273 592 q 260 526 269 555 q 247 517 257 517 m 625 528 l 622 528 q 603 532 614 528 q 584 543 591 535 q 576 561 576 551 l 577 566 q 595 658 586 606 q 606 739 604 710 q 601 755 606 747 q 597 766 597 760 q 602 774 597 769 q 644 807 616 793 q 702 820 673 820 q 749 799 732 820 q 763 756 763 779 q 749 715 763 733 q 667 665 715 679 q 661 660 661 662 q 689 648 661 652 q 706 646 697 646 q 733 649 717 646 q 767 663 749 651 q 774 667 770 667 l 775 666 q 783 636 783 661 q 768 598 783 605 q 734 593 751 593 q 642 624 682 593 q 638 625 640 625 q 634 620 635 625 q 633 593 633 608 q 635 534 633 568 q 625 528 634 529 m 648 692 q 682 716 656 692 q 709 746 697 730 q 724 778 724 765 q 717 786 724 786 q 690 779 708 786 q 667 768 677 774 q 656 758 657 762 q 648 715 651 734 q 646 694 646 696 q 648 692 646 692 m 113 158 q 102 161 107 158 q 81 178 90 167 q 72 203 72 190 q 90 236 72 220 l 123 258 q 120 261 123 260 q 114 266 117 262 q 111 276 111 269 q 113 313 111 294 l 113 325 q 114 327 113 326 l 114 330 q 111 336 114 336 q 104 333 109 336 q 95 329 100 331 q 53 312 64 312 q 34 330 45 312 q 23 359 23 348 q 33 380 23 370 l 72 419 q 136 484 125 475 q 151 488 142 488 q 176 480 164 488 q 184 464 184 474 q 182 452 182 458 q 172 393 176 422 q 177 389 172 390 q 185 378 185 385 l 184 372 q 167 353 182 362 q 163 348 164 351 q 161 328 163 338 q 159 288 159 308 q 165 281 159 281 q 169 281 168 281 q 198 296 182 290 q 203 302 202 298 q 222 481 221 459 q 236 490 224 488 q 260 485 250 490 q 269 470 269 481 q 262 374 267 427 q 251 245 252 248 q 245 241 250 243 q 237 240 241 240 q 205 256 213 240 q 201 260 204 258 q 195 258 197 260 q 119 164 153 226 q 113 158 117 159 m 68 359 l 72 359 q 87 363 79 361 q 104 368 96 366 q 109 369 106 368 q 114 371 112 370 q 117 376 115 372 q 124 422 119 399 l 125 429 q 109 410 123 429 q 71 362 86 379 q 68 359 68 360 l 68 359 m 524 528 q 506 533 513 528 q 499 549 499 539 q 505 585 499 559 l 505 590 q 504 593 505 593 q 496 585 501 593 q 465 559 484 561 q 445 565 456 559 q 424 579 433 570 q 414 597 415 588 q 417 633 414 616 q 439 755 423 684 l 440 762 q 434 770 440 770 q 427 768 431 770 l 404 758 q 391 751 396 754 q 389 745 389 749 l 389 742 q 398 691 398 723 q 397 667 398 687 q 381 615 397 646 q 328 579 363 579 q 285 595 304 579 q 266 646 266 612 l 266 650 q 287 725 269 688 q 330 779 305 763 q 338 781 334 781 q 346 779 341 781 q 359 774 354 774 q 394 784 373 774 q 435 798 420 798 q 461 791 446 798 q 484 764 477 785 q 484 754 484 761 q 472 683 475 692 l 465 641 q 462 617 462 625 q 467 605 462 605 q 478 613 471 605 q 494 639 486 621 q 528 735 515 688 l 528 737 q 538 773 534 755 q 564 789 543 789 q 577 787 570 789 q 587 774 587 783 q 582 741 587 768 q 568 666 575 709 q 553 557 553 588 q 554 541 553 547 q 545 531 553 535 q 524 528 536 528 m 333 604 q 353 626 345 606 q 365 671 361 646 q 368 706 368 691 q 368 724 368 711 q 360 737 367 736 q 352 734 354 737 q 324 648 338 715 q 322 623 322 633 q 331 604 322 604 l 333 604 m 312 513 l 310 513 q 302 519 306 513 q 298 534 298 525 q 306 549 298 543 q 344 562 319 557 q 385 566 368 566 q 399 563 392 566 q 406 551 406 560 q 399 531 406 535 l 396 530 q 312 513 357 526 m 152 514 q 127 533 136 514 q 77 600 125 553 q 58 621 66 610 q 45 650 50 631 q 43 665 43 657 q 73 728 43 696 q 133 772 95 752 q 248 812 207 812 q 284 793 277 812 q 288 774 288 784 q 276 743 288 755 q 268 738 271 738 q 262 740 265 738 q 242 746 256 746 q 212 741 233 746 q 158 721 191 736 q 104 686 124 705 q 85 651 85 669 q 108 612 85 631 q 134 578 123 602 l 140 610 l 140 612 q 138 619 140 618 q 133 629 133 623 q 148 654 133 644 q 151 658 151 655 q 153 665 152 661 q 163 704 158 691 q 181 713 169 713 q 197 710 190 713 q 203 699 203 706 l 203 697 l 199 678 l 197 670 q 199 667 197 667 l 206 669 q 236 678 224 678 l 243 677 q 252 657 252 674 q 252 650 252 655 q 248 640 251 645 q 243 635 245 635 l 242 635 q 233 636 238 636 q 191 628 218 636 q 174 564 184 626 q 169 523 170 543 q 152 514 168 514 m 309 252 q 289 256 300 252 q 277 271 278 260 q 292 404 282 335 q 301 473 297 439 q 316 492 303 485 q 340 498 328 498 q 352 498 343 498 q 366 484 360 497 q 404 374 382 427 q 410 363 409 363 q 413 378 412 363 q 426 525 420 479 q 429 531 427 528 q 453 539 436 539 q 469 536 460 539 q 481 521 481 532 l 481 518 q 473 463 476 490 q 467 431 471 447 l 461 391 q 454 330 458 355 q 446 274 454 314 l 445 271 q 425 264 440 264 q 402 274 408 264 q 350 422 374 348 q 345 433 347 433 q 342 425 342 433 l 340 353 q 339 317 339 334 q 336 274 338 296 q 309 252 334 252 m 675 239 q 631 250 653 239 q 606 282 606 263 q 606 302 606 296 q 606 309 606 308 q 604 310 605 310 q 597 300 602 310 q 563 271 584 281 q 530 264 545 264 q 495 277 510 264 q 473 327 473 296 q 475 353 473 332 q 523 404 477 374 l 524 405 q 523 407 524 406 q 519 410 523 408 q 496 435 503 417 q 492 455 492 446 q 501 486 492 471 q 551 518 519 513 l 557 519 q 597 506 582 519 q 608 484 608 497 q 605 468 608 477 l 597 454 q 588 437 591 446 l 582 437 q 562 454 562 437 q 571 486 562 465 l 574 493 q 573 496 574 496 l 572 496 q 568 494 571 496 q 545 467 554 486 q 538 439 538 452 q 555 415 538 421 q 570 413 562 413 q 576 409 574 413 q 578 402 578 406 q 571 391 578 393 q 534 363 549 385 q 526 340 526 352 q 532 320 526 330 q 550 309 537 309 q 622 375 579 309 q 631 380 626 380 l 636 380 q 644 376 640 380 q 647 370 647 372 q 646 366 647 368 q 631 311 632 342 q 632 293 631 300 q 639 281 633 286 q 645 279 642 279 q 650 280 648 279 q 672 292 661 283 q 690 309 682 300 q 702 330 697 318 l 703 332 q 700 337 703 336 q 695 339 696 339 q 690 335 692 339 q 678 330 685 330 q 663 340 667 330 q 662 345 662 342 q 667 357 662 351 l 682 376 q 684 379 684 377 q 681 385 684 384 l 656 406 q 633 459 633 429 q 636 489 633 466 q 667 541 640 511 q 728 570 694 570 q 758 563 741 569 q 786 545 776 557 q 792 531 792 538 q 782 508 792 521 q 772 491 777 500 q 764 473 764 477 q 759 467 763 467 q 745 474 753 467 q 735 486 739 478 q 734 491 734 488 q 759 527 734 505 l 759 528 q 736 516 753 528 q 688 457 702 490 q 682 434 682 446 q 699 402 682 414 l 702 401 q 708 404 706 401 q 815 491 762 460 q 830 495 823 495 q 860 476 847 495 q 871 448 871 459 q 868 442 871 444 q 797 419 836 440 q 732 376 757 398 q 730 370 730 374 l 730 367 q 742 328 742 348 q 724 271 742 300 q 675 239 704 239 m 274 128 q 263 130 268 129 q 258 133 259 132 q 257 137 257 134 q 257 140 257 139 q 258 140 258 140 l 260 140 q 274 136 267 136 q 283 138 279 136 q 286 146 286 140 q 282 153 286 151 q 273 158 278 156 q 263 164 267 161 q 258 175 258 168 q 264 187 258 183 q 277 191 269 191 q 286 190 281 191 q 291 186 291 188 q 292 184 292 185 q 290 180 292 180 l 288 181 q 277 184 283 184 q 267 176 267 184 q 271 168 267 171 q 281 163 275 165 q 290 157 286 161 q 295 146 294 153 q 289 133 294 138 q 274 128 283 128 m 340 129 l 338 129 q 334 130 334 129 q 334 183 334 130 l 316 183 q 315 186 315 183 q 315 190 315 189 q 338 191 315 191 q 360 190 360 191 q 361 186 361 189 q 360 184 361 184 q 342 183 359 183 q 341 130 342 130 q 340 129 341 130 m 410 128 q 393 134 399 128 q 387 151 387 140 l 387 189 q 388 190 387 190 q 391 191 389 191 q 394 190 393 191 q 395 171 395 190 q 396 145 395 148 q 410 136 399 136 q 425 144 421 136 q 425 170 425 148 q 426 190 425 190 q 429 191 427 191 q 433 190 433 191 q 433 152 433 189 q 427 134 433 140 q 410 128 421 128 m 483 130 q 468 130 469 130 q 467 160 467 131 q 468 190 467 189 q 484 191 469 191 q 507 182 499 191 q 514 161 514 174 q 483 130 514 130 m 484 136 q 500 142 495 136 q 505 161 505 148 q 494 182 505 176 q 475 184 490 184 l 475 136 l 484 136 m 549 129 l 547 129 q 544 129 545 129 q 543 160 543 130 q 544 190 543 190 q 547 191 545 191 q 550 190 549 191 q 551 160 551 190 q 551 130 551 130 q 549 129 551 130 m 608 128 q 588 137 594 129 q 581 159 581 144 q 588 183 581 174 q 609 191 595 191 q 629 183 623 191 q 636 161 636 176 q 629 137 636 146 q 608 128 622 129 m 608 136 q 627 160 627 136 q 609 184 627 184 q 594 178 599 184 q 590 160 590 171 q 594 142 590 149 q 608 136 597 136 z "}}}
